<?xml version="1.0" encoding="UTF-8" standalone="no"?>
<!-- Created with Inkscape (http://www.inkscape.org/) -->

<svg
   width="24"
   height="24"
   viewBox="0 0 24 24"
   version="1.1"
   id="svg1"
   inkscape:version="1.3.2 (091e20e, 2023-11-25, custom)"
   sodipodi:docname="more-info.svg"
   xmlns:inkscape="http://www.inkscape.org/namespaces/inkscape"
   xmlns:sodipodi="http://sodipodi.sourceforge.net/DTD/sodipodi-0.dtd"
   xmlns="http://www.w3.org/2000/svg"
   xmlns:svg="http://www.w3.org/2000/svg">
  <sodipodi:namedview
     id="namedview1"
     pagecolor="#ffffff"
     bordercolor="#000000"
     borderopacity="0.25"
     inkscape:showpageshadow="2"
     inkscape:pageopacity="0.0"
     inkscape:pagecheckerboard="0"
     inkscape:deskcolor="#d1d1d1"
     inkscape:document-units="px"
     inkscape:zoom="1.6054688"
     inkscape:cx="13.391727"
     inkscape:cy="-18.686131"
     inkscape:window-width="1920"
     inkscape:window-height="1018"
     inkscape:window-x="-6"
     inkscape:window-y="-6"
     inkscape:window-maximized="1"
     inkscape:current-layer="g42" />
  <defs
     id="defs1" />
  <g
     inkscape:label="Layer 1"
     inkscape:groupmode="layer"
     id="layer1">
    <path
       id="path48-7-2"
       style="fill:#4d4d4d;fill-opacity:0.87843138;stroke:none;stroke-width:1.0974"
       d="M 11.998047 0 C 5.3717386 0.0009069991 0.00089763691 5.3717389 0 11.998047 C -0.00054803096 18.625385 5.3707087 23.999093 11.998047 24 C 18.626415 24.000548 24.000548 18.626406 24 11.998047 C 23.999102 5.3707089 18.625385 -0.00054799945 11.998047 0 z M 11.998047 2.6542969 C 17.159091 2.6538709 21.345003 6.8370134 21.345703 11.998047 C 21.346128 17.159886 17.159894 21.346128 11.998047 21.345703 C 6.8370129 21.344995 2.6538717 17.159092 2.6542969 11.998047 C 2.6549961 6.8378164 6.8378161 2.6550049 11.998047 2.6542969 z " />
    <g
       id="g27"
       transform="matrix(0.9448819,0,0,0.9448819,-605.87246,209.09984)">
      <g
         id="g42"
         style="fill:#4d4d4d;fill-opacity:0.97647059">
        <g
           id="g1"
           style="fill:#4d4d4d;fill-opacity:0.97647059">
          <g
             id="g15-5-0-7"
             transform="matrix(0.99987107,0,0,0.20997837,344.83545,-256.02963)"
             style="fill:#4d4d4d;fill-opacity:0.97647059">
            <rect
               style="fill:#4d4d4d;fill-rule:evenodd;stroke-width:0.194428;fill-opacity:0.97647059"
               id="rect5-9-0-1-1-8-7-9-7-4-3-1-2-48-2"
               width="2.8103623"
               height="13.382331"
               x="307.71423"
               y="195.06104" />
          </g>
          <g
             id="g15-5-0-7-8"
             transform="matrix(0.99987107,0,0,0.62990707,344.83545,-333.42357)"
             style="fill:#4d4d4d;fill-opacity:0.97647059">
            <rect
               style="fill:#4d4d4d;fill-rule:evenodd;stroke-width:0.194428;fill-opacity:0.97647059"
               id="rect5-9-0-1-1-8-7-9-7-4-3-1-2-48-2-6"
               width="2.8103623"
               height="13.382331"
               x="307.71423"
               y="195.06104" />
          </g>
        </g>
      </g>
    </g>
  </g>
</svg>
