<?xml version="1.0" encoding="UTF-8"?>
<svg xmlns="http://www.w3.org/2000/svg" version="1.1" viewBox="0 0 112 112">
  <!-- Generator: Adobe Illustrator 28.6.0, SVG Export Plug-In . SVG Version: 1.2.0 Build 709)  -->
  <g>
    <g id="Layer_1">
      <g>
        <path d="M56,1c30.4,0,55,24.6,55.1,55,0,30.4-24.5,55-55,55.1-30.4,0-55-24.6-55.1-55C.9,25.6,25.5,1,56,1ZM56,12c-24.3,0-44,19.8-44,44,0,24.2,19.8,44,44,44,24.4,0,44-19.8,44-44,0-24.4-19.8-43.9-44-44Z"/>
        <path d="M50.5,67c0-5.2,0-10.4,0-15.5,0-.9,0-.9.9-.9,3.1,0,6.2,0,9.3,0,.6,0,.8.2.8.8,0,10.5,0,21,0,31.5,0,.6-.2.8-.8.8-3.1,0-6.2,0-9.4,0-.9,0-.9,0-.9-.9,0-5.2,0-10.4,0-15.7Z"/>
        <path d="M56,39.5c-1.6,0-3.2,0-4.8,0-.5,0-.7-.1-.7-.7,0-3.2,0-6.4,0-9.7,0-.5.2-.8.8-.7,3.2,0,6.4,0,9.5,0,.6,0,.8.2.8.7,0,3.2,0,6.4,0,9.7,0,.6-.2.7-.7.7-1.6,0-3.2,0-4.8,0Z"/>
      </g>
    </g>
  </g>
</svg>