<?xml version="1.0" encoding="UTF-8"?>
<svg xmlns="http://www.w3.org/2000/svg" version="1.1" viewBox="0 0 24 24">
  <defs>
    <style>
      .cls-1, .cls-2 {
        fill: #fff;
      }

      .cls-3 {
        fill: none;
      }

      .cls-3, .cls-2 {
        stroke: #fff;
        stroke-miterlimit: 10;
        stroke-width: 1.6px;
      }
    </style>
  </defs>
  <!-- Generator: Adobe Illustrator 28.6.0, SVG Export Plug-In . SVG Version: 1.2.0 Build 709)  -->
  <g>
    <g id="Layer_1">
      <path class="cls-3" d="M5.7,14.4h12.2l1.6,4.2H4.1l1.7-4.6s-.5-4.5.4-6.7,3.7-3.5,5.6-3.5,4.5,1.3,5.2,3.1.9,3.6.8,4.9"/>
      <g>
        <line class="cls-2" x1="4.3" y1="7.3" x2="1.2" y2="5.1"/>
        <line class="cls-2" x1="3.5" y1="11.2" x2=".4" y2="11.2"/>
      </g>
      <g>
        <line class="cls-2" x1="19.7" y1="7.3" x2="22.8" y2="5.1"/>
        <line class="cls-2" x1="20.5" y1="11.2" x2="23.6" y2="11.2"/>
      </g>
      <path class="cls-1" d="M9.3,20.5h5.2s-.7,2.3-2.8,2.3-2.4-2.3-2.4-2.3Z"/>
      <path class="cls-1" d="M15,4.1l-3.3-.4-3.3.4s.9-2.9,3.5-2.9,3,2.9,3,2.9Z"/>
    </g>
  </g>
</svg>