<?xml version="1.0" encoding="UTF-8"?>
<svg xmlns="http://www.w3.org/2000/svg" version="1.1" viewBox="0 0 24 24">
  <defs>
    <style>
      .cls-1 {
        fill: #fff;
      }
    </style>
  </defs>
  <!-- Generator: Adobe Illustrator 28.7.1, SVG Export Plug-In . SVG Version: 1.2.0 Build 142)  -->
  <g>
    <g id="Layer_1">
      <g>
        <path class="cls-1" d="M0,9.3c0-.5.2-1.1.3-1.6.4-1.6,1.2-3.1,2.3-4.3,1.1-1.1,2.3-2,3.8-2.5.5-.2,1,0,1.1.6,0,.4-.1.7-.5.8-.4.2-.8.3-1.2.5-2.3,1.3-3.7,3.2-4.2,5.8-.2,1.2-.1,2.4.3,3.6,0,.1,0,.3,0,.4,0,.4-.2.7-.6.8-.4,0-.8,0-.9-.4-.2-.6-.3-1.2-.5-1.9C0,11,0,10.8,0,10.5c0-.4,0-.8,0-1.3Z"/>
        <path class="cls-1" d="M14.8,20.4c0,.9-.4,1.6-1,2.2-.5.4-1.1.6-1.8.6-1.2,0-2.7-.9-2.8-2.8,0,0-.2,0-.2,0-1,0-2,0-3,0-1.1,0-1.9-.8-1.9-1.9,0-.5.2-.9.5-1.2.6-.6,1-1.2,1.4-2,.4-.9.6-1.9.6-2.9,0-.7,0-1.5,0-2.2.2-2.1,1.8-4,3.8-4.6.2,0,.3-.2.3-.4,0-.5,0-1,0-1.5,0-.7.7-1.2,1.3-1.2.7,0,1.3.5,1.3,1.2,0,.5,0,1.1,0,1.6,0,.2,0,.2.2.3,2.4.7,4,2.8,4,5.3,0,.7,0,1.4,0,2.1.1,1.5.7,2.8,1.7,3.9.4.4.7.8.8,1.3.1,1.1-.7,2.1-1.8,2.1-1.1,0-2.1,0-3.2,0,0,0-.2,0-.3,0ZM12,18.8c2,0,4,0,5.9,0,0,0,.1,0,.2,0,.2,0,.4-.3.2-.5-.1-.1-.2-.3-.3-.4-1-1.1-1.7-2.5-1.9-4-.1-.9,0-1.9-.1-2.9,0-.4,0-.7-.1-1.1-.5-2-2.3-3.3-4.4-3-1.6.2-3,1.5-3.2,3.1-.1.7,0,1.5,0,2.2,0,1.6-.4,3.1-1.3,4.5-.3.5-.7.9-1.1,1.4,0,0-.1.3,0,.4,0,0,.2.1.3.2,0,0,.1,0,.2,0,1.9,0,3.9,0,5.8,0ZM10.9,20.4c0,.6.5,1.1,1.1,1.2.7,0,1.2-.5,1.2-1.2h-2.3Z"/>
        <path class="cls-1" d="M24,9.4c0,1.5-.2,2.5-.5,3.5-.2.5-.6.7-1,.6-.4-.1-.7-.6-.5-1,.3-.9.4-1.9.4-2.9,0-1.7-.6-3.2-1.7-4.6-.9-1.2-2.1-2-3.5-2.5-.1,0-.3-.1-.4-.2-.3-.2-.4-.7-.2-1,.2-.3.6-.5,1-.4,1.6.5,2.9,1.4,4,2.7,1,1.1,1.7,2.4,2.1,3.8.2.8.3,1.6.3,2Z"/>
        <path class="cls-1" d="M3.3,9.7c.2-2.6,1.4-4.6,3.8-5.8.2-.1.4-.2.7-.3.4-.1.9,0,1,.5.2.4,0,.9-.4,1-.6.2-1.2.5-1.6.9-1.4,1.2-2,2.8-1.7,4.7,0,.3.1.5.2.8.1.5-.1.9-.5,1-.5.1-.9,0-1-.6-.2-.7-.4-1.5-.3-2.2Z"/>
        <path class="cls-1" d="M20.7,9.8c0,.8-.1,1.5-.3,2.2-.2.5-.6.7-1,.5-.4-.1-.6-.6-.5-1,.2-.6.3-1.2.3-1.8,0-1.8-1.3-3.7-3-4.4-.1,0-.3-.1-.4-.2-.4-.2-.6-.6-.4-1,.2-.4.6-.6,1-.5,1.5.6,2.7,1.5,3.6,2.9.6,1,.9,2.2.9,3.2Z"/>
      </g>
    </g>
  </g>
</svg>