<svg xmlns="http://www.w3.org/2000/svg" viewBox="0 0 24 24">
<path fill="#FFFFFF" d="m15.9 5.7-1.4-2.2c-.1-.3-.5-.5-.8-.5h-3.6c-.3 0-.7.2-.8.5L7.8 5.7H4.6c-.9 0-1.6.7-1.6 1.5v10.2c0 .9.7 1.6 1.6 1.6h15.3c.9 0 1.5-.7 1.5-1.5V7.2c0-.9-.7-1.6-1.5-1.6h-4zm1.2-2h2.8c2 0 3.5 1.6 3.5 3.5v10.2c0 2-1.6 3.5-3.5 3.5H4.6c-2 0-3.6-1.6-3.6-3.5V7.2c0-1.9 1.6-3.5 3.6-3.5h2.2l.8-1.3C8.1 1.5 9.1 1 10.1 1h3.6c1 0 2 .5 2.5 1.4l.9 1.3zM15 12.5c0-1.7-1.3-3-3-3s-3 1.3-3 3 1.3 3 3 3 3-1.3 3-3zm2 0c0 2.8-2.2 5-5 5s-5-2.2-5-5 2.2-5 5-5 5 2.2 5 5zm1.9-3.1c.8 0 1.5-.7 1.5-1.5s-.7-1.5-1.5-1.5-1.5.7-1.5 1.5.7 1.5 1.5 1.5z"></path></svg>