<svg fill="none" height="58" viewBox="0 0 57 58" width="57" xmlns="http://www.w3.org/2000/svg">
<path d="m56.8837 29.6528c0-1.9091-.1691-3.7216-.4591-5.4858h-27.3084v10.8992h15.6359c-.7009 3.5767-2.755 6.5975-5.8 8.6517v7.25h9.3283c5.4617-5.0509 8.6033-12.4942 8.6033-21.3151z" fill="#4285f4"/>
<path d="m29.1169 58c7.83 0 14.3792-2.61 19.1642-7.0325l-9.3283-7.25c-2.61 1.74-5.9209 2.8034-9.8359 2.8034-7.5642 0-13.9683-5.0992-16.2642-11.9867h-9.61832v7.4675c4.76083 9.4733 14.54832 15.9983 25.88252 15.9983z" fill="#34a853"/>
<path d="m12.8521 34.5344c-.6042-1.74-.9184-3.6009-.9184-5.5342s.3384-3.7942.9184-5.5342v-7.4675h-9.61839c-1.98167 3.915-3.117499 8.3134-3.117499 13.0017 0 4.6884 1.135829 9.0867 3.117499 13.0017z" fill="#fbbc05"/>
<path d="m29.1169 11.4792c4.2775 0 8.0959 1.4742 11.1167 4.35l8.265-8.26502c-5.0025-4.68834-11.5517-7.56418-19.3817-7.56418-11.3342 0-21.12169 6.52501-25.88252 15.9984l9.61832 7.4675c2.2959-6.8875 8.7-11.9867 16.2642-11.9867z" fill="#ea4335"/>
</svg>