<?xml version="1.0" encoding="UTF-8"?>
<svg xmlns="http://www.w3.org/2000/svg" version="1.1" viewBox="0 0 100 100">
  <defs>
    <style>
      .cls-1 {
        fill: #fff;
      }

      .cls-2 {
        fill: #57627c;
      }

      .cls-3 {
        fill: #d6b156;
      }
    </style>
  </defs>
  <!-- Generator: Adobe Illustrator 28.6.0, SVG Export Plug-In . SVG Version: 1.2.0 Build 709)  -->
  <g>
    <g id="Layer_1">
      <g id="Layer_1-2" data-name="Layer_1">
        <g>
          <path class="cls-1" d="M.4,62.7c.6-2.4,1.2-4.7,1.8-6.9,1.3-5.1,2.7-10.1,4-15.2.3-1.2,1-2.2,2.1-2.8,1.4-.8,3.1-.7,4.2.4.7.6,1.3,1.4,1.7,2.3,2.1,3.7,4.1,7.4,6.2,11.1.2.3.4.6.6,1,.8-1.5,1.6-2.9,2.4-4.2,1.4-2.6,2.9-5.2,4.3-7.8.2-.4.5-.9.8-1.3.9-1.3,2.1-2.2,3.9-1.9,1.8.3,3,1.5,3.4,3.2.8,2.8,1.5,5.7,2.2,8.5,1.1,4.2,2.2,8.4,3.3,12.6,0,.3,0,.6.2,1.1h-6.8c-.7,0-.9-.2-1.1-.9-.8-3.7-1.6-7.3-2.5-11,0-.4-.2-.7-.3-1.2-.3.4-.5.7-.6,1-1.8,3.3-3.7,6.5-5.5,9.8-.8,1.5-1.9,2.5-3.7,2.5s-3.1-1-4-2.5c-1.8-3.3-3.7-6.5-5.6-9.8-.2-.3-.3-.5-.6-1-.4,1.5-.7,2.9-1,4.2-.6,2.7-1.2,5.3-1.8,8,0,.6-.4.9-1.1.9H0h.4Z"/>
          <path class="cls-3" d="M51.4,3c23.1.9,38.1,17.2,42.9,30.6h-8c-1.1,0-1.6-.3-2.1-1.3-7.7-15.2-20.1-23.9-37.2-24.6-17.4-.7-30.7,7-39.7,21.9-.7,1.1-1.2,2.3-1.8,3.4C11,18.2,27.8,2.1,51.4,3Z"/>
          <path class="cls-3" d="M5.6,66.4h9c.3,0,.7.5.8.8,2.4,5.1,5.6,9.6,9.8,13.5,21.2,19.9,55.7,13.6,68.5-12.5.2-.3.3-.7.6-.9-3.6,8.7-9.3,15.8-17,21.2-7.8,5.4-16.4,8.3-25.9,8.6-24.2.6-40.8-16.1-45.9-30.6h.1Z"/>
          <path class="cls-1" d="M43.4,47h6.9v8.9c.2,0,.2.2.3.2,3.1,0,6.1,0,9.2,0,3.8-.3,6.1-3.6,5.2-7.3-.6-2.5-2.9-4.4-5.7-4.6h-16.1c.8-1.1,1.4-2,2-3s.7-.9,1-1.4c.8-1.8,2.2-2.3,4.1-2.2,3,.2,6.1,0,9.1,0s5.7,1,8.1,2.7c6.6,4.7,6.4,16.7-2.9,21-1.8.8-3.8,1.2-5.8,1.2h-15.5v-15.5h0Z"/>
          <path class="cls-2" d="M91.2,66.4c-5.1,11.5-18.4,23.1-36.7,23-18.2,0-31.3-11.9-36-22.9.1.2.3.4.4.6,7.2,12.1,17.9,18.5,31.9,18.5s24.7-6.4,31.9-18.4c.3-.5.6-.8,1.3-.8h7.3-.1Z"/>
          <path class="cls-2" d="M81.4,33.6c-.2-.3-.3-.5-.5-.8-7.7-13.5-23.4-20.8-38.6-17.8-11.1,2.1-19.5,8.1-25.2,17.9-.3.5-.6.7-1.2.7h-6.5c-.2,0-.4,0-.7,0,5-11.5,19.1-24.2,39.2-22.9,9,.6,16.8,3.9,23.6,9.7,4.3,3.6,7.6,8,9.9,13.2h0Z"/>
          <path class="cls-1" d="M82,56.1h17.5c-.3.4-.5.8-.7,1-1.1,1.6-2.2,3.2-3.4,4.7-.2.3-.7.6-1.1.6h-19.3v-24.8h6.9v18.5h0Z"/>
        </g>
      </g>
    </g>
  </g>
</svg>