<?xml version="1.0" encoding="UTF-8"?>
<svg xmlns="http://www.w3.org/2000/svg" version="1.1" viewBox="0 0 300 30">
  <defs>
    <style>
      .cls-1 {
        fill: #111;
      }
    </style>
  </defs>
  <!-- Generator: Adobe Illustrator 28.7.0, SVG Export Plug-In . SVG Version: 1.2.0 Build 136)  -->
  <g>
    <g id="Layer_1">
      <g>
        <path class="cls-1" d="M36,1.1v27.7c0,0-9.7,0-9.7,0l.5-8.2c.2-3,.4-4.7,1-7.7h-.4c0,0-.2.7-.2.7-.7,2.8-1,3.9-2.2,6.8l-3.5,8.4h-6.3l-1.1-8.8c0-.5-.1-1.2-.2-2.1,0-1-.1-1.9-.1-2.5v-.5c0-.7,0-1.1,0-2.1h-.3v.6c-.4,2.6-.6,3.8-1.2,6.6l-2,8.8H0L8.1,1.1h10.6l1.1,8.6c.1,1,.2,2,.2,3.1s0,1.8-.2,3h.4c.5-2.6,1.1-4.5,2.5-7.9l2.8-6.9h10.6Z"/>
        <path class="cls-1" d="M47.8,25.1l-1.3,3.7h-10.8L48.5,1.1h11.5l5.2,27.7h-10.3l-.2-3.7h-6.8ZM50.2,18.8h3.8l-.4-5c0-.5,0-1.2,0-2s0-1.3.1-2.2h-.3c-.4,1.6-.6,2.5-1.2,4.2l-1.9,5Z"/>
        <path class="cls-1" d="M85.3,18l6,10.9h-10.9l-2.5-6.7c-.4-1.2-.9-2.7-1.1-3.7h-.3c0,1,0,1.3,0,2.1,0,1.2,0,2.6-.2,3.7l-.5,4.7h-10.1l3.4-27.7h11c4.5,0,6.7.6,8.7,2.2,2,1.7,3.2,4.3,3.2,6.9s-1,4.7-2.8,6.1c-1.2,1-2,1.3-4.1,1.6ZM78.4,8.5l-.6,5h.8c2.3,0,3.8-1.1,3.8-2.7s-1-2.2-3.2-2.2h-.8Z"/>
        <path class="cls-1" d="M113.6,1.1l-1.1,8.7-4.8-.3-2.4,19.3h-10.2l2.4-19.3-4.8.3,1-8.7h19.8Z"/>
        <path class="cls-1" d="M124.8,1.1l-3.4,27.7h-10.2l3.4-27.7h10.2Z"/>
        <path class="cls-1" d="M156.4,1.1l-3.4,27.7h-9.7l-4.8-9.6c-1-2-1.6-3.6-2.2-5.6l-.2-.5h-.3c.1,1.2.2,2.2.2,3.3s0,2.1-.1,2.8l-.9,9.6h-10.1l3.4-27.7h10.1l4.9,10.4c.6,1.3,1.1,2.5,1.7,4.9l.2.9h.4s0-1,0-1c-.1-1.5-.2-2.7-.2-3.8s0-2.2.2-3.3l.7-8.2h10.2Z"/>
        <path class="cls-1" d="M178.2,1.1l-.9,7.2h-8.2l-.4,3h7.5l-.8,6.9h-7.5l-.4,3.2h8.5l-.9,7.4h-18.5l3.4-27.7h18.2Z"/>
        <path class="cls-1" d="M202.3,20.6l-1,8.2h-25.2l.3-2.5,9.7-13.6c1.5-2,2-2.7,3-3.2v-.3c-1.3.4-2.1.5-3.7.5l-6.4.2,1.1-8.7h24.2l-.3,2.5-10.3,14.5c-1.3,1.8-1.7,2.2-2.7,3l.2.3c1.4-.4,1.7-.5,3.7-.5l7.5-.2Z"/>
        <path class="cls-1" d="M209.9,1.1l-3.2,26.1h7.7l-.2,1.7h-9.6l3.4-27.7h1.8Z"/>
        <path class="cls-1" d="M221.7,1.1l-2.1,17.3c-.3,2.4-.7,5.2,1.5,7.4,1.6,1.5,3.6,1.8,5.2,1.8s4.2-.3,6-2.2c1.9-1.9,2.2-4.4,2.6-7l2.1-17.3h1.8l-2.1,17.3c-.3,2.5-.6,5.7-3.2,8.3-2.3,2.2-4.9,2.6-7.2,2.6s-4.6-.3-6.6-2.3c-2.2-2.2-2.2-5.2-1.8-8.6l2.1-17.3h1.8Z"/>
        <path class="cls-1" d="M256.9,15.5h11.6c-.2,2.6-1.2,6.7-4.3,9.8-3.6,3.6-7.8,4-9.9,4-3.8,0-6.9-1-9.6-3.7-2.5-2.5-3.7-5.4-3.7-9.1s2-8.8,4.6-11.3c2.3-2.3,6-4.4,11.4-4.4s5.3.7,7.3,2c1,.6,2.8,2,4.2,4.4l-1.6,1.2c-.8-1.5-2.1-3-3.5-4-1.8-1.3-4.2-2-6.5-2-3.9,0-7.5,1.6-9.9,3.9-2.7,2.6-4.1,6.4-4.1,9.9s1.4,6.2,3.2,8c2,2.1,4.9,3.4,8,3.4s6.9-1.4,9.1-3.7c1.2-1.3,2.8-3.5,3.3-6.7h-9.8l.2-1.7Z"/>
        <path class="cls-1" d="M296.6,4.5c2.5,2.5,3.4,5.6,3.4,8.9s-1.2,8.1-4.7,11.5c-3.3,3.2-7,4.3-11.1,4.3s-6.7-.8-9.4-3.5c-1.5-1.5-3.8-4.5-3.8-9.2s1.5-8,4.7-11.3c3.7-3.7,7.9-4.5,11.2-4.5s7.5,1.7,9.6,3.8ZM294,23.8c2.7-2.7,4.2-6.7,4.2-10.2s-1.4-6.2-3.2-8c-1.8-1.8-4.6-3.2-8.2-3.2s-7.7,1.9-9.6,3.9c-2.9,2.9-4.2,6.7-4.2,10.1s1.3,6.1,3,7.9c2.3,2.4,5,3.3,8,3.3,4.5,0,7.8-1.7,10-3.8Z"/>
      </g>
    </g>
  </g>
</svg>