<?xml version="1.0" encoding="UTF-8" standalone="no"?>
<!-- Created with Inkscape (http://www.inkscape.org/) -->

<svg
   width="64"
   height="12"
   viewBox="0 0 16.933333 3.175"
   version="1.1"
   id="svg1"
   inkscape:version="1.3.2 (091e20e, 2023-11-25, custom)"
   sodipodi:docname="mdl-logo-new.svg"
   xmlns:inkscape="http://www.inkscape.org/namespaces/inkscape"
   xmlns:sodipodi="http://sodipodi.sourceforge.net/DTD/sodipodi-0.dtd"
   xmlns="http://www.w3.org/2000/svg"
   xmlns:svg="http://www.w3.org/2000/svg">
  <sodipodi:namedview
     id="namedview1"
     pagecolor="#ffffff"
     bordercolor="#000000"
     borderopacity="0.25"
     inkscape:showpageshadow="2"
     inkscape:pageopacity="0.0"
     inkscape:pagecheckerboard="0"
     inkscape:deskcolor="#d1d1d1"
     inkscape:document-units="mm"
     inkscape:zoom="8.4662347"
     inkscape:cx="17.717439"
     inkscape:cy="9.6855335"
     inkscape:window-width="1920"
     inkscape:window-height="1018"
     inkscape:window-x="-6"
     inkscape:window-y="-6"
     inkscape:window-maximized="1"
     inkscape:current-layer="layer1" />
  <defs
     id="defs1" />
  <g
     inkscape:label="Layer 1"
     inkscape:groupmode="layer"
     id="layer1">
    <path
       id="path2-8-1-2-6-6-9-1-2-0"
       style="fill:#fe5100;fill-opacity:1;stroke-width:0"
       inkscape:transform-center-y="-1.948259"
       d="M 1.2701825,0.48749998 0.63509128,1.5874974 0,2.6874958 H 0.50807303 0.99398374 1.5867356 1.8629343 L 1.5665583,2.1741304 1.2701825,1.6607649 1.0161459,2.1008628 1.1008248,2.247397 0.76210932,2.2475663 0.88912764,2.0274344 1.2701825,1.3675348 1.6512371,2.0274344 2.0322918,2.6875 h 0.508073 L 1.9052737,1.5874974 Z m 0.6774306,0 L 1.6935765,0.92743276 2.0746313,1.5874974 2.7097226,2.6874958 H 3.2177955 L 2.5827042,1.5874974 Z" />
    <g
       id="text2-4-4-8-1-7-4-6"
       style="font-weight:bold;font-size:1.59853px;line-height:0;font-family:'Futura PT';-inkscape-font-specification:'Futura PT Bold';text-align:end;letter-spacing:-0.0697468px;writing-mode:vertical-lr;text-anchor:end;stroke-width:0"
       transform="matrix(0,-1.001648,0.98966135,0,0.09600607,-0.08519119)"
       aria-label="MARTINEZ DE LUGO">
      <g
         id="g9"
         transform="translate(-0.05742337)">
        <path
           style="font-weight:normal;line-height:0.7;font-family:'Futura PT Extra Bold Italic';-inkscape-font-specification:'Futura PT Extra Bold Italic, ';letter-spacing:-0.0289607px"
           d="M -1.2005013,4.9143943 -1.4642587,4.8072928 c -0.1310795,-0.052752 -0.2046119,-0.075131 -0.3037207,-0.094313 v -0.015985 c 0.046357,0.00799 0.068737,0.00959 0.1166927,0.00959 0.041562,0 0.079927,-0.0032 0.1182912,-0.00799 L -1.2005013,4.657031 V 4.2478073 L -2.2667208,3.9376924 v 0.3916399 l 0.3372898,0.078328 c 0.105503,0.023978 0.1534589,0.031971 0.2525678,0.044759 l 0.023978,0.0032 v 0.012788 c -0.036766,-0.0032 -0.051153,-0.0032 -0.079927,-0.0032 h -0.020781 c -0.023978,0 -0.055948,0.0016 -0.095912,0.0048 -0.033569,0.0032 -0.060744,0.0048 -0.079926,0.00799 L -2.266721,4.5195593 V 4.762534 l 0.3229031,0.135875 c 0.1102985,0.046357 0.1518603,0.059146 0.2605604,0.086321 l 0.030372,0.00799 -0.0032,0.014387 C -1.769578,4.9863282 -1.8383147,4.976737 -1.9518104,4.9703429 L -2.2667208,4.949562 v 0.3756545 l 1.0662195,-0.0032 z"
           id="path1" />
        <path
           style="font-weight:normal;line-height:0.7;font-family:'Futura PT Extra Bold Italic';-inkscape-font-specification:'Futura PT Extra Bold Italic, ';letter-spacing:-0.0651616px"
           d="m -2.1244516,6.0891266 -0.1422692,0.00799 V 6.4919562 L -1.2005013,6.2937385 V 5.8525442 L -2.2667208,5.3601969 v 0.4156178 l 0.1422692,0.051153 z m 0.4363987,-0.1007074 c 0.062343,0.023978 0.09751,0.033569 0.159853,0.047956 v 0.012788 c -0.035168,-0.0032 -0.046357,-0.0048 -0.084722,-0.0048 -0.030372,0 -0.057547,0.0016 -0.075131,0.0032 l -0.1934222,0.015985 V 5.9164854 Z"
           id="path2" />
        <path
           style="font-weight:normal;line-height:0.7;font-family:'Futura PT Extra Bold Italic';-inkscape-font-specification:'Futura PT Extra Bold Italic, ';letter-spacing:-0.0695054px"
           d="m -1.7871618,7.4418614 c 0.05435,0.067138 0.1422692,0.1071015 0.2349839,0.1071015 0.1007074,0 0.1998163,-0.046357 0.265356,-0.1246853 0.063941,-0.079927 0.086321,-0.1614515 0.086321,-0.3356913 V 6.6649758 L -2.2667208,6.5338964 v 0.3868442 l 0.1790354,0.020781 c 0.039963,0.0048 0.092715,0.00799 0.1406706,0.00799 0.028774,0 0.04316,0 0.078328,-0.0016 l 0.0016,0.01119 c -0.039963,0.00799 -0.09751,0.025576 -0.1422692,0.041562 l -0.2573633,0.095912 V 7.5153938 L -1.8495045,7.283607 c 0.01119,0.079927 0.023978,0.1102985 0.062343,0.1582544 z m 0.3005237,-0.3948369 c 0,0.084722 -0.027175,0.1230868 -0.086321,0.1230868 -0.063941,0 -0.1055029,-0.055949 -0.1055029,-0.1454662 v -0.031971 l 0.1918236,0.023978 z m 0.2861368,0.5715055 -0.3356913,-0.039963 0.01119,0.183831 -0.7417179,-0.091116 v 0.3916398 l 0.7417179,0.091116 -0.01119,0.1838309 0.3356913,0.041562 z"
           id="path3" />
        <path
           style="font-weight:normal;line-height:0.7;font-family:'Futura PT Extra Bold Italic';-inkscape-font-specification:'Futura PT Extra Bold Italic, ';letter-spacing:-0.139011px"
           d="M -1.2005013,8.4282169 -2.2667208,8.2971374 v 0.3916399 l 1.0662195,0.1310794 z m 0,1.1589947 -0.3149104,-0.027175 c -0.041562,-0.0048 -0.083123,-0.00639 -0.1262839,-0.00639 -0.044759,0 -0.087919,0.0032 -0.1470647,0.00799 l -0.035168,0.0032 -0.0016,-0.015985 0.035168,-0.00959 c 0.091116,-0.025576 0.1374735,-0.04316 0.1886265,-0.067138 l 0.401231,-0.1886265 v -0.388449 l -1.066218,-0.1310795 v 0.3884428 l 0.3676619,0.033569 c 0.027175,0.0032 0.06554,0.0048 0.1071015,0.0048 0.044759,0 0.079927,-0.0016 0.1278824,-0.00639 v 0.012788 l -0.019182,0.00639 c -0.07673,0.022379 -0.1374736,0.046357 -0.2158016,0.084722 L -2.2667208,9.473716 v 0.374056 l 1.0662195,0.1310795 z"
           id="path4" />
        <path
           style="font-weight:normal;line-height:0.7;font-family:'Futura PT Extra Bold Italic';-inkscape-font-specification:'Futura PT Extra Bold Italic, ';letter-spacing:-0.082538px"
           d="M -1.2005013,10.054044 -2.2667208,9.9229647 v 0.7129443 l 0.2861369,0.03517 v -0.3261 l 0.1214883,0.01439 v 0.287736 l 0.2637574,0.03197 V 10.39134 l 0.1166927,0.01439 v 0.31491 l 0.2781442,0.03357 z M -1.956606,11.391 c -0.0032,-0.07673 -0.0048,-0.08792 -0.020781,-0.140671 l 0.012788,-0.0064 c 0.027175,0.03836 0.04316,0.05275 0.1134956,0.103905 l 0.5562885,0.394836 0.094313,0.01279 v -0.93034 l -0.3356913,-0.04156 0.00639,0.244576 c 0.0032,0.06394 0.00639,0.09271 0.020781,0.139072 l -0.012788,0.0048 c -0.022379,-0.03677 -0.047956,-0.05914 -0.1246853,-0.115094 l -0.5243179,-0.372457 -0.095912,-0.01279 v 0.970308 l 0.3165089,0.03837 z"
           id="path5" />
        <path
           style="font-weight:normal;line-height:0.7;font-family:'Futura PT Light Italic';-inkscape-font-specification:'Futura PT Light Italic, ';letter-spacing:-0.178107px;word-spacing:0px"
           d="m -2.2667208,12.174194 c 0,0.171042 0.035168,0.327698 0.1502618,0.449186 0.1262839,0.132678 0.2989251,0.166248 0.4348002,0.166248 0.1566559,0 0.2637575,-0.04955 0.3324942,-0.110299 0.1358751,-0.11989 0.1486633,-0.286137 0.1486633,-0.388443 v -0.196619 l -1.0662195,-0.131079 v 0.06714 z m 1.0022783,-0.01758 v 0.123087 c 0,0.08792 -0.012788,0.228589 -0.1246853,0.334092 -0.052752,0.04955 -0.1454662,0.103905 -0.2845384,0.103905 -0.1102985,0 -0.2701515,-0.02717 -0.3900413,-0.148664 -0.070335,-0.07034 -0.1390721,-0.179035 -0.1390721,-0.388442 V 12.04152 Z"
           id="path6" />
        <path
           style="font-weight:normal;line-height:0.7;font-family:'Futura PT Light Italic';-inkscape-font-specification:'Futura PT Light Italic, ';letter-spacing:-0.157835px;word-spacing:0px"
           d="m -1.2005013,13.41878 v -0.51153 l -1.0662195,-0.131079 v 0.06714 0.444391 l 0.063941,0.008 v -0.441194 l 0.4875517,0.05914 v 0.431603 l 0.063941,0.008 v -0.431603 l 0.3868442,0.04796 v 0.441194 z"
           id="path7" />
        <path
           style="font-weight:normal;line-height:0.7;font-family:'Futura PT Light Italic';-inkscape-font-specification:'Futura PT Light Italic, ';letter-spacing:-0.170867px"
           d="m -1.2005013,13.715644 -1.0662195,-0.13108 v 0.367662 l 0.063941,0.008 v -0.297327 l 1.0022783,0.123087 z m 0,0.361442 -0.666587,-0.08152 c -0.1294809,-0.01599 -0.2429766,-0.01599 -0.3292972,0.06874 -0.076729,0.07673 -0.087919,0.180634 -0.087919,0.254166 0,0.08952 0.012788,0.190225 0.099109,0.278144 0.099109,0.100708 0.2221957,0.113496 0.3181075,0.124686 l 0.666587,0.08152 v -0.07034 l -0.666587,-0.08153 c -0.1007074,-0.01279 -0.1966192,-0.02558 -0.2701516,-0.09911 -0.070335,-0.07034 -0.083124,-0.164648 -0.083124,-0.231787 0,-0.06074 0.00959,-0.137473 0.068737,-0.198217 0.083124,-0.08472 0.1934221,-0.06714 0.2845383,-0.05595 l 0.666587,0.08152 z"
           id="path8" />
        <path
           style="font-weight:normal;line-height:0.7;font-family:'Futura PT Light Italic';-inkscape-font-specification:'Futura PT Light Italic, ';letter-spacing:-0.133219px"
           d="m -1.8191324,15.400844 v 0.375654 c -0.1230868,-0.02078 -0.2078089,-0.07993 -0.2573633,-0.127882 -0.091116,-0.08792 -0.1438677,-0.215802 -0.1438677,-0.351677 0,-0.11989 0.047956,-0.22859 0.1294809,-0.306918 0.071934,-0.06874 0.1790354,-0.121488 0.3085163,-0.121488 0.1358751,0 0.2813413,0.05595 0.3820487,0.158254 0.087919,0.09112 0.1502618,0.230189 0.1502618,0.380451 0,0.08792 -0.025576,0.179035 -0.075131,0.24937 -0.038365,0.05435 -0.099109,0.102306 -0.1550574,0.134277 l 0.044759,0.06234 c 0.094313,-0.05435 0.1470648,-0.124686 0.1710427,-0.161452 0.049554,-0.07833 0.078328,-0.169444 0.078328,-0.281341 0,-0.204612 -0.083124,-0.346881 -0.1710427,-0.436399 -0.095912,-0.09911 -0.2429766,-0.177437 -0.4332016,-0.177437 -0.1422692,0 -0.2573634,0.04796 -0.3516767,0.143868 -0.1023059,0.102306 -0.1422691,0.222196 -0.1422691,0.367662 0,0.08312 0.014387,0.242976 0.1518603,0.382048 0.1182912,0.11989 0.2781443,0.156656 0.3772531,0.166248 v -0.447589 z m 0.6330179,1.112037 c 0,-0.126284 -0.031971,-0.290932 -0.1742398,-0.431603 -0.1246853,-0.123087 -0.2877354,-0.182232 -0.4332016,-0.182232 -0.1822324,0 -0.2973266,0.08632 -0.3548737,0.145466 -0.1039044,0.105503 -0.135875,0.223794 -0.135875,0.362866 0,0.156656 0.039963,0.298925 0.1646486,0.426808 0.1310794,0.134276 0.2877354,0.179035 0.4427928,0.179035 0.1294809,0 0.2461736,-0.03677 0.3436839,-0.131079 0.081525,-0.07993 0.1470648,-0.199817 0.1470648,-0.369261 z m -1.0342489,-0.115094 c 0,-0.115094 0.035168,-0.220597 0.1278824,-0.308516 0.070335,-0.06554 0.1726412,-0.116693 0.3053192,-0.116693 0.132678,0 0.2781442,0.05115 0.3884428,0.16305 0.075131,0.07673 0.1486633,0.196619 0.1486633,0.370859 0,0.135875 -0.052751,0.242977 -0.1230868,0.313312 -0.068737,0.06874 -0.1742398,0.121488 -0.3069178,0.121488 -0.1342765,0 -0.2877354,-0.05435 -0.3932384,-0.159853 -0.081525,-0.08312 -0.1470647,-0.211006 -0.1470647,-0.383647 z"
           id="path9" />
      </g>
    </g>
  </g>
</svg>
