<?xml version="1.0" encoding="UTF-8"?>
<svg xmlns="http://www.w3.org/2000/svg" version="1.1" viewBox="0 0 112 112">
  <defs>
    <style>
      .cls-1 {
        fill: #f2f4f7;
      }

      .cls-2 {
        fill: none;
        stroke: #475467;
        stroke-miterlimit: 10;
        stroke-width: 4px;
      }
    </style>
  </defs>
  <!-- Generator: Adobe Illustrator 28.6.0, SVG Export Plug-In . SVG Version: 1.2.0 Build 709)  -->
  <g>
    <g id="Layer_1">
      <path class="cls-1" d="M37.4.8c12.4-1.1,26.5-1.1,39.1.4,16.3,2.1,30.1,13.1,34.4,28.8,2,8,.9,17-1.5,24.9-3.8,12.2-8.9,21.7-13.9,32.3-2.5,4.7-4.7,10.3-7.9,14-5.9,6.3-13.6,9.8-22.9,10.6-6.6.4-12.9-1-18.9-3.1-8.6-3-17.4-7-25.6-10.8-4.8-2.3-9.3-4.2-12.2-8.6C.9,79-1.2,66.5.6,53.9c.9-7.8,2.4-16,3.6-22.4,1.2-5.8,2.5-11.2,5.4-15.8C15.7,6.6,26.9,2.2,37.2.8h.2Z"/>
      <g>
        <polygon class="cls-2" points="57.3 33.9 49.7 33.9 47.8 33.9 40.2 33.9 36.5 37.6 36.5 78.1 47.8 78.1 49.7 78.1 61 78.1 61 37.6 57.3 33.9"/>
        <line class="cls-2" x1="33" y1="78.1" x2="64.5" y2="78.1"/>
        <line class="cls-2" x1="60.5" y1="51.9" x2="36.5" y2="51.9"/>
        <path class="cls-2" d="M70,36.9l9,9v22s0,5-5,5-4.5-4.5-4.5-4.5v-6.4s-3.5-4.1-3.5-4.1h-5"/>
        <path class="cls-2" d="M79,51.9s-6,0-6-5v-7"/>
      </g>
    </g>
  </g>
</svg>