<?xml version="1.0" encoding="UTF-8"?>
<svg xmlns="http://www.w3.org/2000/svg" version="1.1" viewBox="0 0 112 112">
  <defs>
    <style>
      .cls-1 {
        fill: #f2f4f7;
      }

      .cls-2 {
        fill: none;
        stroke: #475467;
        stroke-miterlimit: 10;
        stroke-width: 4px;
      }
    </style>
  </defs>
  <!-- Generator: Adobe Illustrator 28.6.0, SVG Export Plug-In . SVG Version: 1.2.0 Build 709)  -->
  <g>
    <g id="Layer_1">
      <path class="cls-1" d="M37.4.8c12.4-1.1,26.5-1.1,39.1.4,16.3,2.1,30.1,13.1,34.4,28.8,2,8,.9,17-1.5,24.9-3.8,12.2-8.9,21.7-13.9,32.3-2.5,4.7-4.7,10.3-7.9,14-5.9,6.3-13.6,9.8-22.9,10.6-6.6.4-12.9-1-18.9-3.1-8.6-3-17.4-7-25.6-10.8-4.8-2.3-9.3-4.2-12.2-8.6C.9,79-1.2,66.5.6,53.9c.9-7.8,2.4-16,3.6-22.4,1.2-5.8,2.5-11.2,5.4-15.8C15.7,6.6,26.9,2.2,37.2.8h.2Z"/>
      <g>
        <path class="cls-2" d="M34.2,81.5l-5-12s-2-9.2,2.5-15.1l18.5-23.9h31.4l1.6,3v45.4l-2.3,2.6h-46.7Z"/>
        <polygon class="cls-2" points="51.7 38 76.3 38 76.3 63.6 36.7 63.6 38.7 58 51.7 38"/>
        <line class="cls-2" x1="65.7" y1="71" x2="74.5" y2="71"/>
      </g>
    </g>
  </g>
</svg>