<?xml version="1.0" encoding="UTF-8"?>
<svg xmlns="http://www.w3.org/2000/svg" version="1.1" viewBox="0 0 112 112">
  <defs>
    <style>
      .cls-1 {
        fill: #262626;
        font-family: SegoeUI-Bold, 'Segoe UI';
        font-size: 46.3px;
        font-weight: 700;
      }

      .cls-1, .cls-2 {
        isolation: isolate;
      }

      .cls-3 {
        fill: #f2f4f7;
      }

      .cls-4 {
        fill: #fff;
      }

      .cls-5 {
        fill: #92c46f;
      }
    </style>
  </defs>
  <!-- Generator: Adobe Illustrator 28.6.0, SVG Export Plug-In . SVG Version: 1.2.0 Build 709)  -->
  <g>
    <g id="Layer_1">
      <path class="cls-3" d="M37.4.8c12.4-1.1,26.5-1.1,39.1.4,16.3,2.1,30.1,13.1,34.4,28.8,2,8,.9,17-1.5,24.9-3.8,12.2-8.9,21.7-13.9,32.3-2.5,4.7-4.7,10.3-7.9,14-5.9,6.3-13.6,9.8-22.9,10.6-6.6.4-12.9-1-18.9-3.1-8.6-3-17.4-7-25.6-10.8-4.8-2.3-9.3-4.2-12.2-8.6C.9,79-1.2,66.5.6,53.9c.9-7.8,2.4-16,3.6-22.4,1.2-5.8,2.5-11.2,5.4-15.8C15.7,6.6,26.9,2.2,37.2.8h.2Z"/>
      <g>
        <circle class="cls-5" cx="56" cy="56" r="39.5"/>
        <rect class="cls-4" x="66.7" y="56.3" width="19.9" height="15.1" rx="2.1" ry="2.1"/>
        <g class="cls-2">
          <text class="cls-1" transform="translate(29.3 69.5)"><tspan x="0" y="0">C</tspan></text>
        </g>
        <rect class="cls-4" x="66.7" y="36.8" width="16.7" height="16.8" rx="2.1" ry="2.1"/>
      </g>
    </g>
  </g>
</svg>