<?xml version="1.0" encoding="UTF-8"?>
<svg id="Layer_1" data-name="Layer 1" xmlns="http://www.w3.org/2000/svg" version="1.1" viewBox="0 0 222 222">
  <defs>
    <style>
      .cls-1 {
        fill: #000;
      }

      .cls-1, .cls-2 {
        stroke-width: 0px;
      }

      .cls-2 {
        fill: #fff;
      }
    </style>
  </defs>
  <path class="cls-1" d="M107,140.1c-15.3,0-30.6,0-45.9,0-3.8,0-3.9-.2-3.6-4,.3-4.9.5-9.8-1.6-14.5-4.4-9.5-15-14.9-24.7-12.5-10.8,2.7-17.9,12.3-17.1,23.2.4,5.1,0,5.4-5.1,5.2-6.3-.2-8.1-1.8-8.8-8.1-.3-2.6-.1-5.2,0-7.8,0-.4.1-1.1.4-1.3,2.5-1.4,2.6-4.1,3.4-6.3,1.9-5,5.2-8.2,10.6-9.2,14.5-2.7,29-5.3,43.4-8,2.4-.4,4.8-1,7-2.1,7.3-3.6,14.6-7.3,21.8-11,10.6-5.4,22-8,33.9-8.1,10.8,0,21.5.2,32.3.5,7.2.2,13.7,3,20.1,6,4.4,2,8.8,4.1,12.9,6.6,6.9,4.3,14.5,5.7,22.2,7.3,2.3.5,4.6,1.3,6.7,2.2,2.5,1,3.8,3,3.9,5.7.3,4.7.6,9.5,1.1,14.2.1,1.1.9,2.2,1.4,3.3.2.4.8.8.8,1.1-.3,3.7-.6,7.5-1.3,11.2-.2.9-2,1.9-3.1,2.1-4.6.8-9.2,1.2-13.9,1.7-2.3.2-2.9-1.2-2.8-3.2.2-4.4.2-8.7-1.7-12.8-4.3-9.4-14.1-14.7-24.1-12.7-9.9,1.9-17.5,10.9-17.7,21,0,1.9.1,3.8.3,5.7.3,3.5-.1,4-3.6,4.2-1,0-2.1,0-3.1,0-14.7,0-29.3,0-44,0h0ZM77.8,95c2.2.4,3.8.7,5.3,1,1.7.4,2.5,1.5,2.2,3.3-.4,2.8-.4,2.9,2.6,2.8,10.8-.5,21.7-1,32.5-1.4,2.2,0,3.2-1.2,3.5-3.4.8-5.1,1.6-10.1,2.5-15.2.3-1.5-.3-2.4-1.8-2.2-7.5.7-15.1.9-22.3,2.5-8.1,1.8-15.4,6.2-22.3,10.8-.6.4-1,.9-2.1,1.8ZM144.5,100.5c0-.1,0-.2,0-.4,4.5-.3,9-.6,13.5-.8,1.7,0,2.4-.9,2.6-2.4.4-4,.8-8,1-12,0-.8-.8-1.8-1.5-2.3-.8-.6-1.9-.7-2.9-1-7.3-2.1-14.9-1.6-22.4-1.7-1.9,0-2.9,1-3.2,2.8-.7,5-1.3,10-2,15-.3,2.1.4,2.9,2.5,2.8,4.1-.1,8.2,0,12.3,0ZM164.5,84.2l-.8.5c-.3,4.3-.7,8.6-.9,12.9,0,.4,1,1.3,1.5,1.3,2.6,0,5.2,0,7.8-.4,2.7-.3,3.3-2.8,3.9-4.9.3-1-.2-2.8-1-3.3-3.4-2.2-7-4.1-10.6-6.2Z"/>
  <path class="cls-1" d="M35.9,146.4c-8.9,0-15.3-5.5-16.3-14.1-1-8,4.8-16.2,12.5-17.8,8.7-1.8,17.1,2.8,19.5,11.1,2.5,8.3-.9,16.4-9.6,20.3-1.8.8-4,.4-6.1.6Z"/>
  <path class="cls-1" d="M180,146.2c-9.6,0-15.4-4.8-17-13-1.4-7.4,3.1-15.2,10.4-18,7.7-3,16.5.3,20.4,7.8,3.8,7.3,1.4,16.4-5.2,21.1-2.9,2.1-6.1,2.4-8.6,2.1Z"/>
  <path class="cls-2" d="M77.8,95c1.1-.9,1.5-1.5,2.1-1.8,7-4.6,14.2-8.9,22.3-10.8,7.3-1.6,14.9-1.8,22.3-2.5,1.6-.2,2.1.7,1.8,2.2-.9,5.1-1.7,10.1-2.5,15.2-.3,2.2-1.3,3.3-3.5,3.4-10.8.5-21.7,1-32.5,1.4-3,.1-3,0-2.6-2.8.3-1.8-.4-2.9-2.2-3.3-1.5-.4-3-.6-5.3-1Z"/>
  <path class="cls-2" d="M144.5,100.5c-4.1,0-8.2,0-12.3,0-2.2,0-2.8-.7-2.5-2.8.7-5,1.3-10,2-15,.2-1.8,1.2-2.9,3.2-2.8,7.5.1,15-.4,22.4,1.7,1,.3,2.1.4,2.9,1,.7.5,1.6,1.5,1.5,2.3-.2,4-.7,8-1,12-.1,1.6-.8,2.4-2.6,2.4-4.5.2-9,.5-13.5.8,0,.1,0,.2,0,.4Z"/>
  <path class="cls-2" d="M164.5,84.2c3.6,2,7.2,3.9,10.6,6.2.8.5,1.2,2.3,1,3.3-.6,2.1-1.3,4.5-3.9,4.9-2.6.3-5.2.4-7.8.4-.5,0-1.5-.8-1.5-1.3.2-4.3.6-8.6.9-12.9l.8-.5Z"/>
</svg>