<?xml version="1.0" encoding="UTF-8"?>
<svg id="Layer_1" data-name="Layer 1" xmlns="http://www.w3.org/2000/svg" version="1.1" viewBox="0 0 222 222">
  <defs>
    <style>
      .cls-1 {
        fill: #000;
        stroke-width: 0px;
      }
    </style>
  </defs>
  <path class="cls-1" d="M112.1,141c-15.1,0-30.1,0-45.2,0-3.8,0-3.8-.1-3.2-3.8,2.2-13-4.1-24.3-15.7-28.1-14-4.6-28.9,5.7-29.6,20.4,0,1.9,0,3.8,0,5.7,0,2-1,2.9-2.9,3-2,0-4,0-6,0-3.1-.3-5.2-2-5.7-5-.5-3.6-.4-7.2-.5-10.9,0-.7.5-1.4.9-2,.9-1.5,2.2-2.7,2.8-4.3,2.5-7,7.6-10.4,14.7-11.7,15.1-2.8,30.2-5.7,45.3-8.7,1.4-.3,2.8-.9,4.1-1.7,11.1-6.7,22.4-13,34.9-16.6,6.7-1.9,13.8-3,20.7-3.4,17.6-1,35.2.3,52.7,2.8,2.9.4,5.7,1.8,8.3,3.2,6.6,3.5,13,7.3,19.5,11,3,1.7,4.7,4.2,5.2,7.7,1,7,2.2,14,3.4,21.1.1.6.3,1.3.6,1.8.6,1.2,2,2.3,1.9,3.4,0,3.5-.3,7.1-1.1,10.5-.5,2-7.1,3.8-8.9,2.6-.6-.3-.9-1.5-.9-2.3-.2-3,.1-6.2-.4-9.1-2.1-11.5-12.6-19.6-24-18.6-11.9,1-20.9,10.4-21.3,22.3,0,2.1.2,4.3.2,6.4.1,3.2-.6,4-3.8,4.1-1.4,0-2.8,0-4.2,0-14,0-28,0-42,0h0ZM83.7,93.6c2.7.5,4.6.8,6.5,1.1,1.8.4,2.6,1.4,2.5,3.4-.2,3.2-.2,3.3,2.9,3.2,11.4-.5,22.8-1.1,34.2-1.7,2,0,3-1.1,3.3-3,.8-5.1,1.7-10.1,2.5-15.2.5-3.2.1-3.4-3.2-3.5-17-.7-32.1,5-46.2,13.9-.6.4-1.1.9-2.4,1.8ZM146.7,99.4s0,0,0-.1c11.2-.6,22.4-1.2,33.7-1.8,2.9-.2,3.8-1.7,2.1-3.8-3.2-4.1-6.6-8-10.3-11.7-1.3-1.3-3.4-2.2-5.3-2.4-7.3-.8-14.6-1.2-22-1.7-2.3-.2-3.5,1.2-3.8,3.1-.9,5.5-1.5,11-2.2,16.4-.2,1.5.5,2.1,2,2,1.9,0,3.8,0,5.7,0Z"/>
  <path class="cls-1" d="M184.5,148.4c-9.3,0-17-8.1-17-17.6,0-9.6,7.7-17.2,17.3-17.1,9.5,0,17.1,7.8,17,17.4-.1,9.4-8.1,17.3-17.3,17.3Z"/>
  <path class="cls-1" d="M58.4,130.9c0,9.4-8.1,17.5-17.3,17.5-9.1,0-17-8.2-17-17.5,0-9.5,7.7-17.2,17.2-17.2,9.5,0,17.2,7.8,17.2,17.3Z"/>
</svg>