<?xml version="1.0" encoding="UTF-8"?>
<svg xmlns="http://www.w3.org/2000/svg" version="1.1" viewBox="0 0 48 48">
  <defs>
    <style>
      .cls-1 {
        fill: none;
        stroke: #475467;
        stroke-miterlimit: 10;
        stroke-width: 1.4px;
      }

      .cls-2 {
        fill: #f0f8ff;
      }

      .cls-3 {
        fill: #d7edfe;
      }
    </style>
  </defs>
  <!-- Generator: Adobe Illustrator 28.6.0, SVG Export Plug-In . SVG Version: 1.2.0 Build 709)  -->
  <g>
    <g id="Layer_1">
      <g>
        <circle class="cls-2" cx="24" cy="23.7" r="24"/>
        <circle class="cls-3" cx="24" cy="23.7" r="17.7"/>
      </g>
      <g>
        <circle class="cls-1" cx="17.7" cy="29.5" r="3.2"/>
        <circle class="cls-1" cx="30" cy="29.3" r="3.2"/>
        <line class="cls-1" x1="14.4" y1="24.9" x2="14.4" y2="29.5"/>
        <polyline class="cls-1" points="20.9 29.5 26.7 29.5 26.7 16.2 25.2 14.7 15.8 14.7 14.8 15.7 14.8 18"/>
        <line class="cls-1" x1="12.2" y1="18" x2="20.7" y2="18"/>
        <line class="cls-1" x1="13.4" y1="20.4" x2="22.3" y2="20.4"/>
        <line class="cls-1" x1="12.2" y1="22.8" x2="20.7" y2="22.8"/>
        <line class="cls-1" x1="27.2" y1="22.8" x2="34.4" y2="22.8"/>
        <polyline class="cls-1" points="26.7 18 30.3 18 34.4 22.1 34.4 28.9 35.8 28.9"/>
      </g>
      <path class="cls-1" d="M145.2,120.4s-3.4-3-2.6-5.3,1.5-2.5,2.6-2.6,2.6.7,3,2.6-3,5.3-3,5.3Z"/>
      <line class="cls-1" x1="144.5" y1="115.5" x2="145.2" y2="115.5"/>
    </g>
  </g>
</svg>