<?xml version="1.0" encoding="UTF-8"?>
<!-- Created with Inkscape (http://www.inkscape.org/) -->
<svg width="24" height="24" version="1.1" viewBox="0 0 24 24" xmlns="http://www.w3.org/2000/svg">
 <path d="m11.748 4.4756v6.2988h-5.9453v-2e-3c8.7e-5 -1.6898-1.3311-3.069-3.002-3.1465v-0.0039h-1.4004v3.1523h-1.4004v6.3008h2.377c0.31907 1.4018 1.5739 2.4491 3.0723 2.4492 1.4985 9.9e-5 2.7513-1.0473 3.0703-2.4492h7.1582c0.31907 1.4018 1.5739 2.4491 3.0723 2.4492 1.4985 9.9e-5 2.7513-1.0473 3.0703-2.4492h2.1797v-3.1621c-0.0063-1.7341-1.4145-3.1388-3.1504-3.1387h-1.4004c2.61e-4 -3.4389-2.7578-6.233-6.1816-6.2969v-0.00191zm1.4004 1.4004h0.08398c2.6669 0.0452 4.8166 2.2209 4.8164 4.8984h-4.9004zm-10.348 3.1543c0.89657 0.07582 1.6016 0.82612 1.6016 1.7422v2e-3h-1.6016zm-1.4004 3.1445h19.449c0.96656-4.9e-5 1.75 0.78358 1.75 1.75v1.75h-0.7793c-0.31826-1.4029-1.571-2.4513-3.0703-2.4512-1.4992 8.3e-5 -2.754 1.0484-3.0723 2.4512h-7.1582c-0.31826-1.4028-1.571-2.4512-3.0703-2.4512-1.4992 8.3e-5 -2.754 1.0484-3.0723 2.4512h-0.97656zm4.0488 2.4492c0.96656-4.9e-5 1.75 0.78358 1.75 1.75-4.8e-5 0.96637-0.78351 1.7501-1.75 1.75-0.96642-5.4e-5 -1.75-0.7837-1.75-1.75-7.4e-5 -0.96635 0.78351-1.7499 1.75-1.75zm13.301 0c0.96656-4.9e-5 1.75 0.78358 1.75 1.75-4.8e-5 0.96637-0.78351 1.7501-1.75 1.75-0.96642-5.4e-5 -1.75-0.7837-1.75-1.75-7.4e-5 -0.96635 0.78351-1.7499 1.75-1.75z" fill-rule="evenodd"/>
</svg>
