<?xml version="1.0" encoding="UTF-8"?>
<!-- Created with Inkscape (http://www.inkscape.org/) -->
<svg width="24" height="24" version="1.1" viewBox="0 0 24 24" xmlns="http://www.w3.org/2000/svg">
 <path d="m9.9062 4.4756v0.0039l-6.3047 6.3047c-1.6071 0.12522-2.8745 1.457-2.9004 3.0898h-0.001953v3.2012h2.377c0.31907 1.4018 1.5739 2.4491 3.0723 2.4492 1.4985 9.9e-5 2.7513-1.0473 3.0703-2.4492h6.459c0.31907 1.4018 1.5719 2.4491 3.0703 2.4492 1.4985 9.9e-5 2.7513-1.0473 3.0703-2.4492h2.1797v-3.1484h2e-3v-2e-3c4.2e-5 -1.7396-1.4106-3.1505-3.1504-3.1504h-1.4023c2.61e-4 -3.4382-2.7568-6.2319-6.1797-6.2969v-0.001953h-3.3574zm0.58398 1.4004h2e-3v4.8984h-4.9004zm1.4023 0h1.3379c2.6669 0.0452 4.8166 2.2209 4.8164 4.8984h-6.1543zm-8.0684 6.2988h17.037c0.96113 0.0063 1.7383 0.78752 1.7383 1.75v1.75h-0.78125c-0.31826-1.4028-1.571-2.4512-3.0703-2.4512-1.4992 8.3e-5 -2.752 1.0484-3.0703 2.4512h-6.459c-0.31826-1.4028-1.571-2.4512-3.0703-2.4512-1.4992 8.3e-5 -2.754 1.0484-3.0723 2.4512h-0.97656v-1.75c-4.9e-5 -0.95789 0.76983-1.7364 1.7246-1.75zm2.3242 2.4492c0.96656-4.9e-5 1.75 0.78358 1.75 1.75-4.8e-5 0.96637-0.78351 1.7501-1.75 1.75-0.96642-5.4e-5 -1.75-0.7837-1.75-1.75-7.4e-5 -0.96635 0.78351-1.7499 1.75-1.75zm12.6 0c0.96656-4.9e-5 1.75 0.78358 1.75 1.75-4.8e-5 0.96637-0.78351 1.7501-1.75 1.75-0.96642-5.4e-5 -1.75-0.7837-1.75-1.75-7.4e-5 -0.96635 0.78351-1.7499 1.75-1.75z"/>
</svg>
