<?xml version="1.0" encoding="UTF-8"?>
<!-- Created with Inkscape (http://www.inkscape.org/) -->
<svg width="24" height="24" version="1.1" viewBox="0 0 24 24" xmlns="http://www.w3.org/2000/svg">
 <path d="m3.0625 3.0732v0.0039c-1.6364 0.0449-2.9612 1.3359-3.0566 2.959h-0.0058594v11.037h2.377c0.31839 1.4027 1.5732 2.4511 3.0723 2.4512 1.4992 9.5e-5 2.7519-1.0484 3.0703-2.4512h7.1582c0.31839 1.4027 1.5732 2.4511 3.0723 2.4512 1.4992 9.5e-5 2.7519-1.0484 3.0703-2.4512h2.1797v-4.6328h-2e-3c-0.04101-1.6021-1.2778-2.9057-2.8516-3.0527v-0.01563h0.05273c2.63e-4 -3.4657-2.8009-6.2755-6.2617-6.2969v-2e-3zm0.087891 1.4004h3v4.8984h-4.75v-3.1484c-4.9e-5 -0.96642 0.78344-1.75 1.75-1.75zm4.4004 0h5.5996v4.8984h-5.5996zm7 0h0.38672c2.6877 0.02128 4.8615 2.2058 4.8613 4.8984h-5.248zm-13.15 6.2988h19.449c0.96656-5e-5 1.75 0.78357 1.75 1.75v3.1524h-0.7793c-0.31826-1.4029-1.571-2.4513-3.0703-2.4512-1.4992 8.6e-5 -2.754 1.0484-3.0723 2.4512h-7.1582c-0.31826-1.4028-1.571-2.4512-3.0703-2.4512-1.4992 8.6e-5 -2.754 1.0484-3.0723 2.4512h-0.97656zm4.0488 3.8516c0.96656-5e-5 1.75 0.78358 1.75 1.75-4.8e-5 0.96637-0.78351 1.7501-1.75 1.75-0.96642-5e-5 -1.75-0.7837-1.75-1.75-7.4e-5 -0.96635 0.78351-1.75 1.75-1.75zm13.301 0c0.96656-5e-5 1.75 0.78358 1.75 1.75-4.8e-5 0.96637-0.78351 1.7501-1.75 1.75-0.96642-5e-5 -1.75-0.7837-1.75-1.75-7.4e-5 -0.96635 0.78351-1.75 1.75-1.75z" fill-rule="evenodd"/>
</svg>
