<?xml version="1.0" encoding="UTF-8"?>
<!-- Created with Inkscape (http://www.inkscape.org/) -->
<svg width="24" height="24" version="1.1" viewBox="0 0 24 24" xmlns="http://www.w3.org/2000/svg">
 <path d="m8.3848 4.4756v0.0059c-3.3793 0.11361-6.0862 2.8861-6.0859 6.2929h-2.2988v6.3008h2.377c0.31907 1.4018 1.5739 2.4491 3.0723 2.4492 1.4985 9.9e-5 2.7513-1.0473 3.0703-2.4492h7.1582c0.31907 1.4018 1.5739 2.4491 3.0723 2.4492 1.4985 9.9e-5 2.7513-1.0473 3.0703-2.4492h2.1797v-6.3008h-4.5508c2.61e-4 -3.4376-2.7558-6.2289-6.1777-6.2949v-0.00391zm0.13086 1.4004h3.2324v4.8984h-8.0488c-2.03e-4 -2.6778 2.1492-4.8536 4.8164-4.8984zm4.6328 0h0.08398c2.6669 0.0452 4.8166 2.2209 4.8164 4.8984h-4.9004zm-11.748 6.2988h21.199v3.5h-0.7793c-0.31826-1.4028-1.571-2.4512-3.0703-2.4512-1.4992 8.3e-5 -2.754 1.0484-3.0723 2.4512h-7.1582c-0.31826-1.4028-1.571-2.4512-3.0703-2.4512-1.4992 8.3e-5 -2.754 1.0484-3.0723 2.4512h-0.97656zm4.0488 2.4492c0.96656-4.9e-5 1.75 0.78358 1.75 1.75-4.8e-5 0.96637-0.78351 1.7501-1.75 1.75-0.96642-5.4e-5 -1.75-0.7837-1.75-1.75-7.4e-5 -0.96635 0.78351-1.7499 1.75-1.75zm13.301 0c0.96656-4.9e-5 1.75 0.78358 1.75 1.75-4.8e-5 0.96637-0.78351 1.7501-1.75 1.75-0.96642-5.4e-5 -1.75-0.7837-1.75-1.75-7.4e-5 -0.96635 0.78351-1.7499 1.75-1.75z" fill-rule="evenodd"/>
</svg>
