<?xml version="1.0" encoding="UTF-8"?>
<!-- Created with Inkscape (http://www.inkscape.org/) -->
<svg width="24" height="24" version="1.1" viewBox="0 0 24 24" xmlns="http://www.w3.org/2000/svg">
 <path d="m3.0625 3.1254v2e-3c-1.6698 0.0458-3.0148 1.391-3.0605 3.0605h-0.001953v10.887h2.377c0.31907 1.4018 1.5739 2.4491 3.0723 2.4492 1.4985 9.5e-5 2.7513-1.0474 3.0703-2.4492h7.1582c0.31907 1.4018 1.5739 2.4491 3.0723 2.4492 1.4985 9.5e-5 2.7513-1.0474 3.0703-2.4492h2.1797v-7.651h-4.5508c2.63e-4 -3.4723-2.8113-6.2881-6.2812-6.2988zm10.105 1.3984c2.6968 0.01074 4.8811 2.2012 4.8809 4.9004h-4.9004v-4.8984h0.01953zm-10.018 2e-3h8.5977v4.8984h-10.348v-3.1485c0-0.96642 0.78344-1.75 1.75-1.75zm-1.75 6.2988h21.199v4.8502h-0.7793c-0.31826-1.4029-1.571-2.4513-3.0703-2.4512-1.4992 8.6e-5 -2.754 1.0484-3.0723 2.4512h-7.1582c-0.31826-1.4028-1.571-2.4512-3.0703-2.4512-1.4992 8.6e-5 -2.754 1.0484-3.0723 2.4512h-0.97656zm4.0488 3.7994c0.96656-5e-5 1.75 0.78358 1.75 1.75-4.8e-5 0.96637-0.78351 1.7501-1.75 1.75-0.96642-5e-5 -1.75-0.7837-1.75-1.75-7.4e-5 -0.96635 0.78351-1.75 1.75-1.75zm13.301 0c0.96656-5e-5 1.75 0.78358 1.75 1.75-4.8e-5 0.96637-0.78351 1.7501-1.75 1.75-0.96642-5e-5 -1.75-0.7837-1.75-1.75-7.4e-5 -0.96635 0.78351-1.75 1.75-1.75z" fill-rule="evenodd"/>
</svg>
