<?xml version="1.0" encoding="UTF-8"?>
<!-- Created with Inkscape (http://www.inkscape.org/) -->
<svg width="24" height="24" version="1.1" viewBox="0 0 24 24" xmlns="http://www.w3.org/2000/svg">
 <path d="m0 0.32524v16.75h2.377c0.31907 1.4018 1.5739 2.4491 3.0723 2.4492 1.4985 9.5e-5 2.7513-1.0474 3.0703-2.4492h7.5098c0.31907 1.4018 1.5719 2.4491 3.0703 2.4492 1.4985 9.5e-5 2.7513-1.0474 3.0703-2.4492h1.8301v-7.7012h-2.0996c2.64e-4 -3.4788-2.8219-6.2986-6.3008-6.2988v-2.75zm1.4004 1.4004h12.799v13.949h-5.6797c-0.31826-1.4028-1.571-2.4512-3.0703-2.4512-1.4992 8.6e-5 -2.754 1.0484-3.0723 2.4512h-0.97656zm14.199 2.748c2.7058 1.49e-4 4.9006 2.1946 4.9004 4.9004h-4.9004zm0 6.3008h7v4.9004h-0.42969c-0.31826-1.4028-1.571-2.4512-3.0703-2.4512-1.4992 8.6e-5 -2.752 1.0484-3.0703 2.4512h-0.42969zm-10.15 3.8496c0.96656-5e-5 1.75 0.78358 1.75 1.75-4.8e-5 0.96637-0.78351 1.7501-1.75 1.75-0.96642-5e-5 -1.75-0.7837-1.75-1.75-7.4e-5 -0.96635 0.78351-1.75 1.75-1.75zm13.65 0c0.96656-5e-5 1.75 0.78358 1.75 1.75-4.8e-5 0.96637-0.78351 1.7501-1.75 1.75-0.96642-5e-5 -1.75-0.7837-1.75-1.75-7.4e-5 -0.96635 0.78351-1.75 1.75-1.75z" fill-rule="evenodd"/>
</svg>
