<?xml version="1.0" encoding="UTF-8"?>
<!-- Created with Inkscape (http://www.inkscape.org/) -->
<svg width="24" height="24" version="1.1" viewBox="0 0 24 24" xmlns="http://www.w3.org/2000/svg">
 <path d="m0 4.4756v12.6h2.377c0.31907 1.4018 1.5739 2.4491 3.0723 2.4492 1.4985 9.5e-5 2.7513-1.0474 3.0703-2.4492h7.1582c0.31907 1.4018 1.5739 2.4491 3.0723 2.4492 1.4985 9.5e-5 2.7513-1.0474 3.0703-2.4492h2.1797v-6.3008h-4.5508c2.63e-4 -3.4723-2.8113-6.2881-6.2812-6.2988zm13.168 1.3984c2.6968 0.010739 4.8811 2.2012 4.8809 4.9004h-4.9004v-4.8984h0.01953zm-11.768 0.00195h10.348v9.7988h-3.2285c-0.31826-1.4028-1.571-2.4512-3.0703-2.4512-1.4992 8.6e-5 -2.754 1.0484-3.0723 2.4512h-0.97656zm11.748 6.2988h9.4512v3.5h-0.7793c-0.31826-1.4028-1.571-2.4512-3.0703-2.4512-1.4992 8.6e-5 -2.754 1.0484-3.0723 2.4512h-2.5293zm-7.6992 2.4492c0.96656-5e-5 1.75 0.78358 1.75 1.75-4.8e-5 0.96637-0.78351 1.7501-1.75 1.75-0.96642-5e-5 -1.75-0.7837-1.75-1.75-7.4e-5 -0.96635 0.78351-1.75 1.75-1.75zm13.301 0c0.96656-5e-5 1.75 0.78358 1.75 1.75-4.8e-5 0.96637-0.78351 1.7501-1.75 1.75-0.96642-5e-5 -1.75-0.7837-1.75-1.75-7.4e-5 -0.96635 0.78351-1.75 1.75-1.75z" fill-rule="evenodd"/>
</svg>
