<svg viewBox="0 0 24 24" fill="none" xmlns="http://www.w3.org/2000/svg"><path d="M13.924 13.999c0 .045.014.072.04.072a.123.123 0 0 0 .058-.024l7.48-4.855a.72.72 0 0 1 .432-.13h1.644c.252 0 .422.168.422.42v3.14c0 .378-.084.6-.42.8l-1.994 1.2a.138.138 0 0 1-.067.025c-.024 0-.048-.02-.048-.09v-3.661c0-.043-.012-.072-.041-.072a.112.112 0 0 0-.058.024l-5.466 3.551a.734.734 0 0 1-.42.128h-3.624c-.254 0-.422-.168-.422-.423V9.581c0-.034-.015-.065-.044-.065a.118.118 0 0 0-.057.024l-3.607 2.165c-.036.024-.046.04-.046.057 0 .014.008.029.032.055l2.577 2.575c.034.034.057.06.057.089 0 .024-.038.043-.084.043H7.941c-.183 0-.324-.026-.423-.125l-1.562-1.56a.067.067 0 0 0-.048-.023.103.103 0 0 0-.048.014L3.25 14.4a.72.72 0 0 1-.423.122H.425c-.257.002-.425-.168-.425-.42v-3.079c0-.382.084-.6.422-.801L2.43 9.017A.103.103 0 0 1 2.48 9c.032 0 .048.031.048.1v4.124c0 .043.01.062.041.062a.144.144 0 0 0 .06-.024l6.777-4.077a.734.734 0 0 1 .446-.125h3.648c.252 0 .423.168.423.42l-.003 4.519h.003Z" fill="#000E23"></path></svg>