<svg xmlns="http://www.w3.org/2000/svg" viewBox="0 0 24 24" fill="currentColor">
  <path d="M8.232 4.337C7.798 3.889 7.093 3.889 6.659 4.337L3.326 7.774C2.891 8.222 2.891 8.949 3.326 9.396C3.76 9.844 4.464 9.844 4.898 9.396L6.336 7.914V18.896C6.336 19.53 6.832 20.042 7.447 20.042C8.062 20.042 8.558 19.53 8.558 18.896V7.914L10 9.396C10.43 9.844 11.135 9.844 11.569 9.396C12.003 8.949 12.003 8.222 11.569 7.774L8.235 4.337H8.232ZM20.454 16.271C20.888 15.824 20.888 15.097 20.454 14.649C20.02 14.202 19.315 14.202 18.881 14.649L17.447 16.128V5.146C17.447 4.512 16.951 4 16.336 4C15.721 4 15.225 4.512 15.225 5.146V16.128L13.787 14.646C13.353 14.198 12.648 14.198 12.214 14.646C11.78 15.093 11.78 15.82 12.214 16.268L15.548 19.705C15.982 20.153 16.687 20.153 17.121 19.705L20.454 16.268V16.271Z" />
</svg>
