<?xml version="1.0" encoding="UTF-8"?>
<!-- Created with Inkscape (http://www.inkscape.org/) -->
<svg width="24" height="24" version="1.1" viewBox="0 0 24 24" xml:space="preserve" xmlns="http://www.w3.org/2000/svg"><path d="m7.0039 2.6094-3.5508 3.5488h-2.9199v1.4004h3.5l3.5508-3.5488h6.0371l3.5449 3.5449v0.00391h4.2012v-2.0996h2.0996v-1.4004h-3.5v2.0996h-2.2168l-3.5469-3.5488h-2e-3zm2.9219 2.6953v10.621l-1.7754-1.7754-0.99023 0.99023 3.4648 3.4648 3.4648-3.4648-0.99024-0.99023-1.7754 1.7754v-10.621zm-9.3926 11.137v1.4004h2.9199l3.5508 3.5488h7.1992v-2e-3l3.5469-3.5468h2.2168v2.0996h3.5v-1.4004h-2.0996v-2.0996h-4.2012v0.0039l-3.5449 3.5449h-6.0371l-3.5508-3.5488z" fill="#1e1e1e" fill-rule="evenodd"/></svg>
