<?xml version="1.0" encoding="UTF-8"?>
<!-- Created with Inkscape (http://www.inkscape.org/) -->
<svg width="24" height="24" version="1.1" viewBox="0 0 24 24" xml:space="preserve" xmlns="http://www.w3.org/2000/svg"><path d="m12 1a11 11 0 0 0-11 11 11 11 0 0 0 11 11 11 11 0 0 0 11-11 11 11 0 0 0-11-11zm-0.69922 1.4551v2.123h1.3984v-2.123a9.6 9.6 0 0 1 3.4746 0.91602l-1.0684 1.8516 1.2109 0.69922 1.0664-1.8457a9.6 9.6 0 0 1 2.541 2.541l-1.8457 1.0664 0.69922 1.2109 1.8516-1.0684a9.6 9.6 0 0 1 0.91602 3.4746h-2.123v1.3984h2.123a9.6 9.6 0 0 1-0.91602 3.4746l-1.8516-1.0684-0.69922 1.2109 1.8457 1.0664a9.6 9.6 0 0 1-7.9238 4.2168 9.6 9.6 0 0 1-7.9238-4.2168l1.8457-1.0664-0.69922-1.2109-1.8516 1.0684a9.6 9.6 0 0 1-0.91602-3.4746h2.123v-1.3984h-2.123a9.6 9.6 0 0 1 0.91602-3.4746l1.8516 1.0684 0.69922-1.2109-1.8457-1.0664a9.6 9.6 0 0 1 2.541-2.541l1.0664 1.8457 1.2109-0.69922-1.0684-1.8516a9.6 9.6 0 0 1 3.4746-0.91602zm0.69922 7.4453a2.1 2.1 0 0 0-2.0996 2.0996 2.1 2.1 0 0 0 2.0996 2.0996 2.1 2.1 0 0 0 1.7266-0.91211l5.2617 1.4102 0.36133-1.3535-5.2617-1.4102a2.1 2.1 0 0 0-2.0879-1.9336zm0 1.4004a0.7 0.7 0 0 1 0.69922 0.69922 0.7 0.7 0 0 1-0.69922 0.69922 0.7 0.7 0 0 1-0.69922-0.69922 0.7 0.7 0 0 1 0.69922-0.69922z"/></svg>
