<?xml version="1.0" encoding="UTF-8" standalone="no"?>
<!-- Created with Inkscape (http://www.inkscape.org/) -->

<svg
   width="24"
   height="24"
   version="1.1"
   viewBox="0 0 24 24"
   xml:space="preserve"
   id="svg1"
   sodipodi:docname="price-asc.svg"
   inkscape:version="1.3.2 (091e20e, 2023-11-25, custom)"
   xmlns:inkscape="http://www.inkscape.org/namespaces/inkscape"
   xmlns:sodipodi="http://sodipodi.sourceforge.net/DTD/sodipodi-0.dtd"
   xmlns="http://www.w3.org/2000/svg"
   xmlns:svg="http://www.w3.org/2000/svg"><defs
     id="defs1" /><sodipodi:namedview
     id="namedview1"
     pagecolor="#ffffff"
     bordercolor="#000000"
     borderopacity="0.25"
     inkscape:showpageshadow="2"
     inkscape:pageopacity="0.0"
     inkscape:pagecheckerboard="0"
     inkscape:deskcolor="#d1d1d1"
     inkscape:zoom="8.5625"
     inkscape:cx="-7.9416058"
     inkscape:cy="-0.35036496"
     inkscape:window-width="1920"
     inkscape:window-height="1018"
     inkscape:window-x="-6"
     inkscape:window-y="-6"
     inkscape:window-maximized="1"
     inkscape:current-layer="svg1" /><path
     d="M 7.0998,3.95 6.40058,4.64922 h -0.002 v 0.002 l -2.7636,2.7636 0.99024,0.99023 1.7734,-1.7734 v 13.418 h 1.4004 v -13.42 l 1.7754,1.7754 0.99024,-0.99023 -2.7656,-2.7656 z m 5.0098,0 v 1.4004 h 8.7988 V 3.95 Z m 0,2.8008 V 8.1492 H 19.109 V 6.7508 Z M 17.01,9.5496 c -1.932997,0 -3.5,1.567003 -3.5,3.5 H 12.1096 V 14.45 H 13.51 v 0.69922 h -1.4004 v 1.4004 H 13.51 c 0,1.932997 1.567003,3.5 3.5,3.5 1.932997,0 3.5,-1.567003 3.5,-3.5 h -1.4004 c 8.84e-4,1.160267 -0.939333,2.101379 -2.0996,2.1016 -1.161048,8.85e-4 -2.102485,-0.940552 -2.1016,-2.1016 H 17.01 v -1.4004 H 14.9103 V 14.45 h 2.0996 v -1.4004 h -2.0996 c -8.84e-4,-1.160267 0.939333,-2.101379 2.0996,-2.1016 1.161048,-8.85e-4 2.102485,0.940552 2.1016,2.1016 h 1.3984 c 0,-1.932997 -1.567003,-3.5 -3.5,-3.5 z"
     fill="#1e1e1e"
     fill-rule="evenodd"
     id="path1"
     sodipodi:nodetypes="cccccccccccccccccccccccccccccccccscccccccccccccccc" /></svg>
