<?xml version="1.0" encoding="UTF-8"?>
<!-- Created with Inkscape (http://www.inkscape.org/) -->
<svg width="24" height="24" version="1.1" viewBox="0 0 24 24" xml:space="preserve" xmlns="http://www.w3.org/2000/svg"><path d="m6.4004 3.9492v13.422l-1.7754-1.7754-0.99023 0.99024 3.4648 3.4648 3.4648-3.4648-0.99023-0.99024-1.7734 1.7734v-13.42h-1.4004zm10.465 0c-1.933 0-3.5 1.567-3.5 3.5h-1.4004v1.4004h1.4004v0.70117h-1.4004v1.3984h1.4004c0 1.933 1.567 3.5 3.5 3.5s3.5-1.567 3.5-3.5h-1.4004c8.84e-4 1.1603-0.93933 2.1014-2.0996 2.1016-1.161 8.85e-4 -2.1025-0.94055-2.1016-2.1016h2.1016v-1.3984h-2.0996v-0.70117h2.0996v-1.4004h-2.0996c-8.84e-4 -1.1603 0.93933-2.1014 2.0996-2.1016 1.161-8.849e-4 2.1025 0.94055 2.1016 2.1016h1.3984c0-1.933-1.567-3.5-3.5-3.5zm-4.9004 11.9v1.4004h4.2v-1.4004zm0 2.8008v1.4004h2.7988v-1.4004z" fill="#1e1e1e" fill-rule="evenodd"/></svg>
