<?xml version="1.0" encoding="UTF-8"?>
<!-- Created with Inkscape (http://www.inkscape.org/) -->
<svg width="24" height="24" version="1.1" viewBox="0 0 24 24" xml:space="preserve" xmlns="http://www.w3.org/2000/svg"><path d="m5.6992 0.80078v1.4004h-3.5v19.6h19.602v-19.6h-3.5v-1.4004h-1.4004v1.4004h-9.8008v-1.4004h-1.4004zm-2.0996 2.8008h2.0996v1.3984h1.4004v-1.3984h9.8008v1.3984h1.4004v-1.3984h2.0996v4.1992h-16.801v-4.1992zm0 5.5977h16.801v11.203h-16.801v-11.203zm2.0996 2.1016v1.3984h1.4004v-1.3984h-1.4004zm2.8008 0v1.3984h1.4004v-1.3984h-1.4004zm2.8008 0v1.3984h1.3984v-1.3984h-1.3984zm2.7988 0v1.3984h1.4004v-1.3984h-1.4004zm2.8008 0v1.3984h1.4004v-1.3984h-1.4004zm-11.201 2.7988v1.4004h1.4004v-1.4004h-1.4004zm2.8008 0v1.4004h1.4004v-1.4004h-1.4004zm2.8008 0v1.4004h1.3984v-1.4004h-1.3984zm2.7988 0v1.4004h1.4004v-1.4004h-1.4004zm2.8008 0v1.4004h1.4004v-1.4004h-1.4004zm-11.201 2.8008v1.4004h1.4004v-1.4004h-1.4004zm2.8008 0v1.4004h1.4004v-1.4004h-1.4004zm2.8008 0v1.4004h1.3984v-1.4004h-1.3984zm2.7988 0v1.4004h1.4004v-1.4004h-1.4004zm2.8008 0v1.4004h1.4004v-1.4004h-1.4004z" fill-rule="evenodd"/></svg>
