<?xml version="1.0" encoding="UTF-8"?>
<svg id="Layer_1" data-name="Layer 1" xmlns="http://www.w3.org/2000/svg" version="1.1" viewBox="0 0 222 222">
  <defs>
    <style>
      .cls-1 {
        fill: #000;
        stroke-width: 0px;
      }
    </style>
  </defs>
  <path class="cls-1" d="M107.5,138.8c-14,0-28,0-42,0-1.2,0-2.4,0-3.6,0-1.8,0-2.1-.7-1.8-2.5,1.6-7.9.6-15.3-5.3-21.4-6.1-6.3-15.7-8.1-23.6-4.5-8.2,3.7-13.1,12-12.4,21,0,.7.1,1.4.2,2,.2,1.7-.4,2.6-2.2,2.6-1.4,0-2.7.1-4.1,0-5.2-.2-6.7-1.6-7.1-6.8-.2-1.8-.3-3.6-.3-5.5,0-1.9.2-3.6,1.7-5.2,1.1-1.3,1.6-3.2,2.2-5,1.8-5.2,5.5-8,10.8-9,11.3-2.2,22.6-4.4,34-6.6,1.4-.3,2.9-.4,4.3-.5,5-.3,9.4-2.2,13.7-4.5,6.4-3.4,13-6.6,19.6-9.8,11.2-5.4,23.2-6.9,35.5-6.9,6.1,0,12.2,0,18.2.2,2.6.1,5.3.7,7.7,1.8,6.8,3.3,13.7,6.6,20.2,10.6,5.5,3.4,11.3,5,17.4,6.2,6.1,1.2,12.1,2.7,18.2,4.2,3,.8,4.7,2.8,4.9,6.1.2,3.9.5,7.9,1,11.8.2,1.2,1,2.4,1.5,3.6.2.4.7.8.7,1.1-.3,3.6-.6,7.2-1.3,10.7-.2.9-1.9,1.9-3,2.1-4.3.7-8.6,1.1-12.9,1.5-1.9.2-2.3-1.1-2.3-2.7,0-4,0-8-1.6-11.9-3.6-9.2-13.2-14.6-23.2-12.9-9.4,1.6-16.8,9.9-17.2,19.5,0,2.3,0,4.6.2,6.8.2,3.1,0,3.3-3.1,3.5-1.3,0-2.6,0-3.9,0-13.7,0-27.4,0-41,0h0ZM86.4,102.1c1.6,0,2.7,0,3.7,0,8.4-.3,16.9-.7,25.3-1,3.3-.1,6.7-.4,10-.6,1.5,0,2.8-.6,3.1-2.2.9-5.1,1.7-10.2,2.6-15.3.3-1.8-.6-2.5-2.3-2.4-2.3,0-4.6.2-6.8.2-14.6-.3-27.6,4.5-39.5,12.5-.7.5-1.3,1.1-2.4,2,3.8,1,9.4-.3,6.5,6.7ZM141.5,100.4c0,0,0-.1,0-.2,5-.2,10-.3,15-.8,1.5-.1,3.8-1,4.3-2.1.5-1.2-.8-3.1-1.4-4.6-.2-.4-.6-.7-.9-1-4.7-3.4-9.4-6.9-14.3-10-1.4-.9-3.6-1-5.4-.9-.9,0-2.2,1.3-2.4,2.1-.9,5.1-1.5,10.2-2.1,15.3-.2,1.6.6,2.2,2.1,2.1,1.7,0,3.5,0,5.2,0Z"/>
  <path class="cls-1" d="M39.6,145.6c-8.4,0-15.6-7.6-15.5-16.2,0-8.7,7.1-15.7,15.9-15.6,8.8,0,15.8,7.2,15.6,15.9-.1,8.7-7.5,16-16,15.9Z"/>
  <path class="cls-1" d="M176.3,145.6c-8.6,0-15.7-7.3-15.7-16.1,0-8.8,7-15.7,15.8-15.7,8.8,0,15.7,7,15.6,15.9,0,8.5-7.3,15.9-15.7,15.9Z"/>
</svg>