<svg viewBox="0 0 24 24" fill="none" xmlns="http://www.w3.org/2000/svg"><path fill-rule="evenodd" clip-rule="evenodd" d="M2 12.004C2 5.382 6.343 0 11.668 0c5.333 0 9.669 5.39 9.669 12.004S16.994 24 11.668 24C6.343 24 2 18.625 2 12.004Zm1.78 4.115.007.028 7.874-5.852 7.86 5.838.029.014.007-.028c.327-.99.42-1.866.42-1.873v-.007l-8.309-6.151-8.301 6.144-.007.007v.007c0 .007.092.883.42 1.873Zm.925 2.143C6.3 21.145 8.9 22.86 11.668 22.86c2.777 0 5.369-1.716 6.992-4.6l.014-.035-6.991-5.169-6.992 5.169.014.036Zm-1.559-6.65 8.522-6.322 8.501 6.294.036.028v-.043c-.086-2.812-1.011-5.432-2.606-7.39-1.602-1.965-3.71-3.047-5.924-3.047-2.214 0-4.328 1.082-5.923 3.047-1.595 1.958-2.52 4.578-2.606 7.39v.043Z" fill="#000E23"></path></svg>