<svg viewBox="0 0 24 24" fill="none" xmlns="http://www.w3.org/2000/svg"><path d="M11.036 10.444c-.116.132-.193.124-.193.124a.5.5 0 0 1 0-.302c.03-.116.1-.17.217-.193.054-.008.077.046.085.092.015.093-.062.233-.109.28ZM15.65 12.193c.278-.34.618-.572.89-.541.332.038.363.363.2.665l.086.023s-.264.441-.534.713c-.48.487-.79.324-.86.27-.07-.054-.123-.247-.092-.44.023-.194.17-.52.31-.69Z" fill="#000E23"></path><path fill-rule="evenodd" clip-rule="evenodd" d="M23.18 11.543c0 2.074-5.008 3.754-11.176 3.754-6.176 0-11.168-1.68-11.168-3.754 0-2.066 4.992-3.746 11.168-3.746 6.168 0 11.175 1.68 11.175 3.746Zm-9.388-1.865c.735 0 1.602-.472 1.602-.72 0-.062 0-.124-.155-.124a.506.506 0 0 0-.163.018 3.912 3.912 0 0 1-.34.067c-.337.052-.74.05-1.09.048l-.195-.001c-1.052-.016-2.345-.232-2.863-.325a7.203 7.203 0 0 0-1.223-.109c-1.927 0-2.709.774-2.717 1.54-.007.41.294.829.743.829.805 0 1.27-.836 1.308-1.138 0 0 .016-.054-.03-.093-.024-.015-.086-.008-.109.047-.108.255-.542.55-.851.603-.287.055-.48-.1-.496-.34-.03-.588.635-1.23 2.129-1.23.425 0 .967.115 1.563.255l.015.003c-.239.053-1.085.705-1.749 1.723l-.061.007c-.247.029-.882.103-1.107.356a.275.275 0 0 0-.047.101c.016.062.062.093.132.039.155-.178.782-.248.929-.256-.914 1.285-1.757 2.129-2.508 2.129h-.046c-.063.002-.126.003-.194-.016-.302-.07-.48-.387-.48-.673 0-.38.364-.79.573-.867.07-.03.1-.07.1-.1 0-.047-.03-.078-.116-.078-.72.178-1.106.766-1.099 1.246.016.79.612 1.23 1.285 1.23.945 0 1.424-.41 2.964-2.902.612-.062.914-.1 1.223-.154 0 0 .093.224.325.224.028.006.032-.013.04-.056l.014-.06c-.1-.008-.216-.078-.216-.163.093-.046.17-.1.24-.154.1-.093.201-.287.201-.418a.272.272 0 0 0-.232-.263c-.248-.04-.441.162-.464.495 0 .085.03.186.03.186s-.541.092-1.006.116c.49-.829.947-1.197 1.165-1.374l.09-.074a.828.828 0 0 0 .115-.123.086.086 0 0 0-.02-.1c.141.038.314.096.51.161.615.206 1.46.488 2.28.488Zm1.442 2.308c-.095.1-.195.205-.304.308a3.12 3.12 0 0 0-.02.018h-.001c-.151.137-.339.307-.746.307-.248 0-.441-.201-.395-.457.031-.201.101-.302.248-.356.07.201.201.31.426.31.255-.008.402-.24.41-.441 0-.17-.108-.387-.418-.403-.286-.015-.503.116-.813.472 0 0 .078-.526-.503-.51-.062 0-.124 0-.185.03-.305.097-.695.57-1.013.958l-.003.003-.037.046c.015-.078.015-.155.015-.233 0-.224-.085-.518-.24-.673-.03-.031-.061-.031-.092-.031-.101 0-.186.085-.186.217.077.077.178.27.178.456s-.054.527-.132.658c-.294.503-.665.828-1.114.759-.24-.054-.403-.287-.356-.635.023-.201.147-.48.263-.65.194-.263.51-.534.975-.604 0 0 .023-.092-.039-.139-.023-.039-.054-.085-.162-.085-.658.023-1.06.495-1.293.96l-.052.1v.001h-.001c-.078.148-.17.322-.225.44 0 0-.062.17-.348.388l-.03.023c-.124.098-.166.13-.187.123a.35.35 0 0 0 .116.194c.02.013.077-.018.113-.037l.01-.005.002-.001h.001l.001-.001h.001l.001-.001H9.1l.001-.001c.364-.21.403-.31.403-.31.077.434.449.658.86.658.564 0 1.082-.51 1.384-.96.318-.472.751-.936.751-.936.17-.163.348-.271.457-.271.1.007.17.093.147.186a1.87 1.87 0 0 1-.201.51l-.844 1.432h.658c.292-.55.368-.689.559-1.036l.002-.005.205-.375c.1.38.302.526.627.534.279.008.472-.008.681-.116a.895.895 0 0 0 .047.58.63.63 0 0 0 .611.41c.457 0 .905-.2 1.037-.317.039.225.147.34.434.34.58-.015 1.09-.61 1.4-.998.054-.07.124-.186.124-.216 0-.047-.062-.078-.093-.078-.03 0-.083.067-.114.106l-.002.002c-.147.155-.758.79-1.091.805.07 0-.116.039-.132-.108-.006-.076.044-.167.08-.231l.02-.04 1.657-2.933h-.611l-.999 1.687a2.173 2.173 0 0 1-.025-.054c-.08-.172-.215-.465-.625-.472-.6-.006-.91.317-1.274.698Z" fill="#000E23"></path><path fill-rule="evenodd" clip-rule="evenodd" d="M12.004 16.078c6.625 0 11.996-2.027 11.996-4.535C24 9.036 18.629 7 12.004 7 5.37 7 0 9.036 0 11.543c0 2.508 5.371 4.535 12.004 4.535Zm0-.464c-6.362 0-11.532-1.811-11.532-4.07 0-2.253 5.17-4.087 11.532-4.087 6.377 0 11.54 1.834 11.54 4.086 0 2.26-5.163 4.071-11.54 4.071Z" fill="#000E23"></path></svg>