<svg viewBox="0 0 24 24" fill="none" xmlns="http://www.w3.org/2000/svg"><path fill-rule="evenodd" clip-rule="evenodd" d="M3.889 11.846v.317c0 4.472 3.638 8.128 8.11 8.128a8.11 8.11 0 0 0 7.812-5.909l-13.018.15 3.137-2.42-6.041-.266Zm.3-1.853A8.1 8.1 0 0 1 12 4.051c4.473 0 8.111 3.639 8.111 8.112v.4l-6.041-.267 3.22-2.453-13.1.15Zm-1.352 1.803L0 11.678v-1.653l3.088-.033C4.072 5.987 7.694 3 12 3c5.057 0 9.163 4.106 9.163 9.163 0 .15 0 .283-.017.434l2.854.116v1.636l-3.087.034c-1.002 3.988-4.607 6.96-8.913 6.96a9.174 9.174 0 0 1-9.18-9.18c0-.117 0-.234.017-.367Z" fill="#000E23"></path></svg>