<svg viewBox="0 0 24 24" fill="none" xmlns="http://www.w3.org/2000/svg"><path d="M11.412 2.52c.455-.003.91-.001 1.364.005v.232a68.888 68.888 0 0 0-1.458-.004c-.066 0-.132.058-.132.124v.72a.14.14 0 0 0 .132.131c.436-.003.872-.003 1.308.002v-.389a61.555 61.555 0 0 0-.759-.004v-.232c.336 0 .671.003 1.007.007v.853a67.287 67.287 0 0 0-1.415-.006c-.345.003-.52-.057-.52-.393V2.94c0-.313.156-.417.473-.419ZM10.318 3.578V2.537l-.254.006v1.085c0 .066-.05.124-.125.126a67.03 67.03 0 0 0-1.192.045c-.075.004-.131-.05-.131-.116V2.598l-.247.013v1.04c0 .327.197.388.52.374.303-.014.606-.025.909-.035.348-.01.52-.083.52-.412ZM13.493 2.538c.61.015 1.22.038 1.83.07v.231a67.323 67.323 0 0 0-1.582-.062v.354c.469.013.938.03 1.407.054v.232c-.469-.023-.938-.041-1.407-.054v.389a65.78 65.78 0 0 1 1.582.062v.232c-.61-.03-1.22-.054-1.83-.069V2.538ZM7.748 2.646v.232c-.527.032-1.054.071-1.58.116v.354c.468-.04.936-.075 1.405-.105v.232c-.469.03-.937.065-1.405.105v.39a66.003 66.003 0 0 1 1.58-.117v.232c-.61.038-1.219.084-1.827.138v-1.44c.608-.054 1.217-.1 1.827-.137ZM20.31 3.05a67.712 67.712 0 0 0-1.92-.215v.232c.279.027.558.056.837.087v1.207l.252.029V3.182c.277.032.554.065.83.1V3.05Z" fill="#000E23"></path><path fill-rule="evenodd" clip-rule="evenodd" d="M5.358 3.422V3.26c0-.294-.163-.407-.453-.377-.487.05-.972.107-1.458.168v1.44l.253-.032v-.445c.401-.05.803-.095 1.205-.137.29-.03.453-.152.453-.454Zm-.378-.316h.007c.063-.003.124.045.124.109v.292c0 .062-.066.122-.131.13-.427.043-.854.091-1.28.143v-.53c.426-.052.853-.1 1.28-.144ZM17.412 2.747c-.316-.026-.632-.05-.948-.072-.36-.024-.52.042-.52.365v.643c0 .342.175.409.52.432.316.021.632.045.948.071.34.029.519-.03.519-.353V3.19c0-.33-.206-.417-.52-.443Zm-1.221.986V3.02c0-.075.056-.128.132-.123.41.027.82.058 1.23.093a.15.15 0 0 1 .13.143v.712a.127.127 0 0 1-.13.12c-.41-.035-.82-.066-1.23-.093a.146.146 0 0 1-.132-.14Z" fill="#000E23"></path><path d="M9.914 5.59a27.79 27.79 0 0 1 4.288-.017c.086.006.17.027.25.06.499.21 1.382.67 2.365 1.233a.742.742 0 0 1 .122.087c.26.23.92.906.92.906l-.206-.041a.217.217 0 0 1-.08-.033 15.72 15.72 0 0 0-1.533-.902.563.563 0 0 0-.193-.057c-.248-.026-.583-.05-.802-.059a.62.62 0 0 1-.287-.076 13.685 13.685 0 0 0-.935-.418.58.58 0 0 0-.26-.048 53.24 53.24 0 0 0-1.86.067.232.232 0 0 1-.049-.002l-.232-.036c.659-.114 2.286-.26 2.96-.295l-.274-.092a.564.564 0 0 0-.165-.028 40.88 40.88 0 0 0-.893-.01h-.144c-.64 0-1.462.016-2.22.074a.58.58 0 0 0-.193.047c-.306.135-1.054.541-1.803.958l-.167.093-.567.318.111-.144a.13.13 0 0 1 .043-.038l.236-.156.077-.051.15-.1.036-.027.008-.007c.226-.17.582-.47.794-.657a.63.63 0 0 0 .122-.145c.07-.111.144-.232.19-.299a.253.253 0 0 1 .19-.106ZM7.83 8.49a.052.052 0 0 1 .053.03.265.265 0 0 1-.007.21.114.114 0 0 1-.073.059l-.233.052a.022.022 0 0 1-.026-.023l.022-.274a.038.038 0 0 1 .034-.035l.23-.02Z" fill="#000E23"></path><path d="M10.514 6.78a.035.035 0 0 0-.03-.052l-.486.006a.481.481 0 0 0-.136.023c-.422.14-1.025.41-1.364.588a.344.344 0 0 0-.101.086l-.513.633a.161.161 0 0 1-.064.048l-.332.141a.07.07 0 0 0-.036.035l-.015.034s.702-.023.938-.04c.13-.01.234-.03.357-.068l1.066-.334a.251.251 0 0 0 .148-.12l.568-.98ZM16.062 7.389a.386.386 0 0 0-.284-.007c-.336.123-.873.35-1.43.612h.012l.173.015.064.005.114.012c.06.007.083.005.14-.01.172-.047.476-.122.715-.177a.409.409 0 0 1 .334.071c.328.245.855.67 1.192.954.059.05.125.089.196.117.514.207.74.31.855.369.08.042.139.116.161.204.134.516.223 1.308.27 1.88a.749.749 0 0 1-.041.31c-.145.41-.504 1.092-.705 1.417a.339.339 0 0 1-.072.082 8.735 8.735 0 0 1-.289.235.073.073 0 0 0-.029.057 9.65 9.65 0 0 1-.044.64v.01c.493-.62.962-1.423 1.378-2.277a.462.462 0 0 0 .055-.175c.097-.915.038-2.002-.116-2.706-.017-.076-.042-.109-.105-.156-.658-.49-1.84-1.186-2.544-1.482ZM8.34 11.999a7.34 7.34 0 0 1-.54.783.19.19 0 0 1-.079.056c-.172.065-.459.162-.67.226L8.34 12ZM5.934 12.333l.103-.711c-.203.03-.39.161-.453.3l.35.41Z" fill="#000E23"></path><path d="m7.921 7.596-.096.118a.77.77 0 0 0-.015.015c-.085.062-.439.334-.534.41a.107.107 0 0 0-.045.075c-.021.12-.057.348-.068.475-.003.037-.019.055-.056.07-.089.036-.186.073-.281.11-.082.03-.163.062-.236.09a.207.207 0 0 0-.063.035c-.016.012-.225.199-.225.199s.455-.112.622-.15a.117.117 0 0 1 .094.01c.034.017.091.04.122.05a.18.18 0 0 0 .122.006c.188-.042.504-.117.672-.161a.562.562 0 0 0 .21-.099c.08-.056.284-.21.284-.21l-.006.043a.057.057 0 0 1-.016.03 3.845 3.845 0 0 1-.15.169.586.586 0 0 1-.236.16c-.478.2-1.295.509-1.907.721a.188.188 0 0 0-.087.057c-.033.032-.076.08-.076.08s.5.037.652.054a.21.21 0 0 1 .123.055c.125.108.54.536.664.684 0 0-1.18.197-1.726.333a.151.151 0 0 0-.117.114c-.045.159-.151.67-.151.67s-.038-.012-.091-.042a.37.37 0 0 1-.095-.08 5.463 5.463 0 0 1-.444-.551c-.03-.045-.043-.102-.005-.148.11-.137.333-.386.456-.514a.315.315 0 0 0 .047-.073 2.54 2.54 0 0 0 .115-.366l.006-.024v-.003l-.002.002-.123.077c-.032.02-.04.03-.054.057a2.535 2.535 0 0 1-.081.153.226.226 0 0 1-.044.048c-.157.12-.33.25-.454.336-.008.006-.019.003-.026-.004a1.596 1.596 0 0 1-.093-.108.078.078 0 0 1-.015-.046c0-.032.003-.086.006-.127.004-.049.018-.072.077-.133.066-.068.137-.14.213-.214.185-.156.651-.535 1.485-1.13a.184.184 0 0 0 .041-.04c.088-.12.336-.442.398-.519a.18.18 0 0 1 .03-.03c.097-.077.146-.11.245-.174.233-.146.682-.413.934-.56ZM13.104 7.346A.17.17 0 0 0 13 7.332c-.588.103-1.206.226-1.673.333a.14.14 0 0 0-.09.066l-.146.253a.032.032 0 0 0-.004.014c0 .006 0 .01.003.016a.032.032 0 0 0 .023.018c.122.023.372.068.458.08.053.009.07.007.114-.01.296-.124.78-.312 1.14-.443.028-.01.06-.01.088-.002l.165.053a.1.1 0 0 1 .057.047c.046.08.093.167.121.225.02.041.009.096-.025.146-.123.177-.332.456-.475.63a.152.152 0 0 0-.029.139c.085.291.268.891.366 1.178.011.035.03.062.057.087l.138.126s-.22-1.015-.272-1.306a.173.173 0 0 1 .021-.129c.116-.17.323-.485.423-.66a.284.284 0 0 0 .035-.19 8.68 8.68 0 0 0-.101-.481.09.09 0 0 0-.048-.06l-.243-.116ZM10.475 10.555c-.078-.285-.159-.547-.159-.547l-.021.273a.224.224 0 0 0 .002.056c.02.119.097.587.094.827a.353.353 0 0 1-.05.201c-.195.386-.719 1.143-1.287 1.9l-.132.174c-.376.493-.76.974-1.077 1.338a.572.572 0 0 0-.146.303c-.043.204-.092.668-.124 1.037-.017.199-.004.267.122.476.504.84 2.22 2.85 2.78 3.316.036.031.076.058.118.08.102.056.297.154.46.236l.107.054.11.055.036.018.022.01-.083-.145a.082.082 0 0 0-.023-.025l-.3-.196a.935.935 0 0 1-.132-.1c-.478-.435-2.156-2.5-2.659-3.399-.084-.15-.109-.221-.1-.373.009-.173.043-.507.077-.703a.448.448 0 0 1 .152-.297c.285-.26.746-.723.986-.969.106-.107.159-.175.215-.28.113-.214.347-.707.579-1.218l.081-.18c.189-.42.365-.832.461-1.088a.388.388 0 0 0 .027-.249 4.725 4.725 0 0 0-.109-.484l-.027-.101ZM14.998 9.557l.145.063a.35.35 0 0 1 .114.08c.89.929 1.6 1.893 1.743 2.147a.41.41 0 0 1 .053.153c.16 1.356.022 2.792-.304 4.042a.388.388 0 0 1-.17.252c-.35.262-.87.68-1.387 1.108l-.163.135a45.785 45.785 0 0 0-1.466 1.255.944.944 0 0 0-.163.199 17.22 17.22 0 0 0-.386.685l-.025.046-.028.052a19.088 19.088 0 0 1-.46-1.133c-.029-.082-.034-.126-.003-.236.142-.524.818-2.046.95-2.322v.113a.154.154 0 0 1-.008.048c-.06.18-.423 1.38-.496 1.9a.726.726 0 0 0 0 .261c.032.243.177.689.177.689s.086-.18.166-.302a.801.801 0 0 1 .127-.152c.325-.322.88-.819 1.456-1.32l.205-.175c.443-.382.885-.752 1.235-1.036.09-.074.125-.123.145-.263.1-.689.13-1.926.069-2.826a.964.964 0 0 0-.162-.476c-.22-.325-.482-.632-.88-1.026a.396.396 0 0 1-.11-.208 61.477 61.477 0 0 0-.374-1.753ZM7.649 10.984a.313.313 0 0 0-.17.007l-.047.014c.382.13.762.267 1.14.412a.164.164 0 0 1 .086.092l.038.127a.208.208 0 0 1-.014.155 6.95 6.95 0 0 1-.733 1.11.331.331 0 0 1-.14.1c-.237.09-.67.233-.86.282-.037.01-.056.005-.087-.017-.137-.096-.42-.362-.42-.362s-.025.29-.026.42c0 .013.002.028.008.04.048.114.134.331.17.442l.023.083c.048.19.18.75.18.75.019.086.067.115.142.1.096-.022.404-.109.53-.15a.137.137 0 0 0 .052-.032l.218-.2s-.463.113-.637.146c-.066.013-.102-.023-.111-.067a18.814 18.814 0 0 1-.116-.657c-.011-.066.01-.103.07-.123.294-.095.79-.263 1.188-.404.103-.036.135-.077.193-.17.087-.139.241-.405.396-.68l.084-.15c.112-.2.217-.394.29-.537a.173.173 0 0 0-.005-.169l-.088-.147a.3.3 0 0 0-.159-.118 98.022 98.022 0 0 0-1.195-.297Z" fill="#000E23"></path><path d="M11.85 12.983s.064.385.084.496a.254.254 0 0 1-.002.142c-.052.2-.29 1.25-.482 2.325l-.03.17c-.078.453-.145.903-.185 1.287a.903.903 0 0 0 .043.465c.163.548.767 1.98.883 2.24.013.03.021.06.025.09l.043.338c-.193-.292-1.245-2.228-1.658-3.3-.049-.127-.058-.189-.004-.421.287-1.232 1.064-3.325 1.283-3.832Z" fill="#000E23"></path><path fill-rule="evenodd" clip-rule="evenodd" d="M4.049 17.19c1.801 2.873 4.59 5.342 7.83 6.809 3.239-1.467 6.028-3.936 7.829-6.808 1.807-2.88 2.757-6.235 2.992-10.557.105-1.938.042-4.222-.013-5.7a63.61 63.61 0 0 0-10.809-.935c-3.496 0-7.125.299-10.809.935-.055 1.478-.117 3.762-.012 5.7.235 4.322 1.185 7.676 2.992 10.557Zm15.023-.398c-1.665 2.656-4.22 4.96-7.194 6.38-2.972-1.42-5.528-3.724-7.194-6.38-1.723-2.747-2.649-5.97-2.878-10.198-.09-1.655-.055-3.578-.008-5.022A62.777 62.777 0 0 1 11.878.75c3.264 0 6.646.264 10.081.823.047 1.444.081 3.367-.008 5.022-.23 4.228-1.155 7.451-2.879 10.198Z" fill="#000E23"></path></svg>
