<?xml version="1.0" encoding="UTF-8"?>
<!-- Created with Inkscape (http://www.inkscape.org/) -->
<svg width="24" height="24" version="1.1" viewBox="0 0 24 24" xml:space="preserve" xmlns="http://www.w3.org/2000/svg"><path d="m-0.5-0.5v25h25v-25zm12.499 0.48077c6.6386-3.6346e-4 12.021 5.3816 12.02 12.02-3.24e-4 6.6381-5.3821 12.019-12.02 12.018-6.6376-3.18e-4 -12.018-5.3807-12.018-12.018-3.7692e-4 -6.6381 5.3802-12.02 12.018-12.02zm1.5137 3.6058c-2.4868 0-4.1044 1.498-4.1044 4.2236v2.4001h-2.7588v3.1494h2.7588v8.4961h3.3879v-8.4961h2.5306l0.48828-3.1494h-3.0189v-2.0414c0-0.85793 0.42346-1.694 1.77-1.694h1.3681v-2.6818s-1.238-0.20658-2.4217-0.20658z" fill="#f5f5f5" fill-rule="evenodd"/></svg>
