<?xml version="1.0" encoding="UTF-8"?>
<!-- Created with Inkscape (http://www.inkscape.org/) -->
<svg width="24" height="24" version="1.1" viewBox="0 0 24 24" xml:space="preserve" xmlns="http://www.w3.org/2000/svg"><path d="m-0.5-0.5v25h25v-25zm12.499 0.48077c6.6386-3.63e-4 12.021 5.3816 12.02 12.02-3.18e-4 6.6381-5.3821 12.019-12.02 12.018-6.6376-3.18e-4 -12.018-5.3807-12.018-12.018-3.77e-4 -6.6381 5.3802-12.02 12.018-12.02zm-2.9344 4.4781c-2.587 0-4.6058 2.0197-4.6058 4.5438v5.9946c0 2.5241 2.019 4.5438 4.5429 4.5438h5.9946c2.5239 0 4.5429-2.0197 4.5429-4.5438v-5.9946c0.0631-2.5241-1.9561-4.5438-4.48-4.5438zm0.49767 1.277h4.9795c2.0967 0 3.7737 1.677 3.7213 3.7739v4.9805c0 2.0969-1.6772 3.7739-3.7738 3.7739h-4.9795c-2.0967 0-3.7738-1.677-3.7738-3.7739v-4.9805c0-2.0969 1.6774-3.7739 3.8264-3.7739zm6.3674 1.5146c-0.50514 0-0.88454 0.37935-0.88454 0.88454s0.3794 0.8836 0.88454 0.8836c0.50519 0 0.8836-0.37841 0.8836-0.8836s-0.37841-0.88454-0.8836-0.88454zm-3.9297 1.1869c-2.0835 0-3.725 1.7047-3.725 3.725 0 2.0204 1.7047 3.725 3.725 3.725 2.0204 0 3.725-1.7047 3.725-3.725 0-2.0203-1.6415-3.725-3.725-3.725zm0 1.277c1.3695 0 2.4489 1.12 2.4489 2.448 0 1.328-1.1209 2.4489-2.4489 2.4489-1.328 0-2.4489-1.1209-2.4489-2.4489 0-1.328 1.0794-2.448 2.4489-2.448z" fill="#f5f5f5" fill-rule="evenodd"/></svg>
