<?xml version="1.0" encoding="UTF-8"?>
<!-- Created with Inkscape (http://www.inkscape.org/) -->
<svg width="24" height="24" version="1.1" viewBox="0 0 24 24" xml:space="preserve" xmlns="http://www.w3.org/2000/svg"><path d="m-0.5-0.5v25h25v-25zm12.499 0.48077c6.6386-3.63e-4 12.021 5.3816 12.02 12.02-3.64e-4 6.6381-5.3821 12.019-12.02 12.018-6.6377-3.64e-4 -12.018-5.3807-12.018-12.018-3.63e-4 -6.6381 5.3802-12.02 12.018-12.02zm-4.2443 4.8049c-0.84349 0-1.5268 0.68896-1.5268 1.5381 0 0.84976 0.68333 1.539 1.5268 1.539 0.8429 0 1.5268-0.68927 1.5268-1.539 0-0.84912-0.68392-1.5381-1.5268-1.5381zm7.9045 3.9138c-1.7683 0-2.5531 1.3775-2.5531 1.3775v-0.91459h-2.5015v8.1289h2.5015v-4.3767c0-1.1724 0.61341-1.8696 1.647-1.8696 0.94979 0 1.4789 0.66901 1.4789 1.8696v4.3767h2.5015v-5.2791c0-2.2335-1.3054-3.3128-3.0743-3.3128zm-9.4313 0.46293v8.1289h3.1259v-8.1289z" fill="#f5f5f5" fill-rule="evenodd"/></svg>
