<?xml version="1.0" encoding="UTF-8"?>
<!-- Created with Inkscape (http://www.inkscape.org/) -->
<svg width="24" height="24" version="1.1" viewBox="0 0 24 24" xml:space="preserve" xmlns="http://www.w3.org/2000/svg"><path d="m-0.5-0.5v25h25v-25zm12.499 0.48077c6.6386-4.088e-4 12.021 5.3816 12.02 12.02-3.18e-4 6.6382-5.3821 12.019-12.02 12.018-6.6376-3.18e-4 -12.018-5.3806-12.018-12.018-3.63e-4 -6.6381 5.3802-12.02 12.018-12.02zm3.1494 4.7974c-0.78132 0.00632-1.5627 4.101e-4 -2.3503 0.012211-0.01817 2.4195-0.0064 4.8393-0.01221 7.2651-0.0055 1.0775 0.01795 2.1489-0.04226 3.2264v0.0075c-0.02939 0.23554-0.1174 0.45181-0.24602 0.63101l-0.0047 0.0094c-0.34584 0.5602-0.95738 0.93924-1.662 0.9606-0.02744-3.63e-4 -0.05447 0-0.08263 0-1.0187 0-1.8636-0.7441-2.0236-1.7296v0.01126c-0.01145-0.09635-0.01785-0.1947-0.01785-0.29391 0-0.24467 0.03642-0.48076 0.10047-0.68641l0.0047-0.01408c0.28324-0.80297 1.0486-1.3785 1.9484-1.3785 0.24517 0 0.48075 0.04275 0.68453 0.11644 0-0.8905 0.03528-1.781 0.02348-2.6715-0.24267-0.04019-0.49136-0.06197-0.74557-0.06197-2.3444 0-4.2731 1.7808-4.5091 4.0828-0.01181 0.29478-0.0062 0.5957 0.0056 0.89675v0.01972c0.15404 1.4459 0.98714 2.6891 2.1944 3.4161 0.65964 0.39621 1.4309 0.62444 2.2564 0.62444 0.07031 0 0.14077-1.53e-4 0.20001-0.0047h0.0066c1.4658-0.04426 2.7546-0.79187 3.5504-1.9315 0.47003-0.67677 0.76384-1.4857 0.81318-2.3719 0.01781-1.7513 0.0055-3.5084 0.01127-5.2659 0.29412 0.19998 0.60474 0.38032 0.96905 0.55589 0.77244 0.356 1.6269 0.56496 2.5353 0.58782v-2.4264h-0.01417c-0.97477-0.067459-1.8593-0.46388-2.539-1.0761-0.63148-0.65219-1.0286-1.5326-1.0545-2.5109z" fill="#f5f5f5" fill-rule="evenodd"/></svg>
