<?xml version="1.0" encoding="UTF-8"?>
<!-- Created with Inkscape (http://www.inkscape.org/) -->
<svg width="24" height="24" version="1.1" viewBox="0 0 24 24" xml:space="preserve" xmlns="http://www.w3.org/2000/svg"><path d="m-0.5-0.5v25h25v-25zm12.499 0.48077c6.6385-3.634e-4 12.021 5.3816 12.02 12.02-3.18e-4 6.6381-5.3821 12.019-12.02 12.018-6.6377-3.18e-4 -12.018-5.3807-12.018-12.018-3.634e-4 -6.6381 5.3801-12.02 12.018-12.02zm3.171 5.5936c-1.7281 0-3.1278 1.5074-3.1278 3.3663 0 0.26443 0.02875 0.52068 0.08075 0.76716-2.5976-0.14073-4.9036-1.4801-6.4453-3.5175-0.26796 0.49656-0.42349 1.0754-0.42349 1.6921 0 1.1679 0.72262 2.1969 1.5616 2.802-0.51269-0.01795-1.247-0.1698-1.247-0.42255v0.04507c0 1.6295 0.90848 2.9887 2.3381 3.2997-0.26175 0.07514-0.6221 0.11737-0.90802 0.11737-0.2017 0-0.44016-0.02154-0.63195-0.06197 0.39885 1.3373 1.5328 2.3114 2.9006 2.34-1.0702 0.90082-2.4294 1.4395-3.894 1.4395-0.25271 0-0.50838-0.01652-0.75214-0.04695 1.3848 0.95369 3.025 1.5127 4.7908 1.5127 5.7535 0 8.897-5.1284 8.897-9.5759 0-0.14609-4e-3 -0.2933-0.01036-0.43758 0.61126-0.47417 1.142-1.066 1.5606-1.7409v-9.62e-4c-0.56113 0.26797-1.1635 0.44904-1.7953 0.53148 0.64534-0.41679 1.1407-1.076 1.3747-1.863-0.60509 0.38631-1.2752 0.66727-1.9869 0.81787-0.5692-0.65524-1.3837-1.0639-2.2818-1.0639z" fill="#f5f5f5" fill-rule="evenodd"/></svg>
