<?xml version="1.0" encoding="UTF-8"?>
<!-- Created with Inkscape (http://www.inkscape.org/) -->
<svg width="24" height="24" version="1.1" viewBox="0 0 24 24" xml:space="preserve" xmlns="http://www.w3.org/2000/svg"><path d="m-0.5-0.5v25h25v-25zm12.499 0.48077c6.6386-4.08e-4 12.021 5.3816 12.02 12.02-3.63e-4 6.6381-5.3821 12.019-12.02 12.018-6.6377-3.18e-4 -12.018-5.3807-12.018-12.018-4.08e-4 -6.6381 5.3802-12.02 12.018-12.02zm-4.4687 7.2322s-2.3494-8e-6 -2.3494 2.3494v4.8753s-7e-6 2.3494 2.3494 2.3494h8.9393s2.3494 5.3e-5 2.3494-2.3494v-4.8753s7e-6 -2.3494-2.3494-2.3494zm2.6527 2.1682 4.465 2.6217-4.465 2.6208z" fill="#f5f5f5" fill-rule="evenodd"/></svg>
