<?xml version="1.0" encoding="UTF-8"?>
<!-- Created with Inkscape (http://www.inkscape.org/) -->
<svg width="24" height="24" version="1.1" viewBox="0 0 24 24" xmlns="http://www.w3.org/2000/svg">
 <path d="m-0.5-0.5v25h25v-25zm12.498 0.48047c6.6386-3.76e-4 12.02 5.3809 12.02 12.02-3.22e-4 6.6381-5.3814 12.02-12.02 12.02-6.6376-3.24e-4 -12.017-5.3819-12.018-12.02-3.77e-4 -6.6381 5.3795-12.019 12.018-12.02zm-6.3984 7.1191 6.4004 6.4004 6.4004-6.4004zm13.75 1.0293-3.8555 3.8555 3.8555 3.8555zm-14.699 2e-3v7.709l3.8555-3.8555zm9.8535 4.8418-2.502 2.5039-2e-3 -0.0019-0.0039 0.0019-2.5039-2.502-3.9238 3.9238h12.859z" fill="#f5f5f5" fill-rule="evenodd" stroke-width=".36994"/>
</svg>
