<?xml version="1.0" encoding="UTF-8"?>
<!-- Created with Inkscape (http://www.inkscape.org/) -->
<svg width="24" height="24" version="1.1" viewBox="0 0 24 24" xmlns="http://www.w3.org/2000/svg">
 <path d="m-0.5-0.5v25h25v-25zm12.5 0.48047c6.6386-3.759e-4 12.02 5.3809 12.02 12.02-3.23e-4 6.6381-5.3814 12.018-12.02 12.018-6.6376-3.23e-4 -12.019-5.38-12.02-12.018-3.77e-4 -6.6381 5.3814-12.019 12.02-12.02zm0 5.418c-2.7065-2.16e-4 -4.9006 2.1939-4.9004 4.9004 0.0048 1.0336 0.33639 2.0392 0.94727 2.873l-0.00391 0.01367c1.3197 1.8848 2.6399 3.7696 3.957 5.6562 1.3171-1.8866 2.6373-3.7715 3.957-5.6562l-0.0039-0.01172c0.61127-0.83434 0.94285-1.8407 0.94726-2.875 2.13e-4 -2.7065-2.1939-4.9006-4.9004-4.9004zm0 2.8008a2.1 2.1 0 0 1 2.0996 2.0996 2.1 2.1 0 0 1-2.0996 2.0996 2.1 2.1 0 0 1-2.0996-2.0996 2.1 2.1 0 0 1 2.0996-2.0996z" fill="#f5f5f5"/>
</svg>
