<?xml version="1.0" encoding="UTF-8"?>
<!-- Created with Inkscape (http://www.inkscape.org/) -->
<svg width="24" height="24" version="1.1" viewBox="0 0 24 24" xmlns="http://www.w3.org/2000/svg">
 <path d="m-0.5-0.5v25h25v-25h-25zm12.5 0.48047c6.6386-3.7692e-4 12.02 5.3809 12.02 12.02-3.27e-4 6.6381-5.3814 12.02-12.02 12.02-6.6376-3.23e-4 -12.019-5.3819-12.02-12.02-3.77e-4 -6.6381 5.3814-12.019 12.02-12.02zm-6.5293 5.9492a12.6 12.6 0 0 0 12.6 12.6v-1.4004-2.9355l-3.1465-0.55469-1.9082 2.2715a11.2 11.2 0 0 1-4.9258-4.9258l2.2715-1.9082-0.55469-3.1465h-2.9355-1.4004z" fill="#f5f5f5" fill-rule="evenodd"/>
</svg>
