<?xml version="1.0" encoding="UTF-8"?>
<!-- Created with Inkscape (http://www.inkscape.org/) -->
<svg width="24" height="24" version="1.1" viewBox="0 0 24 24" xmlns="http://www.w3.org/2000/svg">
 <path d="m-0.5-0.5v25h25v-25zm12.5 0.48047c6.6386-3.77e-4 12.02 5.3809 12.02 12.02-3.21e-4 6.6381-5.3814 12.02-12.02 12.02-6.6376-3.23e-4 -12.017-5.3819-12.018-12.02-3.76e-4 -6.6381 5.3795-12.019 12.018-12.02zm-0.05078 5.041a7 7 0 0 0-7 7 7 7 0 0 0 0.94727 3.4844l-0.55664 3.1523 3.1699-0.55859a7 7 0 0 0 3.4395 0.92188 7 7 0 0 0 7-7 7 7 0 0 0-7-7zm0 1.4004a5.6 5.6 0 0 1 5.5996 5.5996 5.6 5.6 0 0 1-5.5996 5.5996 5.6 5.6 0 0 1-0.57422-0.04492 5.6 5.6 0 0 1-0.44922-0.06445 5.6 5.6 0 0 1-0.30469-0.07031 5.6 5.6 0 0 1-0.55664-0.16602 5.6 5.6 0 0 1-0.41797-0.16797 5.6 5.6 0 0 1-0.23828-0.11328 5.6 5.6 0 0 1-0.62109-0.36328 5.6 5.6 0 0 1-0.00195 0l-1.7207 0.30273 0.30273-1.7129a5.6 5.6 0 0 1-0.054687-0.08789 5.6 5.6 0 0 1-0.3125-0.5293 5.6 5.6 0 0 1-0.11914-0.23828 5.6 5.6 0 0 1-0.2168-0.54102 5.6 5.6 0 0 1-0.10742-0.36328 5.6 5.6 0 0 1-0.089844-0.38281 5.6 5.6 0 0 1-0.0625-0.36719 5.6 5.6 0 0 1-0.054687-0.68945 5.6 5.6 0 0 1 5.5996-5.5996zm-3.5605 2.3418a5.6 5.6 0 0 0-0.125 1.1152 5.6 5.6 0 0 0 5.5996 5.5996 5.6 5.6 0 0 0 1.2617-0.1582l0.0078 2e-3v-2.5273l-1.7871-0.31445-1.0781 1.2852a4.2 4.2 0 0 1-2.2422-2.1973l1.2129-1.0176-0.31445-1.7871h-2.5273z" fill="#f5f5f5" fill-rule="evenodd"/>
</svg>
