<?xml version="1.0" encoding="UTF-8" standalone="no"?>
<!-- Created with Inkscape (http://www.inkscape.org/) -->

<svg
   width="120"
   height="120"
   viewBox="0 0 120 120"
   version="1.1"
   id="svg1"
   inkscape:version="1.3.2 (091e20e, 2023-11-25, custom)"
   sodipodi:docname="company-delivery.svg"
   xmlns:inkscape="http://www.inkscape.org/namespaces/inkscape"
   xmlns:sodipodi="http://sodipodi.sourceforge.net/DTD/sodipodi-0.dtd"
   xmlns="http://www.w3.org/2000/svg"
   xmlns:svg="http://www.w3.org/2000/svg">
  <sodipodi:namedview
     id="namedview1"
     pagecolor="#ffffff"
     bordercolor="#000000"
     borderopacity="0.25"
     inkscape:showpageshadow="2"
     inkscape:pageopacity="0.0"
     inkscape:pagecheckerboard="0"
     inkscape:deskcolor="#d1d1d1"
     inkscape:document-units="px"
     inkscape:zoom="1.7125"
     inkscape:cx="10.218978"
     inkscape:cy="64.817518"
     inkscape:window-width="1920"
     inkscape:window-height="1018"
     inkscape:window-x="-6"
     inkscape:window-y="-6"
     inkscape:window-maximized="1"
     inkscape:current-layer="g1" />
  <defs
     id="defs1" />
  <g
     inkscape:label="Layer 1"
     inkscape:groupmode="layer"
     id="layer1">
    <g
       id="g1"
       transform="translate(-10.771864,-20.425421)">
      <g
         id="g2"
         transform="translate(0,-2.8936523)">
        <path
           id="path137-4-2-7-6-9-2"
           style="fill:#fff6f2;fill-opacity:1;stroke:none;stroke-width:1.73187"
           d="m 28.345327,48.392644 a 59.999944,59.999944 0 0 0 8e-5,84.852586 l 42.42622,-42.426225 42.426723,42.426515 a 59.999944,59.999944 0 0 0 -2.6e-4,-84.852876 59.999944,59.999944 0 0 0 -84.852729,0 z" />
        <circle
           style="fill:#ffcbb3;fill-opacity:1;stroke:none;stroke-width:1.2989"
           id="path137-0-2-9"
           cx="70.771866"
           cy="90.819122"
           r="44.999954" />
      </g>
      <path
         id="rect5-9-0-1-1-8-7-9-7-4-7-8-4-9-5-6-4-3-2"
         style="fill:#4d4d4d;fill-opacity:0.97647059;fill-rule:evenodd;stroke-width:0.216142"
         d="m 75.811355,65.990312 -0.0095,0.0066 h -23.6983 v 0.0019 -0.0019 l -4.024441,4.024413 v 0.0019 0 4.317874 H 45.35989 v 2.655258 H 62.862882 V 74.341103 H 50.734945 v -3.219241 l 2.468693,-2.469231 h 21.512693 l 2.462929,2.4624 V 91.354779 H 48.079166 v 2.65527 8.528321 2.22607 h 3.364724 c 0.476221,3.25677 3.279969,5.75715 6.668977,5.75732 3.389102,1.9e-4 6.193133,-2.50033 6.669448,-5.75732 h 15.559088 c 0.476125,3.25677 3.279967,5.75715 6.668882,5.75732 3.38929,1.9e-4 6.1937,-2.50032 6.66992,-5.75732 h 5.068783 v -2.65527 -14.643554 h -5e-4 v -1.336913 h 5e-4 a 12.755906,12.755906 0 0 0 -5e-4,-0.0094 v -0.0239 0 A 12.755906,12.755906 0 0 0 86.199198,73.383437 v -0.01077 h -6.363213 v -3.355955 0 -0.0019 z m 4.024441,10.037594 h 6.158647 A 10.100787,10.100788 0 0 1 96.08871,86.019607 H 79.835796 Z m -27.535654,3.952148 v 2.655279 h 17.50337 v -2.655279 z m -6.939024,5.639159 v 2.655278 h 17.502993 v -2.655278 z m 34.474678,3.056156 h 16.258772 v 0.20654 13.227051 h -2.55033 c -0.743813,-2.914741 -3.386363,-5.070981 -6.532725,-5.070801 -3.14608,1.5e-4 -5.788535,2.156247 -6.532158,5.070801 h -0.643559 z m -29.099622,5.334472 h 26.444315 v 8.099119 h -12.53367 c -0.743811,-2.914741 -3.386551,-5.070981 -6.532724,-5.070801 -3.146079,1.5e-4 -5.78863,2.156247 -6.532252,5.070801 h -0.845669 z m 7.378393,5.683595 c 2.25704,-1.32e-4 4.086992,1.829844 4.086898,4.086904 -9.4e-5,2.25693 -1.830047,4.08656 -4.086898,4.08644 -2.256756,-1.1e-4 -4.086331,-1.82967 -4.086425,-4.08644 -1.89e-4,-2.25689 1.82948,-4.086789 4.086425,-4.086904 z m 28.897418,0 c 2.257133,-1.32e-4 4.087085,1.829844 4.086993,4.086904 -1.9e-4,2.25693 -1.830048,4.08656 -4.086993,4.08644 -2.256757,-1.1e-4 -4.086237,-1.82967 -4.086425,-4.08644 -9.5e-5,-2.25689 1.829575,-4.086789 4.086425,-4.086904 z" />
    </g>
  </g>
</svg>
