<?xml version="1.0" encoding="UTF-8"?>
<svg xmlns="http://www.w3.org/2000/svg" version="1.1" xmlns:xlink="http://www.w3.org/1999/xlink" viewBox="0 0 48 48">
  <defs>
    <style>
      .cls-1 {
        fill: none;
        stroke: #475467;
        stroke-miterlimit: 10;
        stroke-width: 1.4px;
      }

      .cls-2 {
        fill: #f0f8ff;
      }

      .cls-3 {
        fill: #d7edfe;
      }
    </style>
  </defs>
  <!-- Generator: Adobe Illustrator 28.6.0, SVG Export Plug-In . SVG Version: 1.2.0 Build 709)  -->
  <g>
    <g id="Layer_1">
      <g>
        <circle class="cls-2" cx="24" cy="23.7" r="24"/>
        <circle class="cls-3" cx="24" cy="23.7" r="17.7"/>
      </g>
      <image width="171" height="161" transform="translate(245 -13.5) scale(.4)" xlink:href="part-exchange-1.png"/>
      <g>
        <path class="cls-1" d="M106.4,18h4.7s2.1-2,4.5-2"/>
        <polyline class="cls-1" points="107.2 27.9 108.9 27.9 109.8 27 109.8 18"/>
        <polyline class="cls-1" points="119.6 22.4 124.3 26.4 123.1 28.3 121.9 27.1 119.6 30 118 28.7 116.3 30 112.2 27.1 109.8 27.1"/>
        <polyline class="cls-1" points="129.6 27.9 127.2 27.9 125.9 26.2 124.3 26.2"/>
        <path class="cls-1" d="M119.6,18.8l-3.2,2.8s-2.4.4-2-2l4-3.6h2.6s2.5.8,4.4,2h4.3"/>
        <line class="cls-1" x1="126.3" y1="18" x2="126.3" y2="26.4"/>
      </g>
      <image width="210" height="159" transform="translate(111 78.6) scale(.4)" xlink:href="part-exchange-2.png"/>
      <path class="cls-1" d="M145.2,120.4s-3.4-3-2.6-5.3,1.5-2.5,2.6-2.6,2.6.7,3,2.6-3,5.3-3,5.3Z"/>
      <path class="cls-1" d="M156.3,111.1s-3.4-3-2.6-5.3,1.5-2.5,2.6-2.6,2.6.7,3,2.6-3,5.3-3,5.3Z"/>
      <path class="cls-1" d="M147.5,120.4c.8.4,10,0,10,0,0,0,3.5-2,0-4.4h-4.2s-4.4-2.7,0-4.4h3"/>
      <line class="cls-1" x1="144.5" y1="115.5" x2="145.2" y2="115.5"/>
      <line class="cls-1" x1="155.8" y1="106.1" x2="157.3" y2="106.1"/>
      <g>
        <circle class="cls-2" cx="20.3" cy="-38.9" r="24"/>
        <circle class="cls-3" cx="20.3" cy="-38.9" r="17.7"/>
      </g>
      <g>
        <circle class="cls-1" cx="14" cy="-33.1" r="3.2"/>
        <circle class="cls-1" cx="26.3" cy="-33.3" r="3.2"/>
        <line class="cls-1" x1="10.7" y1="-37.6" x2="10.7" y2="-33.1"/>
        <polyline class="cls-1" points="17.2 -33.1 23 -33.1 23 -46.4 21.5 -47.9 12.1 -47.9 11.1 -46.9 11.1 -44.6"/>
        <line class="cls-1" x1="8.5" y1="-44.6" x2="17" y2="-44.6"/>
        <line class="cls-1" x1="9.7" y1="-42.2" x2="18.6" y2="-42.2"/>
        <line class="cls-1" x1="8.5" y1="-39.7" x2="17" y2="-39.7"/>
        <line class="cls-1" x1="23.4" y1="-39.7" x2="30.7" y2="-39.7"/>
        <polyline class="cls-1" points="23 -44.6 26.6 -44.6 30.7 -40.5 30.7 -33.7 32.1 -33.7"/>
      </g>
      <g>
        <circle class="cls-2" cx="82.3" cy="-40.9" r="24"/>
        <circle class="cls-3" cx="82.3" cy="-40.9" r="17.7"/>
      </g>
      <g>
        <circle class="cls-1" cx="82.3" cy="-40.6" r="8.7"/>
        <line class="cls-1" x1="78.2" y1="-40.6" x2="73.4" y2="-40.6"/>
        <line class="cls-1" x1="82.3" y1="-31.9" x2="82.3" y2="-36.7"/>
        <line class="cls-1" x1="86.4" y1="-40.6" x2="91.2" y2="-40.6"/>
        <polygon class="cls-1" points="80 -42.5 78.2 -40.5 82.3 -36.8 86.5 -40.5 84.8 -42.5 80 -42.5"/>
      </g>
      <g>
        <circle class="cls-2" cx="142.3" cy="-37.9" r="24"/>
        <circle class="cls-3" cx="142.3" cy="-37.9" r="17.7"/>
      </g>
      <g>
        <path class="cls-1" d="M134.1-43.1l8.1-3.5,8.3,3.5s.8,10.6-8.2,14.6c0,0-7.8-3-8.2-14.6Z"/>
        <polyline class="cls-1" points="139.1 -37.9 141.4 -35.7 145.3 -39.6"/>
      </g>
      <g>
        <circle class="cls-2" cx="205.3" cy="-37.9" r="24"/>
        <circle class="cls-3" cx="205.3" cy="-37.9" r="17.7"/>
      </g>
      <g>
        <polyline class="cls-1" points="201 -43.2 201 -45.1 202.1 -46.2 208.3 -46.2 208.3 -40.4 214.3 -40.4 214.3 -30.4 212.8 -28.9 204.4 -28.9"/>
        <line class="cls-1" x1="208.2" y1="-46.3" x2="214.4" y2="-40.5"/>
        <circle class="cls-1" cx="200.5" cy="-36.6" r="4.3"/>
        <polyline class="cls-1" points="198.9 -32 198.9 -28.9 200.7 -30.6 202.3 -29 202.3 -32.2"/>
      </g>
      <g>
        <circle class="cls-2" cx="-41.7" cy="-37.9" r="24"/>
        <circle class="cls-3" cx="-41.7" cy="-37.9" r="17.7"/>
      </g>
      <g>
        <polyline class="cls-1" points="-50.8 -42.6 -48.5 -40.3 -44.8 -44.4"/>
        <polyline class="cls-1" points="-50.8 -37.1 -48.5 -34.8 -44.8 -38.9"/>
        <line class="cls-1" x1="-42.5" y1="-42.7" x2="-32.6" y2="-42.7"/>
        <line class="cls-1" x1="-42.5" y1="-37.1" x2="-32.6" y2="-37.1"/>
        <line class="cls-1" x1="-44.9" y1="-30.8" x2="-32.6" y2="-30.8"/>
        <line class="cls-1" x1="-49.2" y1="-30.8" x2="-47.6" y2="-30.8"/>
      </g>
      <image width="196" height="153" transform="translate(-9 65.2) scale(.4)" xlink:href="part-exchange-3.png"/>
      <g>
        <path class="cls-1" d="M20.5,20.1s-7.9,3.6-1,9.9v2.5h2.4v-2.5h4.1v2.5h3.5v-2.1l2.3-2.3h1.8v-4.3h-1.5l-2.4-2.4,1-2.5h-2.1l-1.3,1.3h-6.9Z"/>
        <path class="cls-1" d="M15.3,21s-3,3.7,1.4,3.7"/>
        <path class="cls-1" d="M19.9,18.3s1-2.9,3.7-2.8,3,2.4,3,2.4"/>
      </g>
      <line class="cls-1" x1="28.5" y1="23.5" x2="29.5" y2="24.5"/>
    </g>
  </g>
</svg>