<svg viewBox="0 0 24 24" fill="none" xmlns="http://www.w3.org/2000/svg"><path d="M19.848 8c-.992 0-1.902.348-2.616.928A4.134 4.134 0 0 0 14.616 8c-.992 0-1.902.348-2.616.928A4.134 4.134 0 0 0 9.384 8c-.992 0-1.902.348-2.616.928a4.152 4.152 0 1 0 0 6.447c.714.58 1.624.929 2.616.929s1.902-.348 2.616-.928c.714.58 1.624.928 2.616.928s1.902-.348 2.616-.928A4.152 4.152 0 1 0 19.848 8Zm-2.616 6.018a3.199 3.199 0 0 1-.598-1.866c0-.696.222-1.34.598-1.866.376.526.598 1.17.598 1.866 0 .696-.222 1.34-.598 1.866Zm-5.232 0a3.198 3.198 0 0 1-.598-1.866c0-.696.222-1.34.598-1.866.376.526.598 1.17.598 1.866 0 .696-.222 1.34-.598 1.866Zm-5.232 0a3.198 3.198 0 0 1-.598-1.866c0-.696.222-1.34.598-1.866.39.544.599 1.197.598 1.866 0 .67-.208 1.322-.598 1.866Zm-5.83-1.866a3.214 3.214 0 0 1 5.17-2.55 4.133 4.133 0 0 0-.876 2.55c0 .961.328 1.846.876 2.55a3.214 3.214 0 0 1-5.17-2.55Zm6.49 2.55a4.133 4.133 0 0 0 .876-2.55c0-.961-.328-1.846-.876-2.55a3.2 3.2 0 0 1 1.956-.664 3.2 3.2 0 0 1 1.956.664 4.133 4.133 0 0 0-.876 2.55c0 .961.328 1.846.876 2.55a3.199 3.199 0 0 1-1.956.664 3.199 3.199 0 0 1-1.956-.665Zm5.232 0a4.132 4.132 0 0 0 .876-2.55c0-.961-.327-1.846-.876-2.55a3.2 3.2 0 0 1 1.956-.664c.736 0 1.414.248 1.956.665a4.132 4.132 0 0 0-.876 2.549c0 .961.328 1.846.876 2.55a3.199 3.199 0 0 1-1.956.664 3.2 3.2 0 0 1-1.956-.665Zm7.188.664a3.2 3.2 0 0 1-1.956-.665 4.133 4.133 0 0 0 .876-2.549c0-.961-.328-1.846-.876-2.55a3.214 3.214 0 1 1 1.956 5.763Z" fill="#000E23"></path></svg>