<svg viewBox="0 0 24 24" fill="none" xmlns="http://www.w3.org/2000/svg"><path fill-rule="evenodd" clip-rule="evenodd" d="M24 11.994c0-4.618-2.61-8.624-6.43-10.634A11.962 11.962 0 0 0 12.013 0c-2.01 0-3.909.487-5.57 1.36C2.61 3.37 0 7.376 0 11.994c0 4.617 2.61 8.637 6.443 10.646a12.082 12.082 0 0 0 5.57 1.36c1.998 0 3.883-.499 5.557-1.372A11.994 11.994 0 0 0 24 11.994Zm-2.834 5.716a10.742 10.742 0 0 1-3.596 3.545 10.726 10.726 0 0 1-5.557 1.547c-2.036 0-3.946-.562-5.57-1.547a10.729 10.729 0 0 1-3.583-3.52l9.128-3.744 5.582 2.259 3.596 1.46Zm.35-.599-3.946-3.083-3.86-3.008-1.373-9.822c1.898.063 3.697.612 5.233 1.534 3.133 1.898 5.232 5.342 5.232 9.261 0 1.86-.462 3.595-1.287 5.118Zm-11.19-6.09-7.828 6.115a10.795 10.795 0 0 1-1.3-5.142c0-3.931 2.099-7.363 5.245-9.262a10.824 10.824 0 0 1 5.245-1.534l-1.361 9.822Z" fill="#000E23"></path></svg>