<svg viewBox="0 0 24 24" fill="none" xmlns="http://www.w3.org/2000/svg"><path d="M12 4C5.203 4 0 7.505 0 12.172c0 4.514 5.07 8.173 12 8.173s12-3.66 12-8.173C24 7.505 18.797 4 12 4Zm7.482 3.505c.25 1.008-.923 2.267-4.7 2.679-.25-2.566-1.012-4.734-2.273-5.193 1.698.048 3.308.335 4.711.844 1.313.495 2.127 1.127 2.262 1.67Zm-5.593 4.628c0 3.25-.976 4.598-1.889 4.598s-1.89-1.348-1.89-4.598v-.038a22.478 22.478 0 0 0 3.78.004v.037-.003ZM12 10.32c-.59 0-1.18-.017-1.77-.052.287-2.126 1.048-3.362 1.77-3.362.723 0 1.484 1.236 1.771 3.361-.544.038-1.134.053-1.77.053ZM4.516 7.504c.135-.54.942-1.168 2.243-1.662 1.408-.514 3.025-.804 4.732-.852-1.262.46-2.023 2.627-2.274 5.193-3.776-.412-4.95-1.671-4.7-2.679ZM1.77 11.878a5.501 5.501 0 0 1 1.263-3.55c.104 1.824 2.573 3.185 6.092 3.663v.143c0 4.402 1.124 6.737 2.38 7.218C6.13 19.16 1.77 15.85 1.77 11.88v-.001Zm10.704 7.474c1.26-.502 2.402-3.007 2.402-7.219v-.142c3.52-.478 5.988-1.84 6.092-3.664a5.502 5.502 0 0 1 1.263 3.55c0 3.977-4.373 7.29-9.757 7.475Z" fill="#000E23"></path></svg>