<?xml version="1.0" encoding="UTF-8" standalone="no"?>
<!-- Created with Inkscape (http://www.inkscape.org/) -->

<svg
   width="48"
   height="48"
   viewBox="0 0 48 48"
   version="1.1"
   id="svg1"
   sodipodi:docname="cc-asc.svg"
   inkscape:version="1.3.2 (091e20e, 2023-11-25, custom)"
   xmlns:inkscape="http://www.inkscape.org/namespaces/inkscape"
   xmlns:sodipodi="http://sodipodi.sourceforge.net/DTD/sodipodi-0.dtd"
   xmlns="http://www.w3.org/2000/svg"
   xmlns:svg="http://www.w3.org/2000/svg">
  <sodipodi:namedview
     id="namedview1"
     pagecolor="#ffffff"
     bordercolor="#000000"
     borderopacity="0.25"
     inkscape:showpageshadow="2"
     inkscape:pageopacity="0.0"
     inkscape:pagecheckerboard="0"
     inkscape:deskcolor="#d1d1d1"
     inkscape:document-units="px"
     inkscape:zoom="6.0546018"
     inkscape:cx="17.589926"
     inkscape:cy="41.125743"
     inkscape:window-width="1920"
     inkscape:window-height="1018"
     inkscape:window-x="-6"
     inkscape:window-y="-6"
     inkscape:window-maximized="1"
     inkscape:current-layer="layer1" />
  <defs
     id="defs1" />
  <g
     inkscape:label="Layer 1"
     inkscape:groupmode="layer"
     id="layer1">
    <path
       id="rect5-9-0-2-9-4-1-3-6-3-2-2-3"
       style="fill:#1e1e1e;fill-opacity:1;fill-rule:evenodd;stroke-width:0.262033"
       d="m 13.468438,5.058859 v 0.0057 l -6.3896405,6.38965 h -6.016601 v 2.655278 h 7.124022 v -0.0076 L 14.573421,7.714676 h 12.806155 l 4.893062,5.831055 v 0.01172 h 9.29932 v -2.655762 h -0.0038 v -0.863274 h 5.421897 V 7.383136 h -8.078621 v 2.655279 h 0.0019 v 0.863282 H 33.521232 L 28.630126,5.073079 v -0.0137 z m 8.463383,5.091307 -7.377439,7.37744 1.877442,1.877933 4.176756,-4.176274 V 37.84939 h 2.655269 V 15.229265 l 4.176756,4.176274 1.877443,-1.877442 -7.377439,-7.377931 -0.0047,0.0047 z m 13.738772,22.940921 -7.193849,7.19434 h -12.77588 l -4.891597,-5.829592 v -0.01172 H 1.0099445 v 2.655277 h 8.551275 l 4.8915975,5.829099 v 0.01265 h 15.160649 v -0.06151 l 0.01219,0.0122 7.141106,-7.141106 h 2.137701 v 4.508787 0.545898 h 8.078607 v -2.65527 h -5.42285 v -2.844245 -2.210448 h -5.885252 z" />
  </g>
</svg>
