<?xml version="1.0" encoding="UTF-8" standalone="no"?>
<!-- Created with Inkscape (http://www.inkscape.org/) -->

<svg
   width="48"
   height="48"
   viewBox="0 0 48 48"
   version="1.1"
   id="svg1"
   inkscape:version="1.3.2 (091e20e, 2023-11-25, custom)"
   sodipodi:docname="cc-descending.svg"
   xmlns:inkscape="http://www.inkscape.org/namespaces/inkscape"
   xmlns:sodipodi="http://sodipodi.sourceforge.net/DTD/sodipodi-0.dtd"
   xmlns="http://www.w3.org/2000/svg"
   xmlns:svg="http://www.w3.org/2000/svg">
  <sodipodi:namedview
     id="namedview1"
     pagecolor="#ffffff"
     bordercolor="#000000"
     borderopacity="0.25"
     inkscape:showpageshadow="2"
     inkscape:pageopacity="0.0"
     inkscape:pagecheckerboard="0"
     inkscape:deskcolor="#d1d1d1"
     inkscape:document-units="px"
     inkscape:zoom="6.0546018"
     inkscape:cx="17.589926"
     inkscape:cy="41.125743"
     inkscape:window-width="1920"
     inkscape:window-height="1018"
     inkscape:window-x="-6"
     inkscape:window-y="-6"
     inkscape:window-maximized="1"
     inkscape:current-layer="layer1" />
  <defs
     id="defs1" />
  <g
     inkscape:label="Layer 1"
     inkscape:groupmode="layer"
     id="layer1">
    <path
       id="rect5-9-0-2-9-4-1-3-6-3-2-02"
       style="fill:#1e1e1e;fill-opacity:1;fill-rule:evenodd;stroke-width:0.262033"
       d="m 13.468438,5.058868 v 0.0047 l -6.3901415,6.390131 h -6.01611 v 2.655279 h 7.124022 v -0.0076 L 14.573903,7.714176 h 12.805664 l 4.89307,5.831055 v 0.01171 h 9.299321 v -2.655209 h -0.0038 v -0.86328 h 5.421899 V 7.382691 h -8.078609 v 2.655761 h 10e-4 v 0.863282 H 33.520789 L 28.629182,5.072143 v -0.01323 z m 7.140132,5.091307 V 32.77078 l -4.176755,-4.176265 -1.877442,1.877443 7.377439,7.37793 0.0047,-0.0048 0.0048,0.0048 7.37744,-7.37793 -1.877443,-1.877443 -4.176756,4.176265 V 10.150175 Z m 15.062012,22.94092 -7.19433,7.19434 H 15.700854 l -4.892088,-5.830082 v -0.01125 H 1.0099435 v 2.65577 h 8.551266 l 4.8911145,5.828609 v 0.01265 h 15.161131 v -0.06151 l 0.01219,0.01217 7.140622,-7.140623 h 2.138183 v 2.398933 2.109373 0.546387 h 8.078616 V 38.150124 H 41.55973 v -2.844246 -2.210447 h -5.884773 z" />
  </g>
</svg>
