<?xml version="1.0" encoding="UTF-8" standalone="no"?>
<!-- Created with Inkscape (http://www.inkscape.org/) -->

<svg
   width="48"
   height="48"
   viewBox="0 0 48 48"
   version="1.1"
   id="svg1"
   inkscape:version="1.3.2 (091e20e, 2023-11-25, custom)"
   sodipodi:docname="kilometers-desc.svg"
   xmlns:inkscape="http://www.inkscape.org/namespaces/inkscape"
   xmlns:sodipodi="http://sodipodi.sourceforge.net/DTD/sodipodi-0.dtd"
   xmlns="http://www.w3.org/2000/svg"
   xmlns:svg="http://www.w3.org/2000/svg">
  <sodipodi:namedview
     id="namedview1"
     pagecolor="#ffffff"
     bordercolor="#000000"
     borderopacity="0.25"
     inkscape:showpageshadow="2"
     inkscape:pageopacity="0.0"
     inkscape:pagecheckerboard="0"
     inkscape:deskcolor="#d1d1d1"
     inkscape:document-units="px"
     inkscape:zoom="6.0546018"
     inkscape:cx="17.589926"
     inkscape:cy="41.125743"
     inkscape:window-width="1920"
     inkscape:window-height="1018"
     inkscape:window-x="-6"
     inkscape:window-y="-6"
     inkscape:window-maximized="1"
     inkscape:current-layer="layer1" />
  <defs
     id="defs1" />
  <g
     inkscape:label="Layer 1"
     inkscape:groupmode="layer"
     id="layer1">
    <path
       id="path11-3-2-4-7-5-6"
       style="fill:#1e1e1e;fill-opacity:1;stroke:none;stroke-width:5.42295;stroke-dasharray:none;stroke-opacity:1"
       d="m 23.998776,2.267825 c -12.002399,5.5e-4 -21.7316315,9.730989 -21.7309515,21.733399 6e-4,12.001493 9.7294405,21.730365 21.7309515,21.730951 12.0024,6.8e-4 21.732814,-9.728561 21.7334,-21.730951 6.8e-4,-12.003308 -9.730102,-21.73408 -21.7334,-21.733399 z m 1.308114,2.705074 c 2.509691,0.169927 4.886816,0.821074 7.037102,1.868655 l -2.009764,3.481445 2.299323,1.327635 2.011229,-3.483402 c 2.05543,1.384602 3.826015,3.159241 5.207026,5.217289 l -3.318359,1.916012 1.327635,2.299805 3.313484,-1.913083 c 1.06423,2.194611 1.718126,4.624536 1.867181,7.189937 h -3.928224 v 2.655279 H 43.0105 c -0.196375,2.468579 -0.859531,4.804602 -1.906252,6.918945 l -3.493163,-2.016605 -1.327634,2.299805 3.480954,2.009764 C 36.329192,39.774779 30.55037,43.077765 23.999268,43.077387 17.486963,43.077075 11.74003,39.81145 8.2980995,34.830808 L 11.712648,32.859614 10.385013,30.55981 6.9450655,32.545649 c -1.056226,-2.103827 -1.734,-4.428567 -1.945795,-6.88818 h 3.883295 V 23.0022 h -3.9331 c 0.132652,-2.572961 0.775919,-5.010473 1.829103,-7.214845 l 3.3564475,1.9375 1.327635,-2.299323 -3.3735405,-1.948243 c 1.377515,-2.078636 3.1494425,-3.872693 5.2119215,-5.27246 l 2.061515,3.570803 2.299805,-1.327634 -2.064454,-3.57617 c 2.153821,-1.058589 4.536491,-1.719978 7.053713,-1.896 v 4.09473 h 2.655279 z m -1.195805,14.374999 a 4.6535435,4.6535435 0 0 0 -1.315427,0.157228 4.6535435,4.6535435 0 0 0 -3.446295,4.366696 L 8.1672425,26.86792 8.8542475,29.432858 20.036868,26.43677 a 4.6535435,4.6535435 0 0 0 5.167965,2.058104 4.6535435,4.6535435 0 0 0 3.290041,-5.698734 4.6535435,4.6535435 0 0 0 -4.383789,-3.448242 z m -0.185546,2.655278 a 1.9984252,1.9984252 0 0 1 2.004878,1.479978 1.9984252,1.9984252 0 0 1 -1.41308,2.447263 1.9984252,1.9984252 0 0 1 -2.447263,-1.41308 1.9984252,1.9984252 0 0 1 1.41308,-2.447272 1.9984252,1.9984252 0 0 1 0.442385,-0.0669 z" />
  </g>
</svg>
