<?xml version="1.0" encoding="UTF-8" standalone="no"?>
<!-- Created with Inkscape (http://www.inkscape.org/) -->

<svg
   width="48"
   height="48"
   viewBox="0 0 48 48"
   version="1.1"
   id="svg1"
   inkscape:version="1.3.2 (091e20e, 2023-11-25, custom)"
   sodipodi:docname="kilometers-asc.svg"
   xmlns:inkscape="http://www.inkscape.org/namespaces/inkscape"
   xmlns:sodipodi="http://sodipodi.sourceforge.net/DTD/sodipodi-0.dtd"
   xmlns="http://www.w3.org/2000/svg"
   xmlns:svg="http://www.w3.org/2000/svg">
  <sodipodi:namedview
     id="namedview1"
     pagecolor="#ffffff"
     bordercolor="#000000"
     borderopacity="0.25"
     inkscape:showpageshadow="2"
     inkscape:pageopacity="0.0"
     inkscape:pagecheckerboard="0"
     inkscape:deskcolor="#d1d1d1"
     inkscape:document-units="px"
     inkscape:zoom="6.0546018"
     inkscape:cx="17.589926"
     inkscape:cy="41.125743"
     inkscape:window-width="1920"
     inkscape:window-height="1018"
     inkscape:window-x="-6"
     inkscape:window-y="-6"
     inkscape:window-maximized="1"
     inkscape:current-layer="layer1" />
  <defs
     id="defs1" />
  <g
     inkscape:label="Layer 1"
     inkscape:groupmode="layer"
     id="layer1">
    <path
       id="path11-3-2-4-7-2"
       style="fill:#1e1e1e;fill-opacity:1;stroke:none;stroke-width:5.42295;stroke-dasharray:none;stroke-opacity:1"
       d="M 23.99878,2.2680655 C 11.996371,2.2686405 2.2671396,11.999054 2.2678196,24.001464 c 5.5e-4,12.001502 9.7294394,21.729882 21.7309604,21.73047 12.0024,7.5e-4 21.732812,-9.72807 21.7334,-21.73047 C 45.73293,11.998157 36.002078,2.2673855 23.99878,2.2680655 Z m 1.308104,2.704592 c 2.509701,0.169928 4.886816,0.821566 7.037112,1.869137 l -2.009764,3.4809635 2.299314,1.328126 2.011228,-3.4834015 c 2.055421,1.384593 3.826025,3.1587595 5.207036,5.2167965 l -3.318359,1.916013 1.327635,2.299805 3.313474,-1.913084 c 1.064334,2.194687 1.718107,4.624413 1.86719,7.189937 h -3.928223 v 2.65577 h 3.896968 c -0.196413,2.46841 -0.86007,4.804234 -1.906735,6.918454 l -3.49268,-2.016605 -1.327635,2.299805 3.480964,2.009764 c -3.435184,5.030683 -9.213818,8.333868 -15.765137,8.333498 -6.512164,-3.1e-4 -12.259219,-3.266125 -15.7011777,-8.246578 l 3.4145567,-1.971686 -1.327644,-2.299804 -3.4399368,1.98633 C 5.888872,30.442166 5.2111176,28.117199 4.9992656,25.657719 H 8.8825693 V 23.001958 H 4.9494606 c 0.132652,-2.57297 0.7759089,-5.010463 1.8291026,-7.214844 L 10.13501,17.725095 11.462645,15.42529 8.0891143,13.477539 C 9.4665533,11.398988 11.238188,9.6043365 13.300535,8.2045885 l 2.062015,3.5708025 2.299805,-1.327635 -2.064453,-3.5761695 c 2.153763,-1.05856 4.536066,-1.719959 7.053222,-1.896 v 4.094731 h 2.65576 z M 23.888919,19.347656 a 4.6535435,4.6535435 0 0 0 -4.383789,3.447751 4.6535435,4.6535435 0 0 0 3.290031,5.699707 4.6535435,4.6535435 0 0 0 5.168467,-2.058586 l 11.182129,2.996089 0.687496,-2.564939 -11.182129,-2.996098 a 4.6535435,4.6535435 0 0 0 -3.446778,-4.366696 4.6535435,4.6535435 0 0 0 -1.315427,-0.157228 z m 0.185546,2.655279 a 1.9984252,1.9984252 0 0 1 0.442385,0.0669 1.9984252,1.9984252 0 0 1 1.413571,2.447273 1.9984252,1.9984252 0 0 1 -2.447754,1.41308 1.9984252,1.9984252 0 0 1 -1.412598,-2.447754 1.9984252,1.9984252 0 0 1 2.004396,-1.479487 z" />
  </g>
</svg>
