<?xml version="1.0" encoding="UTF-8" standalone="no"?>
<!-- Created with Inkscape (http://www.inkscape.org/) -->

<svg
   width="48"
   height="48"
   viewBox="0 0 48 48"
   version="1.1"
   id="svg1"
   inkscape:version="1.3.2 (091e20e, 2023-11-25, custom)"
   sodipodi:docname="price-desc.svg"
   xmlns:inkscape="http://www.inkscape.org/namespaces/inkscape"
   xmlns:sodipodi="http://sodipodi.sourceforge.net/DTD/sodipodi-0.dtd"
   xmlns="http://www.w3.org/2000/svg"
   xmlns:svg="http://www.w3.org/2000/svg">
  <sodipodi:namedview
     id="namedview1"
     pagecolor="#ffffff"
     bordercolor="#000000"
     borderopacity="0.25"
     inkscape:showpageshadow="2"
     inkscape:pageopacity="0.0"
     inkscape:pagecheckerboard="0"
     inkscape:deskcolor="#d1d1d1"
     inkscape:document-units="px"
     inkscape:zoom="6.0546018"
     inkscape:cx="17.589926"
     inkscape:cy="41.125743"
     inkscape:window-width="1920"
     inkscape:window-height="1018"
     inkscape:window-x="-6"
     inkscape:window-y="-6"
     inkscape:window-maximized="1"
     inkscape:current-layer="layer1" />
  <defs
     id="defs1" />
  <g
     inkscape:label="Layer 1"
     inkscape:groupmode="layer"
     id="layer1">
    <path
       id="rect5-9-0-1-1-8-7-9-7-4-7-8-4-9-8-8-0-8-2-4-2-9-7-6-5-5-9-3-6"
       style="fill:#1e1e1e;fill-opacity:1;fill-rule:evenodd;stroke-width:0.0948305"
       d="M 14.02466,7.6721005 V 35.248762 l -4.1762745,-4.176264 -1.877924,1.877433 7.3774295,7.377968 0.0047,-0.0048 0.0047,0.0048 7.37744,-7.377968 -1.877433,-1.877433 -4.176766,4.176755 V 7.6721005 Z m 19.262694,0.06246 c -3.679532,1.79e-4 -6.668212,2.9494665 -6.737793,6.6123025 h -0.0038 v 0.129392 h -2.65576 v 2.65576 h 2.65576 v 1.860841 h -2.65576 v 2.655761 h 2.65576 v 0.129402 h 0.0038 c 0.06964,3.663099 3.058979,6.612519 6.738775,6.612302 3.722947,-1.79e-4 6.740882,-3.018898 6.741202,-6.741704 h -2.655269 c -1.42e-4,2.256677 -1.82966,4.086318 -4.086425,4.086432 -2.250538,1.22e-4 -4.075984,-1.819342 -4.086425,-4.067386 v -0.01909 h 4.085935 v -2.655761 h -4.085935 v -1.860841 h 4.085935 v -2.655761 h -4.085935 c 1.42e-4,-2.256671 1.82966,-4.086312 4.086425,-4.086426 2.256926,-1.32e-4 4.086784,1.829585 4.086917,4.086426 h 2.654777 C 40.029228,10.753143 37.010576,7.7343025 33.287354,7.7345195 Z M 26.54614,31.672054 v 2.655761 h 6.741695 v -2.655761 z m 0,6.000018 v 2.655781 h 3.369147 v -2.655781 z" />
  </g>
</svg>
