<?xml version="1.0" encoding="UTF-8" standalone="no"?>
<!-- Created with Inkscape (http://www.inkscape.org/) -->

<svg
   width="48"
   height="48"
   viewBox="0 0 48 48"
   version="1.1"
   id="svg1"
   inkscape:version="1.3.2 (091e20e, 2023-11-25, custom)"
   sodipodi:docname="price-asc.svg"
   xmlns:inkscape="http://www.inkscape.org/namespaces/inkscape"
   xmlns:sodipodi="http://sodipodi.sourceforge.net/DTD/sodipodi-0.dtd"
   xmlns="http://www.w3.org/2000/svg"
   xmlns:svg="http://www.w3.org/2000/svg">
  <sodipodi:namedview
     id="namedview1"
     pagecolor="#ffffff"
     bordercolor="#000000"
     borderopacity="0.25"
     inkscape:showpageshadow="2"
     inkscape:pageopacity="0.0"
     inkscape:pagecheckerboard="0"
     inkscape:deskcolor="#d1d1d1"
     inkscape:document-units="px"
     inkscape:zoom="6.0546018"
     inkscape:cx="17.589926"
     inkscape:cy="41.125743"
     inkscape:window-width="1920"
     inkscape:window-height="1018"
     inkscape:window-x="-6"
     inkscape:window-y="-6"
     inkscape:window-maximized="1"
     inkscape:current-layer="layer1" />
  <defs
     id="defs1" />
  <g
     inkscape:label="Layer 1"
     inkscape:groupmode="layer"
     id="layer1">
    <path
       id="rect5-9-0-1-1-8-7-9-7-4-7-8-4-9-8-8-0-8-2-4-2-9-7-6-5-5-9-3-2-2"
       style="fill:#1e1e1e;fill-opacity:1;fill-rule:evenodd;stroke-width:0.189707"
       d="m 15.332278,7.6721215 -7.3779315,7.3774395 1.877925,1.877924 4.1762735,-4.176264 v 27.576657 h 2.65576 V 12.751221 l 4.176274,4.176264 1.877925,-1.877433 -7.37744,-7.3779305 -0.0048,0.0047 z m 11.229978,0 V 10.327391 H 40.045653 V 7.6721215 Z m 0,5.9999995 v 2.655761 h 6.741704 v -2.655761 z m 6.741213,6 c -3.679531,1.71e-4 -6.668211,2.949468 -6.737792,6.612303 h -0.0038 v 0.129392 h -2.655269 v 2.655279 h 2.655269 v 1.861323 h -2.655269 v 2.65576 h 2.655269 v 0.129402 h 0.0038 c 0.06964,3.663099 3.05898,6.612508 6.738766,6.612298 3.722956,-1.78e-4 6.740891,-3.018893 6.74121,-6.7417 h -2.655268 c -1.41e-4,2.256681 -1.829669,4.086308 -4.086424,4.086422 -2.250529,1.32e-4 -4.075967,-1.819348 -4.086436,-4.067373 v -0.01909 h 4.085943 v -2.65576 h -4.085943 v -1.861322 h 4.085943 v -2.655279 h -4.085943 c 1.41e-4,-2.256681 1.82967,-4.086312 4.086435,-4.086426 2.256917,-1.32e-4 4.086774,1.829575 4.086906,4.086426 h 2.654787 c -3.09e-4,-3.723071 -3.018973,-6.741912 -6.742185,-6.741695 z" />
  </g>
</svg>
