<?xml version="1.0" encoding="UTF-8" standalone="no"?>
<!-- Created with Inkscape (http://www.inkscape.org/) -->

<svg
   width="48"
   height="48"
   viewBox="0 0 48 48"
   version="1.1"
   id="svg1"
   inkscape:version="1.3.2 (091e20e, 2023-11-25, custom)"
   sodipodi:docname="year-desc.svg"
   xmlns:inkscape="http://www.inkscape.org/namespaces/inkscape"
   xmlns:sodipodi="http://sodipodi.sourceforge.net/DTD/sodipodi-0.dtd"
   xmlns="http://www.w3.org/2000/svg"
   xmlns:svg="http://www.w3.org/2000/svg">
  <sodipodi:namedview
     id="namedview1"
     pagecolor="#ffffff"
     bordercolor="#000000"
     borderopacity="0.25"
     inkscape:showpageshadow="2"
     inkscape:pageopacity="0.0"
     inkscape:pagecheckerboard="0"
     inkscape:deskcolor="#d1d1d1"
     inkscape:document-units="px"
     inkscape:zoom="6.0546018"
     inkscape:cx="17.589926"
     inkscape:cy="41.125743"
     inkscape:window-width="1920"
     inkscape:window-height="1018"
     inkscape:window-x="-6"
     inkscape:window-y="-6"
     inkscape:window-maximized="1"
     inkscape:current-layer="layer1" />
  <defs
     id="defs1" />
  <g
     inkscape:label="Layer 1"
     inkscape:groupmode="layer"
     id="layer1">
    <path
       id="rect5-9-0-1-1-8-7-9-7-4-7-8-4-9-8-7-5-6-8"
       style="fill:#1e1e1e;fill-opacity:1;fill-rule:evenodd;stroke-width:0.315762"
       d="M 13.458957,4.062844 V 6.594097 H 7.9648185 v -0.01852 h -2.65527 v 0.01852 2.655761 7.406731 2.65577 21.969232 2.649903 0.0057 H 42.665502 v -0.0057 h 0.02495 V 6.57554 H 40.034677 V 6.59406 H 34.364753 V 4.062806 H 31.708992 V 6.59406 H 16.114756 V 4.062806 Z M 7.9648185,9.249858 h 5.4941385 v 2.481931 h 2.655771 V 9.249858 h 15.594236 v 2.481931 h 2.655761 V 9.249858 h 5.669924 v 7.406731 H 7.9648185 Z m 0,10.062501 H 40.034649 V 41.281591 H 7.9648185 Z m 3.6948285,3.937984 v 2.655761 h 2.655269 v -2.655761 z m 5.499997,0 v 2.655761 h 2.655279 v -2.655761 z m 5.500488,0 v 2.655761 h 2.654788 v -2.655761 z m 5.499997,0 v 2.655761 h 2.654788 v -2.655761 z m 5.500007,0 v 2.655761 h 2.655269 V 23.250343 Z M 11.659647,28.75034 v 2.655761 h 2.655269 V 28.75034 Z m 5.499997,0 v 2.655761 h 2.655279 V 28.75034 Z m 5.500488,0 v 2.655761 H 25.31492 V 28.75034 Z m 5.499997,0 v 2.655761 h 2.654788 V 28.75034 Z m 5.500007,0 v 2.655761 h 2.655269 V 28.75034 Z m -22.000489,5.500007 v 2.65576 h 2.655269 v -2.65576 z m 5.499997,0 v 2.65576 h 2.655279 v -2.65576 z m 5.500488,0 v 2.65576 h 2.654788 v -2.65576 z m 5.499997,0 v 2.65576 h 2.654788 v -2.65576 z m 5.500007,0 v 2.65576 h 2.655269 v -2.65576 z" />
  </g>
</svg>
