<?xml version="1.0" encoding="UTF-8"?>
<!-- Created with Inkscape (http://www.inkscape.org/) -->
<svg width="24" height="24" version="1.1" viewBox="0 0 24 24" xmlns="http://www.w3.org/2000/svg">
 <path d="m9.3754 4a2.1001 2.1001 0 0 0-2.0996 2.0996h-2.4512a2.1001 2.1001 0 0 0-2.0996 2.0996v7.7012a2.1001 2.1001 0 0 0 2.0996 2.0996h13.65a2.1001 2.1001 0 0 0 2.0996-2.0996v-7.7012a2.1001 2.1001 0 0 0-2.0996-2.0996h-2.8008a2.1001 2.1001 0 0 0-2.0996-2.0996h-2.0996zm0 1.4004h4.1992a0.70003 0.70003 0 0 1 0.69922 0.69922v0.69922c4.34e-4 0.38644 0.31474 0.70074 0.70117 0.70117h3.5a0.70003 0.70003 0 0 1 0.69922 0.69922v7.7012a0.70003 0.70003 0 0 1-0.69922 0.69922h-13.65a0.70003 0.70003 0 0 1-0.69922-0.69922v-7.7012a0.70003 0.70003 0 0 1 0.69922-0.69922h3.25v-0.00781c0.33958-0.048368 0.59921-0.3405 0.59961-0.69336-1.4e-5 -0.012076 6.17e-4 -0.02323 0-0.035156v-0.66406h2e-3a0.70003 0.70003 0 0 1 0.69917-0.69922zm2.0996 2.7988c-1.9331 9.5e-5 -3.5001 1.567-3.5 3.5 9.9e-5 1.9329 1.5671 3.4999 3.5 3.5 1.933 9.5e-5 3.4999-1.567 3.5-3.5 1.12e-4 -1.9332-1.5668-3.5001-3.5-3.5zm5.2148 0.35156c-0.3697 0.019124-0.66364 0.32486-0.66406 0.69922 4.34e-4 0.38644 0.31278 0.69879 0.69922 0.69922h0.69922c0.38643-4.32e-4 0.70074-0.31278 0.70117-0.69922-4.35e-4 -0.38644-0.31474-0.69879-0.70117-0.69922h-0.69922c-0.01208 1.4e-5 -0.02323-6.17e-4 -0.03516 0zm-5.2148 1.0488c1.1599-4.7e-5 2.0997 0.93971 2.0996 2.0996-5.6e-5 1.1598-0.93978 2.0997-2.0996 2.0996-1.1597-4.7e-5 -2.0995-0.93985-2.0996-2.0996-6.6e-5 -1.1598 0.93977-2.0996 2.0996-2.0996z" fill="#f2f2f2" stroke-width="0"/>
</svg>
