<?xml version="1.0" encoding="UTF-8"?>
<!-- Created with Inkscape (http://www.inkscape.org/) -->
<svg width="24" height="24" version="1.1" viewBox="0 0 24 24" xml:space="preserve" xmlns="http://www.w3.org/2000/svg"><path d="m5.6211 4.5684a1.05 1.05 0 0 0-0.74414 0.30664 1.05 1.05 0 0 0 0 1.4863l5.6387 5.6387-5.6055 5.6035 0.0039063 0.003906a1.05 1.05 0 0 0-0.037109 0.03125 1.05 1.05 0 0 0 0 1.4863 1.05 1.05 0 0 0 1.4844-0.001953 1.05 1.05 0 0 0 0.035156-0.033203 1.05 1.05 0 0 0 0-0.001953l5.6035-5.6035 5.6035 5.6035 0.003906-0.001953a1.05 1.05 0 0 0 0.03125 0.037109 1.05 1.05 0 0 0 1.4863 0 1.05 1.05 0 0 0-0.001953-1.4844 1.05 1.05 0 0 0-0.033203-0.035156l-5.6055-5.6035 5.6387-5.6387a1.05 1.05 0 0 0 0.001953-1.4844 1.05 1.05 0 0 0-1.4863 0l-5.6387 5.6367-5.6367-5.6367a1.05 1.05 0 0 0-0.74219-0.30859z" fill="#111" fill-rule="evenodd" stroke-width=".19492"/></svg>
