<?xml version="1.0" encoding="UTF-8"?>
<!-- Created with Inkscape (http://www.inkscape.org/) -->
<svg width="32" height="32" version="1.1" viewBox="0 0 32 32" xmlns="http://www.w3.org/2000/svg">
 <path d="m16 0a16 16 0 0 0-16 16 16 16 0 0 0 16 16 16 16 0 0 0 16-16 16 16 0 0 0-16-16zm-6.3789 8.5684a1.05 1.05 0 0 1 0.74219 0.30859l5.6367 5.6367 5.6387-5.6367a1.05 1.05 0 0 1 1.4863 0 1.05 1.05 0 0 1-0.001953 1.4844l-5.6387 5.6387 5.6055 5.6035a1.05 1.05 0 0 1 0.033203 0.035156 1.05 1.05 0 0 1 0.001953 1.4844 1.05 1.05 0 0 1-1.4863 0 1.05 1.05 0 0 1-0.03125-0.037109l-0.003906 0.001953-5.6035-5.6035-5.6035 5.6035a1.05 1.05 0 0 0 0 0.001953 1.05 1.05 0 0 1-0.035156 0.033203 1.05 1.05 0 0 1-1.4844 0.001953 1.05 1.05 0 0 1 0-1.4863 1.05 1.05 0 0 1 0.037109-0.03125l-0.0039063-0.003906 5.6055-5.6035-5.6387-5.6387a1.05 1.05 0 0 1 0-1.4863 1.05 1.05 0 0 1 0.74414-0.30664z" fill="#06090b" stroke-width="0"/>
</svg>
