<?xml version="1.0" encoding="UTF-8"?>
<!-- Created with Inkscape (http://www.inkscape.org/) -->
<svg width="48" height="48" version="1.1" viewBox="0 0 48 48" xmlns="http://www.w3.org/2000/svg">
 <g fill="#111">
  <rect transform="matrix(0 .47244 .47244 0 -428.22 -759.87)" x="1675.2" y="959.41" width="2.9633" height="24.472" fill-rule="evenodd"/>
  <rect transform="matrix(0 .47244 .47244 0 -428.22 -759.87)" x="1675.2" y="931.18" width="2.9633" height="16.547" fill-rule="evenodd"/>
  <path transform="matrix(.47244 0 0 .47244 -428.22 -759.87)" d="m953.67 1669.3c4.0915 2e-4 7.4086 3.3169 7.4083 7.4083-2.1e-4 4.0911-3.3172 7.4081-7.4083 7.4083-4.0914 2e-4 -7.4081-3.3169-7.4083-7.4083-2.4e-4 -4.0917 3.3166-7.4085 7.4083-7.4083zm0 2.9641c-2.455-1e-4 -4.4443 1.9892-4.4442 4.4442 1.2e-4 2.4549 1.9893 4.4443 4.4442 4.4442 2.4547-1e-4 4.444-1.9895 4.4442-4.4442 1.4e-4 -2.4548-1.9893-4.4441-4.4442-4.4442z"/>
  <rect transform="matrix(0 .47244 .47244 0 -428.84 -761.12)" x="1660.4" y="977.3" width="2.9633" height="7.902" fill-rule="evenodd"/>
  <rect transform="matrix(0 .47244 .47244 0 -428.84 -761.12)" x="1660.4" y="932.5" width="2.9633" height="32.392" fill-rule="evenodd"/>
  <path transform="matrix(.47244 0 0 .47244 -428.84 -761.12)" d="m970.96 1654.4c4.0915 2e-4 7.4086 3.3169 7.4083 7.4083-2.1e-4 4.0911-3.3172 7.4081-7.4083 7.4083-4.0914 2e-4 -7.4081-3.3169-7.4083-7.4083-2.4e-4 -4.0917 3.3166-7.4085 7.4083-7.4083zm0 2.9641c-2.455-1e-4 -4.4443 1.9892-4.4442 4.4442 1.2e-4 2.4549 1.9893 4.4443 4.4442 4.4442 2.4547-1e-4 4.444-1.9895 4.4442-4.4442 1.4e-4 -2.4548-1.9893-4.4441-4.4442-4.4442z"/>
  <rect transform="matrix(0 .47244 -.47244 0 -428.78 -761.87)" x="1644.5" y="-940.28" width="2.9633" height="7.902" fill-rule="evenodd"/>
  <rect transform="matrix(0 .47244 -.47244 0 -428.78 -761.87)" x="1644.5" y="-985.09" width="2.9633" height="32.392" fill-rule="evenodd"/>
  <path transform="matrix(.47244 0 0 .47244 -428.78 -761.87)" d="m946.97 1638.5c-4.0915 2e-4 -7.4086 3.3169-7.4083 7.4083 2.1e-4 4.0911 3.3172 7.4081 7.4083 7.4083 4.0914 2e-4 7.4081-3.3169 7.4083-7.4083 2.4e-4 -4.0917-3.3166-7.4085-7.4083-7.4083zm0 2.9641c2.455-1e-4 4.4443 1.9892 4.4442 4.4442-1.2e-4 2.4549-1.9893 4.4443-4.4442 4.4442-2.4547-1e-4 -4.444-1.9895-4.4442-4.4442-1.4e-4 -2.4548 1.9893-4.4441 4.4442-4.4442z"/>
  <path transform="matrix(.47244 0 0 .47244 -428.33 -760.24)" d="m957.42 1609.2c-28.056 0-50.798 22.748-50.796 50.804 9.8e-4 28.054 22.742 50.794 50.796 50.796 28.056 0 50.803-22.74 50.804-50.796 0-28.058-22.746-50.806-50.804-50.804zm4e-3 5.9283c24.785 0 44.876 20.091 44.876 44.876-1e-3 24.783-20.093 44.872-44.876 44.872-24.781 0-44.871-20.091-44.872-44.872-1e-3 -24.783 20.089-44.876 44.872-44.876z"/>
 </g>
</svg>
