<?xml version="1.0" encoding="UTF-8"?>
<!-- Created with Inkscape (http://www.inkscape.org/) -->
<svg width="24" height="24" version="1.1" viewBox="0 0 24 24" xml:space="preserve" xmlns="http://www.w3.org/2000/svg"><path transform="translate(-16.014 -1.925)" d="m30.823 6.925a1.05 1.05 0 0 0-1.0508 1.0508v9.3633l-0.92969-0.92773a1.05 1.05 0 0 0-0.035156-0.037109 1.05 1.05 0 0 0-1.4844 0 1.05 1.05 0 0 0 0 1.4863l2.7578 2.7578a1.05 1.05 0 0 0 0.81641 0.30469 1.05 1.05 0 0 0 0.66797-0.30469l2.7578-2.7578a1.05 1.05 0 0 0 0-1.4863 1.05 1.05 0 0 0-1.4844 0l-0.9668 0.9668v-9.3652a1.05 1.05 0 0 0-1.0488-1.0508zm-7.6914 0.0019531a1.05 1.05 0 0 0-0.55469 0.20703 1.05 1.05 0 0 0-0.11133 0.097656l-2.7578 2.7578a1.05 1.05 0 0 0 0 1.4863 1.05 1.05 0 0 0 1.4844 0 1.05 1.05 0 0 0 0.035157-0.037109l0.92969-0.92774v9.3633a1.05 1.05 0 0 0 1.0508 1.0508 1.05 1.05 0 0 0 1.0488-1.0508 1.05 1.05 0 0 0 0-0.050782v-9.3125l0.96484 0.96484a1.05 1.05 0 0 0 1.4863 0 1.05 1.05 0 0 0 0-1.4863l-2.7578-2.7578a1.05 1.05 0 0 0-0.81836-0.30469z" fill="#111" fill-rule="evenodd" stroke-width=".15849"/></svg>
