<?xml version="1.0" encoding="UTF-8"?>
<svg xmlns="http://www.w3.org/2000/svg" version="1.1" viewBox="0 0 24 24">
  <defs>
    <style>
      .cls-1 {
        fill: #475467;
      }

      .cls-2 {
        fill: none;
        stroke: #475467;
        stroke-miterlimit: 10;
        stroke-width: 1.8px;
      }
    </style>
  </defs>
  <!-- Generator: Adobe Illustrator 28.6.0, SVG Export Plug-In . SVG Version: 1.2.0 Build 709)  -->
  <g>
    <g id="Layer_1">
      <g>
        <g>
          <polygon class="cls-2" points="20.7 2.8 3.3 2.8 1.8 4.4 1.8 21.5 3.4 23.2 20.6 23.2 22.2 21.5 22.2 4.4 20.7 2.8"/>
          <line class="cls-2" x1="22.1" y1="7.8" x2="1.8" y2="7.8"/>
          <line class="cls-2" x1="6.2" x2="6.2" y2="2.8"/>
          <line class="cls-2" x1="17.4" x2="17.4" y2="2.8"/>
        </g>
        <g>
          <rect class="cls-1" x="16.2" y="9.7" width="4.2" height="3.3"/>
          <rect class="cls-1" x="10" y="9.8" width="4" height="3.2"/>
          <rect class="cls-1" x="16.6" y="17.5" width="3.3" height="4.2" transform="translate(37.9 1.3) rotate(90)"/>
          <rect class="cls-1" x="16.7" y="13.5" width="3.2" height="4" transform="translate(33.8 -2.8) rotate(90)"/>
          <rect class="cls-1" x="10.4" y="17.5" width="3.3" height="4.2" transform="translate(31.6 7.6) rotate(90)"/>
          <rect class="cls-1" x="10.4" y="13.5" width="3.2" height="4" transform="translate(27.5 3.5) rotate(90)"/>
          <rect class="cls-1" x="4.1" y="17.5" width="3.3" height="4.2" transform="translate(25.3 13.9) rotate(90)"/>
          <rect class="cls-1" x="4.1" y="13.5" width="3.2" height="4" transform="translate(21.2 9.8) rotate(90)"/>
        </g>
      </g>
    </g>
  </g>
</svg>