<?xml version="1.0" encoding="UTF-8"?>
<svg xmlns="http://www.w3.org/2000/svg" version="1.1" viewBox="0 0 24 24">
  <defs>
    <style>
      .cls-1 {
        fill: #475467;
      }

      .cls-2 {
        fill: none;
        stroke: #475467;
        stroke-miterlimit: 10;
        stroke-width: 1.8px;
      }
    </style>
  </defs>
  <!-- Generator: Adobe Illustrator 28.6.0, SVG Export Plug-In . SVG Version: 1.2.0 Build 709)  -->
  <g>
    <g id="Layer_1">
      <g>
        <polygon class="cls-2" points="22.3 11.8 18.2 11.8 18.2 2.4 5.8 2.4 5.8 11.8 1.7 11.8 12 22.6 22.3 11.8"/>
        <path class="cls-1" d="M8.6,10.6h4.2v.9h-4.2v-.9ZM8.6,12h4.2v.9h-4.2v-.9ZM10.9,15.8c-.4-.3-.8-.7-1-1.2-.2-.5-.4-1.1-.4-1.7v-2.4c0-.7.1-1.2.4-1.7.2-.5.6-.9,1-1.2.4-.3,1-.4,1.5-.4s1,.1,1.4.4c.4.2.8.6,1.1,1s.4.9.5,1.5h-1.8c0-.2-.2-.5-.3-.6s-.3-.3-.4-.4c-.2-.1-.3-.2-.5-.2s-.5,0-.6.2c-.2.1-.3.3-.4.6-.1.3-.2.6-.2.9v2.4c0,.3,0,.6.2.9.1.3.2.5.4.6.2.1.4.2.6.2s.3,0,.5-.1c.2,0,.3-.2.4-.4s.2-.4.3-.6h1.8c0,.5-.2,1-.5,1.4-.3.4-.6.7-1.1,1-.4.2-.9.3-1.4.3s-1.1-.1-1.5-.4Z"/>
      </g>
    </g>
  </g>
</svg>