<?xml version="1.0" encoding="UTF-8"?>
<!-- Created with Inkscape (http://www.inkscape.org/) -->
<svg width="24" height="24" version="1.1" viewBox="0 0 24 24" xmlns="http://www.w3.org/2000/svg">
 <g>
  <circle cx="12" cy="12" r="12" fill="#ffe680" stroke-width="0"/>
  <rect transform="translate(-20 -15)" x="33.4" y="21.4" width="5.6" height="4.9" fill="#f2f2f2" fill-rule="evenodd"/>
  <rect transform="translate(-20 -15)" x="33.4" y="27.7" width="7" height="4.9" fill="#f2f2f2" fill-rule="evenodd"/>
 </g>
 <path d="m4.7461 6.6408v10.718h3.6108c0.93495 0 1.9183-0.16069 2.7242-0.86772 0.74151-0.65882 0.91883-1.5426 0.91883-2.1693 0-0.56241-0.12896-1.398-0.77375-2.0086-0.27404-0.2571-0.69315-0.56241-1.4024-0.67489 0.29016-0.16069 1.209-0.7231 1.209-2.105 0-0.89986-0.37075-1.7354-0.99943-2.2175-0.87047-0.67489-2.0311-0.67489-2.6275-0.67489zm2.0956 1.7033h0.61255c0.85435 0 1.612 0.36958 1.612 1.3498 0 1.3659-1.3057 1.398-1.6281 1.398h-0.59643zm0 4.3547h0.77375c0.45135 0 0.98331 0 1.4347 0.2089 0.67703 0.30531 0.78987 0.88379 0.78987 1.2212 0 0.41779-0.14508 0.93199-0.66091 1.2373-0.46747 0.27317-1.0478 0.28924-1.4347 0.28924h-0.90271z" stroke-width="1.7352" aria-label="B"/>
</svg>
