<?xml version="1.0" encoding="UTF-8"?>
<!-- Created with Inkscape (http://www.inkscape.org/) -->
<svg width="24" height="24" version="1.1" viewBox="0 0 24 24" xmlns="http://www.w3.org/2000/svg">
 <g>
  <circle cx="12" cy="12" r="12" fill="#92c46f" stroke-width="0"/>
  <rect transform="translate(-20 -15)" x="33.4" y="21.4" width="5.6" height="4.9" fill="#f2f2f2" fill-rule="evenodd"/>
  <rect transform="translate(-20 -15)" x="33.4" y="27.7" width="7" height="4.9" fill="#f2f2f2" fill-rule="evenodd"/>
 </g>
 <path d="m12 14.531c-0.62867 0.73917-1.5153 1.173-2.5147 1.173-1.8054 0-3.6431-1.2855-3.6431-3.6637 0-1.9765 1.4024-3.744 3.5625-3.744 0.38687 0 1.612 0.080344 2.5953 1.2052v-2.4425c-0.98331-0.53027-1.886-0.65882-2.6436-0.65882-1.5314 0-2.8693 0.40172-3.9493 1.4141-0.91883 0.85165-1.7248 2.2496-1.7248 4.194 0 1.5748 0.48359 2.9085 1.7248 4.0976 0.90271 0.85165 2.0472 1.4944 3.9332 1.4944 1.1606 0 2.015-0.28924 2.6598-0.62668z" stroke-width="1.7352" aria-label="C"/>
</svg>
