<?xml version="1.0" encoding="UTF-8"?>
<!-- Created with Inkscape (http://www.inkscape.org/) -->
<svg width="24" height="24" version="1.1" viewBox="0 0 24 24" xmlns="http://www.w3.org/2000/svg">
 <g>
  <circle cx="12" cy="12" r="12" fill="#7ab6ce" stroke-width="0"/>
  <path d="m11.999 0c-6.6275 2.8e-4 -12 5.3732-11.999 12.001 3.25e-4 6.627 5.3723 11.999 11.999 11.999h7.1e-4v-24z" fill="#92c46f"/>
  <rect transform="translate(-20 -15)" x="33.4" y="21.4" width="5.6" height="4.9" fill="#f2f2f2" fill-rule="evenodd"/>
  <rect transform="translate(-20 -15)" x="33.4" y="27.7" width="7" height="4.9" fill="#f2f2f2" fill-rule="evenodd"/>
 </g>
 <g transform="scale(1.0016 .99842)" stroke-width="1.7352" aria-label="ECO">
  <path d="m9.4932 4.2501h-2.5267v4.4467h2.5267v-0.98h-1.3733v-0.76667h1.3v-0.98h-1.3v-0.74h1.3733z"/>
  <path d="m9.8266 12.706c-0.40667 0.44667-0.83333 0.46667-1.0067 0.46667-0.32667 0-0.63333-0.12667-0.82667-0.30667-0.23333-0.22-0.36-0.56-0.36-0.86667 0-0.31333 0.11333-0.66 0.38667-0.91333 0.21333-0.19333 0.46667-0.29333 0.8-0.29333 0.19333 0 0.63333 0.02667 1.0067 0.48667v-1.38c-0.48-0.19333-0.82667-0.22667-1.04-0.22667-0.69333 0-1.2867 0.29333-1.68 0.69333-0.4 0.40667-0.67333 1.0067-0.67333 1.64 0 0.58 0.24 1.1867 0.67333 1.62 0.36667 0.36 0.94667 0.66667 1.72 0.66667 0.28667 0 0.54-0.05333 1-0.22z"/>
  <path d="m10.583 17.468c0-0.59333-0.22667-1.22-0.7-1.6667-0.45333-0.43333-1.0933-0.66-1.7533-0.66-0.66 0-1.3 0.22667-1.7533 0.66-0.47333 0.44667-0.7 1.0733-0.7 1.6667 0 0.58667 0.22667 1.2067 0.7 1.66 0.45333 0.43333 1.0933 0.66 1.7533 0.66 0.66 0 1.3-0.22667 1.7533-0.66 0.47333-0.45333 0.7-1.0733 0.7-1.66zm-2.4533-1.2067c0.30667 0 0.64667 0.12 0.89333 0.35333 0.20667 0.2 0.36 0.50667 0.36 0.85333 0 0.34-0.15333 0.64667-0.36 0.85333s-0.5 0.34667-0.89333 0.34667c-0.38667 0-0.68667-0.14667-0.9-0.35333-0.16667-0.16-0.35333-0.43333-0.35333-0.82667 0-0.31333 0.11333-0.64 0.35333-0.87333 0.24-0.24 0.58-0.35333 0.9-0.35333z"/>
 </g>
</svg>
