<?xml version="1.0" encoding="UTF-8" standalone="no"?>
<!-- Created with Inkscape (http://www.inkscape.org/) -->

<svg
   width="90"
   height="90"
   viewBox="0 0 90 90"
   version="1.1"
   id="svg1"
   inkscape:version="1.3.2 (091e20e, 2023-11-25, custom)"
   sodipodi:docname="body-type.svg"
   xmlns:inkscape="http://www.inkscape.org/namespaces/inkscape"
   xmlns:sodipodi="http://sodipodi.sourceforge.net/DTD/sodipodi-0.dtd"
   xmlns="http://www.w3.org/2000/svg"
   xmlns:svg="http://www.w3.org/2000/svg">
  <sodipodi:namedview
     id="namedview1"
     pagecolor="#ffffff"
     bordercolor="#000000"
     borderopacity="0.25"
     inkscape:showpageshadow="2"
     inkscape:pageopacity="0.0"
     inkscape:pagecheckerboard="0"
     inkscape:deskcolor="#d1d1d1"
     inkscape:document-units="px"
     inkscape:zoom="2.8198618"
     inkscape:cx="128.90703"
     inkscape:cy="222.35132"
     inkscape:window-width="1920"
     inkscape:window-height="1018"
     inkscape:window-x="-6"
     inkscape:window-y="-6"
     inkscape:window-maximized="1"
     inkscape:current-layer="g135" />
  <defs
     id="defs1" />
  <g
     inkscape:label="Layer 1"
     inkscape:groupmode="layer"
     id="layer1">
    <g
       id="g135"
       transform="matrix(0.9448819,0,0,0.9448819,-531.53019,540.59387)">
      <g
         id="g77-7-0"
         transform="matrix(1.0583304,0,0,1.0583347,78.266733,-370.12928)"
         style="fill:#ececec;fill-opacity:1">
        <g
           id="g72-0-2-8"
           transform="translate(-5.4306569,24.849881)"
           style="fill:#ececec;fill-opacity:1">
          <g
             id="g68-0-9-5-8-7"
             transform="translate(108.34109,-20.340304)"
             style="fill:#ececec;fill-opacity:1">
            <path
               id="path44-6-4-7-05-6-0-4-6-8-7-8-3"
               style="fill:#ececec;fill-opacity:1;stroke-width:0.930373"
               inkscape:transform-center-x="-0.1984375"
               inkscape:transform-center-y="-0.099218749"
               d="m 392.16827,-195.37474 a 22.5,22.5 0 0 0 -21.04729,14.71073 l -13.05709,31.5221 0.0227,0.009 a 30,30 0 0 0 -3.41839,13.75781 30,30 0 0 0 29.99145,29.99972 v 5.2e-4 h 37.48815 v -0.002 a 22.5,22.5 0 0 0 0.0207,0.002 22.5,22.5 0 0 0 22.48905,-22.34747 h 0.0109 v -37.51989 h -0.009 a 15,15 0 0 0 0.009,-0.13229 15,15 0 0 0 -9.72498,-14.03789 l -32.38355,-13.41314 a 22.5,22.5 0 0 0 -10.39162,-2.5492 z" />
          </g>
        </g>
      </g>
      <g
         id="g78"
         transform="translate(387.10898,-279.26698)">
        <path
           id="rect5-9-0-1-1-8-7-9-7-4-7-8-4-9-5-5"
           style="fill:#4d4d4d;fill-opacity:1;fill-rule:evenodd;stroke-width:0.22875"
           d="m 215.33246,-258.55649 a 17.5,17.5 0 0 0 -1.82572,0.11111 l 0.61598,2.77864 a 14.69,14.69 0 0 1 1.20974,-0.0796 h 0.005 3.89486 v -2.81017 h -3.89486 z m 6.71019,0 v 2.81017 h 2.51664 v 5.1e-4 h 2.60656 v -2.81068 h -2.51664 z m 7.93337,0 v 2.81017 h 3.89485 0.005 a 14.69,14.69 0 0 1 1.20974,0.0796 l 0.61598,-2.77813 a 17.5,17.5 0 0 0 -1.82572,-0.11162 h -0.005 z m -19.23139,0.63459 a 17.5,17.5 0 0 0 -5.73608,2.76779 l 1.81177,2.15904 a 14.69,14.69 0 0 1 4.53099,-2.1885 z m 27.71924,0 -0.60668,2.73833 a 14.69,14.69 0 0 1 4.53099,2.1885 l 1.81177,-2.15904 a 17.5,17.5 0 0 0 -5.73608,-2.76779 z m -35.57612,4.61264 a 17.5,17.5 0 0 0 -3.33468,4.7656 l 2.60087,1.07745 a 14.69,14.69 0 0 1 2.54196,-3.68815 z m 43.433,5.1e-4 -1.80815,2.15439 a 14.69,14.69 0 0 1 2.54196,3.68815 l 2.60087,-1.07694 a 17.5,17.5 0 0 0 -3.33468,-4.7656 z m -47.76504,7.39335 a 17.5,17.5 0 0 0 -0.71727,4.8302 h -0.002 v 0.6997 h -1.44798 v 11.83597 2.35592 h 6.36705 c 0.50397,3.44675 3.47134,6.09299 7.05797,6.09317 3.58689,2e-4 6.55493,-2.64619 7.059,-6.09317 h 16.46618 c 0.50397,3.44675 3.47133,6.09299 7.05797,6.09317 3.58689,2e-4 6.55492,-2.64619 7.059,-6.09317 h 5.36453 v -2.81016 -11.38173 h -1.36943 -0.0785 v -0.69919 h -0.002 a 17.5,17.5 0 0 0 -0.71727,-4.83071 l -2.58796,1.0728 a 14.69,14.69 0 0 1 0.49713,3.78685 v 0.67025 h -47.91542 v -0.67076 a 14.69,14.69 0 0 1 0.49713,-3.78685 z m 0.64286,8.34058 h 50.81085 v 8.57105 h -2.69855 c -0.78718,-3.08477 -3.5845,-5.36679 -6.9143,-5.3666 -3.32957,1.6e-4 -6.12574,2.28202 -6.91276,5.3666 h -16.75608 c -0.78719,-3.08477 -3.5845,-5.36679 -6.91431,-5.3666 -3.32957,1.6e-4 -6.12573,2.28203 -6.91275,5.3666 h -3.7021 z m 10.61537,6.01513 c 2.38875,-1.4e-4 4.32546,1.93607 4.32532,4.3248 -1.2e-4,2.38858 -1.93676,4.32493 -4.32532,4.3248 -2.38841,-1.2e-4 -4.32468,-1.93639 -4.3248,-4.3248 -1.3e-4,-2.38855 1.93621,-4.32468 4.3248,-4.3248 z m 30.58314,0 c 2.38875,-1.4e-4 4.32546,1.93607 4.32532,4.3248 -1.2e-4,2.38858 -1.93676,4.32493 -4.32532,4.3248 -2.3884,-1.2e-4 -4.32468,-1.93639 -4.3248,-4.3248 -1.3e-4,-2.38855 1.93622,-4.32468 4.3248,-4.3248 z" />
      </g>
    </g>
  </g>
</svg>
