<?xml version="1.0" encoding="UTF-8" standalone="no"?>
<!-- Created with Inkscape (http://www.inkscape.org/) -->

<svg
   width="90"
   height="90"
   viewBox="0 0 90 90"
   version="1.1"
   id="svg1"
   inkscape:version="1.3.2 (091e20e, 2023-11-25, custom)"
   sodipodi:docname="dimensions-widthsvg.svg"
   xmlns:inkscape="http://www.inkscape.org/namespaces/inkscape"
   xmlns:sodipodi="http://sodipodi.sourceforge.net/DTD/sodipodi-0.dtd"
   xmlns="http://www.w3.org/2000/svg"
   xmlns:svg="http://www.w3.org/2000/svg">
  <sodipodi:namedview
     id="namedview1"
     pagecolor="#ffffff"
     bordercolor="#000000"
     borderopacity="0.25"
     inkscape:showpageshadow="2"
     inkscape:pageopacity="0.0"
     inkscape:pagecheckerboard="0"
     inkscape:deskcolor="#d1d1d1"
     inkscape:document-units="px"
     inkscape:zoom="2.8198618"
     inkscape:cx="62.414406"
     inkscape:cy="19.859129"
     inkscape:window-width="1920"
     inkscape:window-height="1018"
     inkscape:window-x="-6"
     inkscape:window-y="-6"
     inkscape:window-maximized="1"
     inkscape:current-layer="g135" />
  <defs
     id="defs1" />
  <g
     inkscape:label="Layer 1"
     inkscape:groupmode="layer"
     id="layer1">
    <g
       id="g135"
       transform="matrix(0.9448819,0,0,0.9448819,-531.53019,540.59387)">
      <g
         id="g77-7-0"
         transform="matrix(1.0583304,0,0,1.0583347,78.266733,-370.12928)"
         style="fill:#ececec;fill-opacity:1">
        <g
           id="g72-0-2-8"
           transform="translate(-5.4306569,24.849881)"
           style="fill:#ececec;fill-opacity:1">
          <g
             id="g68-0-9-5-8-7"
             transform="translate(108.34109,-20.340304)"
             style="fill:#ececec;fill-opacity:1">
            <path
               id="path44-6-4-7-05-6-0-4-6-8-7-8-3"
               style="fill:#ececec;fill-opacity:1;stroke-width:0.930373"
               inkscape:transform-center-x="-0.1984375"
               inkscape:transform-center-y="-0.099218749"
               d="m 392.16827,-195.37474 a 22.5,22.5 0 0 0 -21.04729,14.71073 l -13.05709,31.5221 0.0227,0.009 a 30,30 0 0 0 -3.41839,13.75781 30,30 0 0 0 29.99145,29.99972 v 5.2e-4 h 37.48815 v -0.002 a 22.5,22.5 0 0 0 0.0207,0.002 22.5,22.5 0 0 0 22.48905,-22.34747 h 0.0109 v -37.51989 h -0.009 a 15,15 0 0 0 0.009,-0.13229 15,15 0 0 0 -9.72498,-14.03789 l -32.38355,-13.41314 a 22.5,22.5 0 0 0 -10.39162,-2.5492 z" />
          </g>
        </g>
      </g>
      <path
         id="rect5-9-0-2-9-4-1-3-6-3-1-5-5-4-7-1-6-5-3"
         style="fill:#4f4f4f;fill-opacity:1;fill-rule:evenodd;stroke-width:0.331928"
         d="m 594.93429,-545.64727 -5.9609,5.9609 v 0 0 l 5.9609,5.9609 1.987,-1.987 -2.5735,-2.5735 h 34.9953 v 4.2153 h 2.8096 v -11.2402 h -2.8096 v 4.2148 h -34.9943 l 2.573,-2.573 z m 12.1745,10.5963 v 0.039 a 13.5,13.5 0 0 0 -12.7548,13.4255 v 0 0.026 a 13.5,13.5 0 0 0 -5e-4,0.01 h 5e-4 v 2.0418 l -2.8107,2.8107 v 0 0 11.6867 h 1.8825 v 0.01 h 0.8449 v 6.0931 h 2.8107 5.3315 0.971 v -6.0931 h 12.9656 3.9636 v 6.0931 h 2.8101 5.9273 0.3752 v -6.0931 h 1.9038 v -0.01 h 0.8242 v -11.6867 0 0 l -2.8102,-2.8102 v -2.0779 h -10e-4 a 13.5,13.5 0 0 0 -12.2261,-13.4023 v -0.062 h -1.5855 z m 0.7338,2.8107 h 7.6873 0.3215 a 10.69,10.69 0 0 1 10.6805,10.6897 v 0.1034 h -11.0536 -18.3157 v -0.1127 a 10.69,10.69 0 0 1 10.68,-10.6804 z m -10.6118,13.6033 h 18.2475 10.9853 l -0.1121,0.1121 2.991,2.991 v 7.721 h -12.994 -21.9961 v -7.7215 l 2.9905,-2.9905 z m 3.159,1.3472 c -2.2451,10e-5 -4.065,1.8203 -4.0649,4.0654 10e-5,2.245 1.8199,4.0647 4.0649,4.0648 2.2451,10e-5 4.0653,-1.8197 4.0654,-4.0648 10e-5,-2.2452 -1.8201,-4.0656 -4.0654,-4.0654 z m 22.9143,0 c -2.2452,-2e-4 -4.0654,1.8202 -4.0653,4.0654 10e-5,2.2451 1.8203,4.0649 4.0653,4.0648 2.2449,-1e-4 4.0653,-1.8198 4.0654,-4.0648 10e-5,-2.2451 -1.8203,-4.0653 -4.0654,-4.0654 z m -22.9143,2.8101 c 0.6932,0 1.2553,0.5622 1.2552,1.2553 0,0.6932 -0.5621,1.2548 -1.2552,1.2547 -0.6931,0 -1.2547,-0.5616 -1.2547,-1.2547 -10e-5,-0.6931 0.5616,-1.2552 1.2547,-1.2553 z m 22.9143,0 c 0.6931,1e-4 1.2549,0.5622 1.2548,1.2553 0,0.6931 -0.5617,1.2547 -1.2548,1.2547 -0.693,1e-4 -1.2547,-0.5615 -1.2547,-1.2547 -10e-5,-0.6931 0.5616,-1.2553 1.2547,-1.2553 z m -26.2237,9.477 h 3.4923 v 3.283 h -3.4923 z m 26.0418,0 h 3.4923 v 3.283 h -3.4923 z" />
    </g>
  </g>
</svg>
