<?xml version="1.0" encoding="UTF-8" standalone="no"?>
<!-- Created with Inkscape (http://www.inkscape.org/) -->

<svg
   width="90"
   height="90"
   viewBox="0 0 90 90"
   version="1.1"
   id="svg1"
   inkscape:version="1.3.2 (091e20e, 2023-11-25, custom)"
   sodipodi:docname="weight.svg"
   xmlns:inkscape="http://www.inkscape.org/namespaces/inkscape"
   xmlns:sodipodi="http://sodipodi.sourceforge.net/DTD/sodipodi-0.dtd"
   xmlns="http://www.w3.org/2000/svg"
   xmlns:svg="http://www.w3.org/2000/svg">
  <sodipodi:namedview
     id="namedview1"
     pagecolor="#ffffff"
     bordercolor="#000000"
     borderopacity="0.25"
     inkscape:showpageshadow="2"
     inkscape:pageopacity="0.0"
     inkscape:pagecheckerboard="0"
     inkscape:deskcolor="#d1d1d1"
     inkscape:document-units="px"
     inkscape:zoom="2.8198618"
     inkscape:cx="62.59172"
     inkscape:cy="19.859129"
     inkscape:window-width="1920"
     inkscape:window-height="1018"
     inkscape:window-x="-6"
     inkscape:window-y="-6"
     inkscape:window-maximized="1"
     inkscape:current-layer="g135" />
  <defs
     id="defs1" />
  <g
     inkscape:label="Layer 1"
     inkscape:groupmode="layer"
     id="layer1">
    <g
       id="g135"
       transform="matrix(0.9448819,0,0,0.9448819,-531.53019,540.59387)">
      <g
         id="g77-7-0"
         transform="matrix(1.0583304,0,0,1.0583347,78.266733,-370.12928)"
         style="fill:#ececec;fill-opacity:1">
        <g
           id="g72-0-2-8"
           transform="translate(-5.4306569,24.849881)"
           style="fill:#ececec;fill-opacity:1">
          <g
             id="g68-0-9-5-8-7"
             transform="translate(108.34109,-20.340304)"
             style="fill:#ececec;fill-opacity:1">
            <path
               id="path44-6-4-7-05-6-0-4-6-8-7-8-3"
               style="fill:#ececec;fill-opacity:1;stroke-width:0.930373"
               inkscape:transform-center-x="-0.1984375"
               inkscape:transform-center-y="-0.099218749"
               d="m 392.16827,-195.37474 a 22.5,22.5 0 0 0 -21.04729,14.71073 l -13.05709,31.5221 0.0227,0.009 a 30,30 0 0 0 -3.41839,13.75781 30,30 0 0 0 29.99145,29.99972 v 5.2e-4 h 37.48815 v -0.002 a 22.5,22.5 0 0 0 0.0207,0.002 22.5,22.5 0 0 0 22.48905,-22.34747 h 0.0109 v -37.51989 h -0.009 a 15,15 0 0 0 0.009,-0.13229 15,15 0 0 0 -9.72498,-14.03789 l -32.38355,-13.41314 a 22.5,22.5 0 0 0 -10.39162,-2.5492 z" />
          </g>
        </g>
      </g>
      <path
         id="rect5-9-0-1-1-8-7-9-7-4-3-1-1-9-9-5-8-1-1-8-3"
         style="fill:#4d4d4d;fill-opacity:1;fill-rule:evenodd;stroke-width:0.237333"
         d="m 612.27701,-548.9878 c -5.937,2.5e-4 -10.74942,4.81488 -10.74922,10.7518 10e-5,2.44081 0.81522,4.69047 2.18591,6.49469 -3.33659,-5e-5 -5.34073,7.5e-4 -7.33443,0 -1.2405,7.03506 -4.75969,24.6567 -5.75779,31.72209 h 43.3126 c -0.9981,-7.06539 -4.51729,-24.68703 -5.75779,-31.72209 -1.9937,-2.5e-4 -3.99783,-2.1e-4 -7.33443,0 1.3707,-1.80418 2.18571,-4.05396 2.18591,-6.49469 5e-4,-5.93737 -4.81327,-10.75216 -10.75076,-10.7518 z m 5e-4,2.81016 c 4.38539,-2.5e-4 7.9409,3.55574 7.9406,7.94112 -2e-4,2.51096 -1.17569,4.73782 -2.99569,6.19239 0.1848,1.03751 0.37231,2.07521 0.56121,3.11298 h 8.03413 l 4.85294,26.10125 h -36.78585 l 4.85293,-26.10125 h 8.03414 c 0.189,-1.03797 0.37692,-2.07579 0.56172,-3.1135 -1.8198,-1.45455 -2.99568,-3.68096 -2.99568,-6.19187 -10e-5,-4.38504 3.55447,-7.94091 7.93956,-7.94112 z m 0,2.97863 c -2.72002,1.3e-4 -4.92492,2.20526 -4.92477,4.92528 1.3e-4,2.71982 2.20495,4.92464 4.92477,4.92477 2.72002,1.5e-4 4.92515,-2.20475 4.92528,-4.92477 1.5e-4,-2.72022 -2.20506,-4.92543 -4.92528,-4.92528 z m 0,2.81017 c 1.16817,-6e-5 2.11517,0.94694 2.11511,2.11511 -2.2e-4,1.16797 -0.94714,2.11466 -2.11511,2.1146 -1.16777,-2.2e-4 -2.11438,-0.94683 -2.1146,-2.1146 -6e-5,-1.16797 0.94663,-2.11489 2.1146,-2.11511 z m -9.83455,17.99321 v 13.50719 h 2.81068 v -3.84731 l 1.31207,-1.87379 3.30264,5.7211 h 3.24528 l -4.76973,-8.261 3.67367,-5.24619 h -3.4308 l -3.33313,4.75992 v -4.75992 z m 15.60474,0 c -2.14615,1.1e-4 -3.90192,1.66404 -4.05247,3.77186 h -0.0114 v 5.85339 h 0.005 c 0.0956,2.15998 1.87596,3.88204 4.05971,3.88194 2.16504,-10e-5 3.93336,-1.69299 4.0566,-3.82716 h 0.007 v -0.18707 -3.36827 h -0.65319 -2.1575 -1.09967 v 2.81017 h 1.09967 v 0.5581 h -0.001 c -0.027,0.6692 -0.57632,1.20406 -1.25212,1.20406 -0.6759,10e-5 -1.22615,-0.53486 -1.25315,-1.20406 h -10e-4 v -5.47873 h 10e-4 c 0.027,-0.66918 0.57632,-1.20403 1.25212,-1.20406 0.6759,-3e-5 1.22615,0.53484 1.25315,1.20406 h 2.81172 c -0.027,-2.22159 -1.83667,-4.01436 -4.06487,-4.01423 z"
         sodipodi:nodetypes="ccccccccsccccccccccccccccccccccccccccccccccccccccccsccccccccccccccccscccc" />
    </g>
  </g>
</svg>
