<?xml version="1.0" encoding="UTF-8" standalone="no"?>
<!-- Created with Inkscape (http://www.inkscape.org/) -->

<svg
   width="90"
   height="90"
   viewBox="0 0 90 90"
   version="1.1"
   id="svg1"
   inkscape:version="1.3.2 (091e20e, 2023-11-25, custom)"
   sodipodi:docname="body-trackwidth.svg"
   xmlns:inkscape="http://www.inkscape.org/namespaces/inkscape"
   xmlns:sodipodi="http://sodipodi.sourceforge.net/DTD/sodipodi-0.dtd"
   xmlns="http://www.w3.org/2000/svg"
   xmlns:svg="http://www.w3.org/2000/svg">
  <sodipodi:namedview
     id="namedview1"
     pagecolor="#ffffff"
     bordercolor="#000000"
     borderopacity="0.25"
     inkscape:showpageshadow="2"
     inkscape:pageopacity="0.0"
     inkscape:pagecheckerboard="0"
     inkscape:deskcolor="#d1d1d1"
     inkscape:document-units="px"
     inkscape:zoom="11.279447"
     inkscape:cx="46.766476"
     inkscape:cy="52.662155"
     inkscape:window-width="1920"
     inkscape:window-height="1018"
     inkscape:window-x="-6"
     inkscape:window-y="-6"
     inkscape:window-maximized="1"
     inkscape:current-layer="g135" />
  <defs
     id="defs1" />
  <g
     inkscape:label="Layer 1"
     inkscape:groupmode="layer"
     id="layer1">
    <g
       id="g135"
       transform="matrix(0.9448819,0,0,0.9448819,-531.53019,540.59387)">
      <g
         id="g77-7-0"
         transform="matrix(1.0583304,0,0,1.0583347,78.266733,-370.12928)"
         style="fill:#ececec;fill-opacity:1">
        <g
           id="g72-0-2-8"
           transform="translate(-5.4306569,24.849881)"
           style="fill:#ececec;fill-opacity:1">
          <g
             id="g68-0-9-5-8-7"
             transform="translate(108.34109,-20.340304)"
             style="fill:#ececec;fill-opacity:1">
            <path
               id="path44-6-4-7-05-6-0-4-6-8-7-8-3"
               style="fill:#ececec;fill-opacity:1;stroke-width:0.930373"
               inkscape:transform-center-x="-0.1984375"
               inkscape:transform-center-y="-0.099218749"
               d="m 392.16827,-195.37474 a 22.5,22.5 0 0 0 -21.04729,14.71073 l -13.05709,31.5221 0.0227,0.009 a 30,30 0 0 0 -3.41839,13.75781 30,30 0 0 0 29.99145,29.99972 v 5.2e-4 h 37.48815 v -0.002 a 22.5,22.5 0 0 0 0.0207,0.002 22.5,22.5 0 0 0 22.48905,-22.34747 h 0.0109 v -37.51989 h -0.009 a 15,15 0 0 0 0.009,-0.13229 15,15 0 0 0 -9.72498,-14.03789 l -32.38355,-13.41314 a 22.5,22.5 0 0 0 -10.39162,-2.5492 z" />
          </g>
        </g>
      </g>
      <path
         id="rect5-9-0-2-9-4-1-3-6-3-1-5-5-4-7-0-7-9-9-5-8-7-40"
         style="fill:#505050;fill-opacity:1;fill-rule:evenodd;stroke-width:0.241935"
         d="m 614.0992,-535.51769 v 8.42946 h 2.80913 4.21473 v 6.22597 h -25.08787 v -5.96759 h 4.21473 1.17202 1.63711 v -8.43153 h -1.12034 -12.92945 -2.80913 v 8.43153 h 1.40353 1.4056 4.21473 v 15.27142 h -4.21473 -2.80913 v 8.42946 h 2.80913 12.41268 1.63711 v -8.42946 h -1.12034 -5.90352 v -6.49263 h 25.08787 v 6.23631 h -4.21473 -2.80913 v 8.42946 h 2.80913 12.41268 1.63711 v -8.42946 h -1.12034 -5.90352 v -15.27348 h 5.38675 1.63711 v -8.42946 h -1.12034 -12.92945 z m 2.80913,2.80913 h 11.24066 v 2.80913 h -11.24066 z m -27.89907,0.25838 h 11.24066 v 2.80913 h -11.24066 z m 50.65531,1.32912 -5.9614,5.96139 1.98645,1.98644 2.57348,-2.57348 v 16.74109 h -4.21473 v 2.80913 h 11.24066 v -2.80913 h -4.21473 v -16.73903 l 2.57142,2.57142 1.98851,-1.98644 -5.96139,-5.96139 -0.004,0.004 z m -22.75624,22.11544 h 11.24066 v 2.80913 h -11.24066 z m -27.89907,0.25839 h 11.24066 v 2.80913 h -11.24066 z" />
    </g>
  </g>
</svg>
