<?xml version="1.0" encoding="UTF-8" standalone="no"?>
<!-- Created with Inkscape (http://www.inkscape.org/) -->

<svg
   width="90"
   height="90"
   viewBox="0 0 90 90"
   version="1.1"
   id="svg1"
   inkscape:version="1.3.2 (091e20e, 2023-11-25, custom)"
   sodipodi:docname="body-wheelbase.svg"
   xmlns:inkscape="http://www.inkscape.org/namespaces/inkscape"
   xmlns:sodipodi="http://sodipodi.sourceforge.net/DTD/sodipodi-0.dtd"
   xmlns="http://www.w3.org/2000/svg"
   xmlns:svg="http://www.w3.org/2000/svg">
  <sodipodi:namedview
     id="namedview1"
     pagecolor="#ffffff"
     bordercolor="#000000"
     borderopacity="0.25"
     inkscape:showpageshadow="2"
     inkscape:pageopacity="0.0"
     inkscape:pagecheckerboard="0"
     inkscape:deskcolor="#d1d1d1"
     inkscape:document-units="px"
     inkscape:zoom="2.8198618"
     inkscape:cx="62.59172"
     inkscape:cy="19.859129"
     inkscape:window-width="1920"
     inkscape:window-height="1018"
     inkscape:window-x="-6"
     inkscape:window-y="-6"
     inkscape:window-maximized="1"
     inkscape:current-layer="g135" />
  <defs
     id="defs1" />
  <g
     inkscape:label="Layer 1"
     inkscape:groupmode="layer"
     id="layer1">
    <g
       id="g135"
       transform="matrix(0.9448819,0,0,0.9448819,-531.53019,540.59387)">
      <g
         id="g77-7-0"
         transform="matrix(1.0583304,0,0,1.0583347,78.266733,-370.12928)"
         style="fill:#ececec;fill-opacity:1">
        <g
           id="g72-0-2-8"
           transform="translate(-5.4306569,24.849881)"
           style="fill:#ececec;fill-opacity:1">
          <g
             id="g68-0-9-5-8-7"
             transform="translate(108.34109,-20.340304)"
             style="fill:#ececec;fill-opacity:1">
            <path
               id="path44-6-4-7-05-6-0-4-6-8-7-8-3"
               style="fill:#ececec;fill-opacity:1;stroke-width:0.930373"
               inkscape:transform-center-x="-0.1984375"
               inkscape:transform-center-y="-0.099218749"
               d="m 392.16827,-195.37474 a 22.5,22.5 0 0 0 -21.04729,14.71073 l -13.05709,31.5221 0.0227,0.009 a 30,30 0 0 0 -3.41839,13.75781 30,30 0 0 0 29.99145,29.99972 v 5.2e-4 h 37.48815 v -0.002 a 22.5,22.5 0 0 0 0.0207,0.002 22.5,22.5 0 0 0 22.48905,-22.34747 h 0.0109 v -37.51989 h -0.009 a 15,15 0 0 0 0.009,-0.13229 15,15 0 0 0 -9.72498,-14.03789 l -32.38355,-13.41314 a 22.5,22.5 0 0 0 -10.39162,-2.5492 z" />
          </g>
        </g>
      </g>
      <path
         id="rect5-9-0-2-9-4-1-3-6-3-1-5-5-4-7-0-7-9-9-5-8-75"
         style="fill:#4d4d4d;fill-opacity:1;fill-rule:evenodd;stroke-width:0.28263"
         d="m 592.61875,-543.11648 v 2.81119 12.41268 1.63711 h 8.42946 v -2.81119 -4.21473 h 6.4947 v 27.2066 h -6.23631 v -6.03374 -0.99218 h -8.42946 v 2.81119 12.41268 1.63711 h 8.42946 v -2.8112 -4.21473 h 15.27348 v 5.38882 1.63711 h 8.42946 v -2.8112 -13.0576 -0.99218 h -8.42946 v 2.81119 4.21473 h -6.22804 v -27.2066 h 5.96966 v 4.21473 1.17408 1.63711 h 8.42946 v -2.81119 -13.05761 -0.99218 h -8.42946 v 1.40353 1.40766 4.21473 h -15.27349 v -6.03374 -0.99218 z m 2.8112,2.81119 h 2.80913 v 11.2386 h -2.80913 z m 23.70295,0 h 2.80913 v 11.2386 h -2.80913 z m 15.1908,4.21473 -5.96139,5.9614 1.98851,1.98644 2.57348,-2.57349 v 24.64139 h -4.21473 v 2.80913 h 11.23859 v -2.80913 h -4.21472 v -24.64139 l 2.57348,2.57349 1.98644,-1.98644 -5.95932,-5.9614 -0.006,0.004 z m -38.63743,25.80101 h 2.8112 v 11.23859 h -2.8112 z m 23.70294,0 h 2.80913 v 11.23859 h -2.80913 z" />
    </g>
  </g>
</svg>
