<?xml version="1.0" encoding="UTF-8" standalone="no"?>
<!-- Created with Inkscape (http://www.inkscape.org/) -->

<svg
   width="90"
   height="90"
   viewBox="0 0 90 90"
   version="1.1"
   id="svg1"
   inkscape:version="1.3.2 (091e20e, 2023-11-25, custom)"
   sodipodi:docname="dimensions-height.svg"
   xmlns:inkscape="http://www.inkscape.org/namespaces/inkscape"
   xmlns:sodipodi="http://sodipodi.sourceforge.net/DTD/sodipodi-0.dtd"
   xmlns="http://www.w3.org/2000/svg"
   xmlns:svg="http://www.w3.org/2000/svg">
  <sodipodi:namedview
     id="namedview1"
     pagecolor="#ffffff"
     bordercolor="#000000"
     borderopacity="0.25"
     inkscape:showpageshadow="2"
     inkscape:pageopacity="0.0"
     inkscape:pagecheckerboard="0"
     inkscape:deskcolor="#d1d1d1"
     inkscape:document-units="px"
     inkscape:zoom="2.8198618"
     inkscape:cx="62.414406"
     inkscape:cy="19.859129"
     inkscape:window-width="1920"
     inkscape:window-height="1018"
     inkscape:window-x="-6"
     inkscape:window-y="-6"
     inkscape:window-maximized="1"
     inkscape:current-layer="g135" />
  <defs
     id="defs1" />
  <g
     inkscape:label="Layer 1"
     inkscape:groupmode="layer"
     id="layer1">
    <g
       id="g135"
       transform="matrix(0.9448819,0,0,0.9448819,-531.53019,540.59387)">
      <g
         id="g77-7-0"
         transform="matrix(1.0583304,0,0,1.0583347,78.266733,-370.12928)"
         style="fill:#ececec;fill-opacity:1">
        <g
           id="g72-0-2-8"
           transform="translate(-5.4306569,24.849881)"
           style="fill:#ececec;fill-opacity:1">
          <g
             id="g68-0-9-5-8-7"
             transform="translate(108.34109,-20.340304)"
             style="fill:#ececec;fill-opacity:1">
            <path
               id="path44-6-4-7-05-6-0-4-6-8-7-8-3"
               style="fill:#ececec;fill-opacity:1;stroke-width:0.930373"
               inkscape:transform-center-x="-0.1984375"
               inkscape:transform-center-y="-0.099218749"
               d="m 392.16827,-195.37474 a 22.5,22.5 0 0 0 -21.04729,14.71073 l -13.05709,31.5221 0.0227,0.009 a 30,30 0 0 0 -3.41839,13.75781 30,30 0 0 0 29.99145,29.99972 v 5.2e-4 h 37.48815 v -0.002 a 22.5,22.5 0 0 0 0.0207,0.002 22.5,22.5 0 0 0 22.48905,-22.34747 h 0.0109 v -37.51989 h -0.009 a 15,15 0 0 0 0.009,-0.13229 15,15 0 0 0 -9.72498,-14.03789 l -32.38355,-13.41314 a 22.5,22.5 0 0 0 -10.39162,-2.5492 z" />
          </g>
        </g>
      </g>
      <path
         id="path11-7-9-7-7-0-3-5-8-7-93-79-1-7"
         style="fill:#4d4d4d;fill-opacity:1;stroke:none;stroke-width:1.01439;stroke-dasharray:none;stroke-opacity:1"
         d="m 602.39712,-538.45563 v 0.039 a 13.5,13.5 0 0 0 -12.7543,13.426 v 0 0.025 a 13.5,13.5 0 0 0 -5e-4,0.01 h 5e-4 v 2.0417 l -2.8107,2.8107 v 0 0 11.6866 h 1.8831 v 0.01 h 0.8449 v 6.0932 h 2.8102 5.3319 0.971 v -6.0932 h 12.9657 3.963 v 6.0932 h 2.8107 5.9268 0.3757 v -6.0932 h 1.9032 v -0.01 h 0.8248 v -11.6866 0 0 l -2.8101,-2.8102 v -2.0774 0 a 13.5,13.5 0 0 0 -12.2246,-13.3981 v -0.067 h -1.5854 z m 32.3184,0 -5.9608,5.9609 1.9869,1.9875 2.5735,-2.5735 v 27.9564 h -4.2152 v 2.8102 h 11.2401 v -2.8102 h -4.2147 v -27.9559 l 2.5729,2.573 1.9875,-1.9875 -5.9609,-5.9609 v 0 z m -31.5748,2.8102 h 7.6781 0.3121 a 10.69,10.69 0 0 1 10.6898,10.6898 v 0.1038 h -11.0536 -18.3157 v -0.1131 a 10.69,10.69 0 0 1 10.6893,-10.6805 z m -10.6216,13.6038 h 18.248 10.9854 l -0.1121,0.1121 2.9905,2.9905 v 7.721 h -12.9935 -21.9961 v -7.7215 l 2.99,-2.99 z m 3.159,1.3467 c -2.2451,10e-5 -4.065,1.8203 -4.0649,4.0654 1e-4,2.2449 1.8199,4.0647 4.0649,4.0648 2.2451,2e-4 4.0653,-1.8197 4.0654,-4.0648 10e-5,-2.2453 -1.8201,-4.0656 -4.0654,-4.0654 z m 22.9149,0 c -2.2453,-2e-4 -4.0655,1.8201 -4.0654,4.0654 1e-4,2.2451 1.8203,4.065 4.0654,4.0648 2.2449,-10e-5 4.0648,-1.8199 4.0649,-4.0648 10e-5,-2.2451 -1.8198,-4.0653 -4.0649,-4.0654 z m -22.9149,2.8101 c 0.6932,0 1.2553,0.5621 1.2552,1.2553 0,0.6931 -0.5621,1.2547 -1.2552,1.2547 -0.6931,-10e-5 -1.2547,-0.5617 -1.2547,-1.2547 -10e-5,-0.6931 0.5616,-1.2552 1.2547,-1.2553 z m 22.9149,0 c 0.6931,10e-5 1.2548,0.5622 1.2547,1.2553 0,0.693 -0.5616,1.2546 -1.2547,1.2547 -0.6931,0 -1.2552,-0.5616 -1.2552,-1.2547 -10e-5,-0.6932 0.562,-1.2553 1.2552,-1.2553 z m -26.2242,9.4775 h 3.4928 v 3.2825 h -3.4928 z m 26.0423,0 h 3.4923 v 3.2825 h -3.4923 z" />
    </g>
  </g>
</svg>
