<?xml version="1.0" encoding="UTF-8" standalone="no"?>
<!-- Created with Inkscape (http://www.inkscape.org/) -->

<svg
   width="90"
   height="90"
   viewBox="0 0 90 90"
   version="1.1"
   id="svg1"
   inkscape:version="1.3.2 (091e20e, 2023-11-25, custom)"
   sodipodi:docname="color.svg"
   xmlns:inkscape="http://www.inkscape.org/namespaces/inkscape"
   xmlns:sodipodi="http://sodipodi.sourceforge.net/DTD/sodipodi-0.dtd"
   xmlns="http://www.w3.org/2000/svg"
   xmlns:svg="http://www.w3.org/2000/svg">
  <sodipodi:namedview
     id="namedview1"
     pagecolor="#ffffff"
     bordercolor="#000000"
     borderopacity="0.25"
     inkscape:showpageshadow="2"
     inkscape:pageopacity="0.0"
     inkscape:pagecheckerboard="0"
     inkscape:deskcolor="#d1d1d1"
     inkscape:document-units="px"
     inkscape:zoom="2.8198618"
     inkscape:cx="128.5524"
     inkscape:cy="52.130215"
     inkscape:window-width="1920"
     inkscape:window-height="1018"
     inkscape:window-x="-6"
     inkscape:window-y="-6"
     inkscape:window-maximized="1"
     inkscape:current-layer="g135" />
  <defs
     id="defs1" />
  <g
     inkscape:label="Layer 1"
     inkscape:groupmode="layer"
     id="layer1">
    <g
       id="g135"
       transform="matrix(0.9448819,0,0,0.9448819,-531.53019,540.59387)">
      <g
         id="g77-7-0"
         transform="matrix(1.0583304,0,0,1.0583347,78.266733,-370.12928)"
         style="fill:#ececec;fill-opacity:1">
        <g
           id="g72-0-2-8"
           transform="translate(-5.4306569,24.849881)"
           style="fill:#ececec;fill-opacity:1">
          <g
             id="g68-0-9-5-8-7"
             transform="translate(108.34109,-20.340304)"
             style="fill:#ececec;fill-opacity:1">
            <path
               id="path44-6-4-7-05-6-0-4-6-8-7-8-3"
               style="fill:#ececec;fill-opacity:1;stroke-width:0.930373"
               inkscape:transform-center-x="-0.1984375"
               inkscape:transform-center-y="-0.099218749"
               d="m 392.16827,-195.37474 a 22.5,22.5 0 0 0 -21.04729,14.71073 l -13.05709,31.5221 0.0227,0.009 a 30,30 0 0 0 -3.41839,13.75781 30,30 0 0 0 29.99145,29.99972 v 5.2e-4 h 37.48815 v -0.002 a 22.5,22.5 0 0 0 0.0207,0.002 22.5,22.5 0 0 0 22.48905,-22.34747 h 0.0109 v -37.51989 h -0.009 a 15,15 0 0 0 0.009,-0.13229 15,15 0 0 0 -9.72498,-14.03789 l -32.38355,-13.41314 a 22.5,22.5 0 0 0 -10.39162,-2.5492 z" />
          </g>
        </g>
      </g>
      <g
         id="g80"
         transform="matrix(4,0,0,4,8.0903316,227.59335)">
        <path
           id="rect5-9-0-1-1-8-7-9-7-4-7-8-3-2-1-6"
           style="fill:#4d4d4d;fill-opacity:1;fill-rule:evenodd;stroke-width:0.0292567"
           d="m 148.73849,-192.07193 -0.60758,1.05239 a 2.0503994,2.9636107 75.529567 0 0 -0.0115,0.003 2.0503994,2.9636107 75.529567 0 0 -2.21925,2.77387 2.0503994,2.9636107 75.529567 0 0 0.31458,0.54221 l -0.33551,0.58123 0.004,0.002 a 1.3538369,1.3538369 0 0 0 -0.034,0.0504 1.3538369,1.3538369 0 0 0 0.45463,1.82198 l -0.002,0.003 4.22997,2.4421 0.002,-0.003 a 1.3538369,1.3538369 0 0 0 1.80519,-0.51728 1.3538369,1.3538369 0 0 0 0.0289,-0.0534 l 0.001,0.001 2.85925,-4.95241 -0.20399,-0.1177 -0.4045,-0.23357 -5.27267,-3.04413 -0.10206,-0.0589 -0.49067,-0.28332 z m 0.25722,0.95976 5.27268,3.04426 -2.50799,4.34392 2.5e-4,1.3e-4 -0.0234,0.0404 -10e-4,-7.5e-4 a 0.65175003,0.65175003 0 0 1 -0.006,0.0126 0.65175003,0.65175003 0 0 1 -0.88613,0.24056 l -0.0159,-0.009 a 0.65175003,0.65175003 0 0 1 -0.013,-0.008 l -2.5e-4,5e-4 -0.99929,-0.57696 -2.09587,-1.21001 -0.99929,-0.57696 2.5e-4,-5e-4 a 0.65175003,0.65175003 0 0 1 -0.0145,-0.008 l -0.0145,-0.008 a 0.65175003,0.65175003 0 0 1 -0.23526,-0.88793 0.65175003,0.65175003 0 0 1 0.008,-0.0113 l -10e-4,-5e-4 0.0233,-0.0403 1.3e-4,1.3e-4 0.28965,-0.50178 a 2.0503994,2.9636107 75.529567 0 0 2.597,0.16097 2.0503994,2.9636107 75.529567 0 0 2.04432,-1.4844 0.32494065,0.32494065 0 0 0 0.0642,-0.20477 0.32494065,0.32494065 0 0 0 -0.33564,-0.31393 0.32494065,0.32494065 0 0 0 -0.28513,0.19184 l -5e-4,-2.5e-4 a 1.3658809,2.2466317 78.595004 0 1 -1.64951,1.15148 1.3658809,2.2466317 78.595004 0 1 -2.06744,-0.13707 z m -1.39474,1.01053 -0.98056,1.69835 a 1.3658809,2.2466317 78.595004 0 1 -0.043,-0.0978 1.3658809,2.2466317 78.595004 0 1 1.02358,-1.60055 z m 7.92173,3.18327 c 7e-5,6e-5 6e-5,1.7e-4 1.3e-4,2.5e-4 v -2.5e-4 z m 1.3e-4,2.5e-4 v 2.5e-4 c -1.44167,1.88365 -1.61969,2.27741 -1.61966,2.81081 5e-5,0.89547 0.72479,1.62151 1.61966,1.62406 h 2.5e-4 c 0.89488,-0.003 1.61949,-0.72859 1.61954,-1.62406 3e-5,-0.5334 -0.17786,-0.92716 -1.61954,-2.81081 v -5e-4 c -6e-5,9e-5 -1.9e-4,2e-4 -2.5e-4,2.5e-4 z" />
      </g>
    </g>
  </g>
</svg>
