<?xml version="1.0" encoding="UTF-8" standalone="no"?>
<!-- Created with Inkscape (http://www.inkscape.org/) -->

<svg
   width="90"
   height="90"
   viewBox="0 0 90 90"
   version="1.1"
   id="svg1"
   inkscape:version="1.3.2 (091e20e, 2023-11-25, custom)"
   sodipodi:docname="engine-power.svg"
   xmlns:inkscape="http://www.inkscape.org/namespaces/inkscape"
   xmlns:sodipodi="http://sodipodi.sourceforge.net/DTD/sodipodi-0.dtd"
   xmlns="http://www.w3.org/2000/svg"
   xmlns:svg="http://www.w3.org/2000/svg">
  <sodipodi:namedview
     id="namedview1"
     pagecolor="#ffffff"
     bordercolor="#000000"
     borderopacity="0.25"
     inkscape:showpageshadow="2"
     inkscape:pageopacity="0.0"
     inkscape:pagecheckerboard="0"
     inkscape:deskcolor="#d1d1d1"
     inkscape:document-units="px"
     inkscape:zoom="2.8198618"
     inkscape:cx="62.414406"
     inkscape:cy="19.859129"
     inkscape:window-width="1920"
     inkscape:window-height="1018"
     inkscape:window-x="-6"
     inkscape:window-y="-6"
     inkscape:window-maximized="1"
     inkscape:current-layer="g135" />
  <defs
     id="defs1" />
  <g
     inkscape:label="Layer 1"
     inkscape:groupmode="layer"
     id="layer1">
    <g
       id="g135"
       transform="matrix(0.9448819,0,0,0.9448819,-531.53019,540.59387)">
      <g
         id="g77-7-0"
         transform="matrix(1.0583304,0,0,1.0583347,78.266733,-370.12928)"
         style="fill:#ececec;fill-opacity:1">
        <g
           id="g72-0-2-8"
           transform="translate(-5.4306569,24.849881)"
           style="fill:#ececec;fill-opacity:1">
          <g
             id="g68-0-9-5-8-7"
             transform="translate(108.34109,-20.340304)"
             style="fill:#ececec;fill-opacity:1">
            <path
               id="path44-6-4-7-05-6-0-4-6-8-7-8-3"
               style="fill:#ececec;fill-opacity:1;stroke-width:0.930373"
               inkscape:transform-center-x="-0.1984375"
               inkscape:transform-center-y="-0.099218749"
               d="m 392.16827,-195.37474 a 22.5,22.5 0 0 0 -21.04729,14.71073 l -13.05709,31.5221 0.0227,0.009 a 30,30 0 0 0 -3.41839,13.75781 30,30 0 0 0 29.99145,29.99972 v 5.2e-4 h 37.48815 v -0.002 a 22.5,22.5 0 0 0 0.0207,0.002 22.5,22.5 0 0 0 22.48905,-22.34747 h 0.0109 v -37.51989 h -0.009 a 15,15 0 0 0 0.009,-0.13229 15,15 0 0 0 -9.72498,-14.03789 l -32.38355,-13.41314 a 22.5,22.5 0 0 0 -10.39162,-2.5492 z" />
          </g>
        </g>
      </g>
      <g
         id="g64"
         transform="translate(539.78626,-480.6804)"
         style="fill:#4d4d4d;fill-opacity:1">
        <path
           id="path11-3-2-4-8-8-3-7"
           style="fill:#4d4d4d;fill-opacity:1;stroke:none;stroke-width:2.61137;stroke-dasharray:none;stroke-opacity:1"
           d="m 61.247424,-52.626245 v 2.810681 h 6.895703 v 5.841504 0.001 c -2.23e-4,4.589658 -1.281997,8.879178 -3.502111,12.535153 v 0.01137 c -1.055659,1.633615 -1.668753,3.579948 -1.668632,5.669939 2.82e-4,5.779213 4.685255,10.464195 10.464477,10.464477 5.779645,3.27e-4 10.465229,-4.684832 10.465511,-10.464477 1.19e-4,-2.088614 -0.614086,-4.032059 -1.668632,-5.664771 v -0.04961 c -2.220115,-3.655975 -3.501889,-7.945495 -3.502112,-12.535152 v -10e-4 -5.808431 h 6.895704 v -2.810681 z m 9.705868,2.810681 h 4.968172 v 5.808431 0.001 0.543119 h 0.0067 c 0.101132,5.105569 1.620679,9.862273 4.17959,13.895276 l 0.08165,0.201021 c 0.576466,1.075219 0.903382,2.304014 0.903304,3.609599 -2.41e-4,4.227746 -3.427601,7.655072 -7.655347,7.65483 -4.227442,-2.04e-4 -7.654589,-3.427402 -7.65483,-7.65483 -7.3e-5,-1.275086 0.311763,-2.476598 0.863513,-3.533635 l 0.05581,-0.141593 c 2.598297,-4.054753 4.142713,-8.8488 4.244702,-13.997595 h 0.0067 v -0.54312 -10e-4 z" />
        <rect
           style="fill:#4d4d4d;fill-opacity:1;fill-rule:evenodd;stroke-width:0.262426"
           id="rect5-9-0-1-0-4-3"
           width="2.8103623"
           height="24.37966"
           x="61.986534"
           y="61.247547"
           transform="rotate(-90)" />
        <rect
           style="fill:#4d4d4d;fill-opacity:1;fill-rule:evenodd;stroke-width:0.262426"
           id="rect5-9-0-1-0-3-0-0"
           width="2.8103623"
           height="24.37966"
           x="56.033409"
           y="61.247547"
           transform="rotate(-90)" />
        <path
           id="path11-7-9-0-6-7"
           style="fill:#4d4d4d;fill-opacity:1;stroke:none;stroke-width:1.22896;stroke-dasharray:none;stroke-opacity:1"
           d="m 73.437119,-30.70305 a 4.9250002,4.9250002 0 0 0 -4.92476,4.92528 4.9250002,4.9250002 0 0 0 4.92476,4.92476 4.9250002,4.9250002 0 0 0 4.92528,-4.92476 4.9250002,4.9250002 0 0 0 -4.92528,-4.92528 z m 0,2.81017 a 2.115,2.115 0 0 1 2.11512,2.11511 2.115,2.115 0 0 1 -2.11512,2.1146 2.115,2.115 0 0 1 -2.1146,-2.1146 2.115,2.115 0 0 1 2.1146,-2.11511 z" />
      </g>
    </g>
  </g>
</svg>
