<?xml version="1.0" encoding="UTF-8" standalone="no"?>
<!-- Created with Inkscape (http://www.inkscape.org/) -->

<svg
   width="90"
   height="90"
   viewBox="0 0 90 90"
   version="1.1"
   id="svg1"
   inkscape:version="1.3.2 (091e20e, 2023-11-25, custom)"
   sodipodi:docname="dimensions-length.svg"
   xmlns:inkscape="http://www.inkscape.org/namespaces/inkscape"
   xmlns:sodipodi="http://sodipodi.sourceforge.net/DTD/sodipodi-0.dtd"
   xmlns="http://www.w3.org/2000/svg"
   xmlns:svg="http://www.w3.org/2000/svg">
  <sodipodi:namedview
     id="namedview1"
     pagecolor="#ffffff"
     bordercolor="#000000"
     borderopacity="0.25"
     inkscape:showpageshadow="2"
     inkscape:pageopacity="0.0"
     inkscape:pagecheckerboard="0"
     inkscape:deskcolor="#d1d1d1"
     inkscape:document-units="px"
     inkscape:zoom="2.8198618"
     inkscape:cx="62.414406"
     inkscape:cy="19.859129"
     inkscape:window-width="1920"
     inkscape:window-height="1018"
     inkscape:window-x="-6"
     inkscape:window-y="-6"
     inkscape:window-maximized="1"
     inkscape:current-layer="g135" />
  <defs
     id="defs1" />
  <g
     inkscape:label="Layer 1"
     inkscape:groupmode="layer"
     id="layer1">
    <g
       id="g135"
       transform="matrix(0.9448819,0,0,0.9448819,-531.53019,540.59387)">
      <g
         id="g77-7-0"
         transform="matrix(1.0583304,0,0,1.0583347,78.266733,-370.12928)"
         style="fill:#ececec;fill-opacity:1">
        <g
           id="g72-0-2-8"
           transform="translate(-5.4306569,24.849881)"
           style="fill:#ececec;fill-opacity:1">
          <g
             id="g68-0-9-5-8-7"
             transform="translate(108.34109,-20.340304)"
             style="fill:#ececec;fill-opacity:1">
            <path
               id="path44-6-4-7-05-6-0-4-6-8-7-8-3"
               style="fill:#ececec;fill-opacity:1;stroke-width:0.930373"
               inkscape:transform-center-x="-0.1984375"
               inkscape:transform-center-y="-0.099218749"
               d="m 392.16827,-195.37474 a 22.5,22.5 0 0 0 -21.04729,14.71073 l -13.05709,31.5221 0.0227,0.009 a 30,30 0 0 0 -3.41839,13.75781 30,30 0 0 0 29.99145,29.99972 v 5.2e-4 h 37.48815 v -0.002 a 22.5,22.5 0 0 0 0.0207,0.002 22.5,22.5 0 0 0 22.48905,-22.34747 h 0.0109 v -37.51989 h -0.009 a 15,15 0 0 0 0.009,-0.13229 15,15 0 0 0 -9.72498,-14.03789 l -32.38355,-13.41314 a 22.5,22.5 0 0 0 -10.39162,-2.5492 z" />
          </g>
        </g>
      </g>
      <path
         id="rect5-9-0-1-1-8-7-9-7-4-7-8-4-9-5-6-0-4-0-3-3-0"
         style="fill:#4d4d4d;fill-opacity:1;fill-rule:evenodd;stroke-width:0.22875"
         d="m 635.32731,-542.87103 -1.9869,1.9869 2.5735,2.5735 h -48.2472 v -4.2152 h -2.8097 v 11.2401 h 2.8097 v -4.2147 h 48.2467 l -2.573,2.5729 1.9869,1.987 4.56,-4.5599 h 0.1173 v -0.1173 l 1.2836,-1.2837 v 0 0 l -1.2836,-1.2836 v -0.1168 h -0.1168 z m -32.5763,10.6773 v 0.011 a 13.5,13.5 0 0 0 -13.2808,13.4535 v 0 1.3327 h -1.8009 -2.8102 v 11.836 2.3564 h 6.3671 c 0.5042,3.4465 3.4716,6.0925 7.058,6.0927 3.5867,10e-5 6.5547,-2.646 7.059,-6.0927 h 16.4661 c 0.5042,3.4465 3.4715,6.0925 7.058,6.0927 3.5868,10e-5 6.5547,-2.646 7.059,-6.0927 h 5.3645 v -2.8107 -11.3817 h -1.3694 -9.7658 v -1.3327 0 a 13.5,13.5 0 0 0 -13.2808,-13.4535 v -0.011 h -5.6979 z m 0.2166,2.8102 h 8.2051 0.4104 v 11.9874 h -19.3048 v -1.2976 a 10.69,10.69 0 0 1 10.6893,-10.6898 z m 11.4256,0 h 2.2603 a 10.69,10.69 0 0 1 10.6898,10.6898 v 1.2976 h -12.9501 z m -26.726,14.7976 h 23.9159 v 8.5715 h -6.3867 c -0.7872,-3.0848 -3.5845,-5.3663 -6.9143,-5.3661 -3.3295,1e-4 -6.1258,2.2815 -6.9128,5.3661 h -3.7021 z m 26.726,0 h 24.0849 v 8.5715 h -2.6986 c -0.7872,-3.0848 -3.5845,-5.3663 -6.9143,-5.3661 -3.3296,1e-4 -6.1258,2.2815 -6.9127,5.3661 h -7.5593 z m -16.1106,6.0151 c 2.3887,-10e-5 4.3254,1.9366 4.3253,4.3253 -2e-4,2.3886 -1.9368,4.325 -4.3253,4.3248 -2.3885,-1e-4 -4.3247,-1.9364 -4.3248,-4.3248 -2e-4,-2.3885 1.9362,-4.3252 4.3248,-4.3253 z m 30.5831,0 c 2.3888,-10e-5 4.3255,1.9366 4.3253,4.3253 -10e-5,2.3886 -1.9367,4.325 -4.3253,4.3248 -2.3884,-1e-4 -4.3247,-1.9364 -4.3248,-4.3248 -1e-4,-2.3885 1.9362,-4.3252 4.3248,-4.3253 z" />
    </g>
  </g>
</svg>
