<?xml version="1.0" encoding="UTF-8" standalone="no"?>
<!-- Created with Inkscape (http://www.inkscape.org/) -->

<svg
   width="90"
   height="90"
   viewBox="0 0 90 90"
   version="1.1"
   id="svg1"
   inkscape:version="1.3.2 (091e20e, 2023-11-25, custom)"
   sodipodi:docname="dimensions-wheelbase.svg"
   xmlns:inkscape="http://www.inkscape.org/namespaces/inkscape"
   xmlns:sodipodi="http://sodipodi.sourceforge.net/DTD/sodipodi-0.dtd"
   xmlns="http://www.w3.org/2000/svg"
   xmlns:svg="http://www.w3.org/2000/svg">
  <sodipodi:namedview
     id="namedview1"
     pagecolor="#ffffff"
     bordercolor="#000000"
     borderopacity="0.25"
     inkscape:showpageshadow="2"
     inkscape:pageopacity="0.0"
     inkscape:pagecheckerboard="0"
     inkscape:deskcolor="#d1d1d1"
     inkscape:document-units="px"
     inkscape:zoom="2.8198618"
     inkscape:cx="62.414406"
     inkscape:cy="19.859129"
     inkscape:window-width="1920"
     inkscape:window-height="1018"
     inkscape:window-x="-6"
     inkscape:window-y="-6"
     inkscape:window-maximized="1"
     inkscape:current-layer="g135" />
  <defs
     id="defs1" />
  <g
     inkscape:label="Layer 1"
     inkscape:groupmode="layer"
     id="layer1">
    <g
       id="g135"
       transform="matrix(0.9448819,0,0,0.9448819,-531.53019,540.59387)">
      <g
         id="g77-7-0"
         transform="matrix(1.0583304,0,0,1.0583347,78.266733,-370.12928)"
         style="fill:#ececec;fill-opacity:1">
        <g
           id="g72-0-2-8"
           transform="translate(-5.4306569,24.849881)"
           style="fill:#ececec;fill-opacity:1">
          <g
             id="g68-0-9-5-8-7"
             transform="translate(108.34109,-20.340304)"
             style="fill:#ececec;fill-opacity:1">
            <path
               id="path44-6-4-7-05-6-0-4-6-8-7-8-3"
               style="fill:#ececec;fill-opacity:1;stroke-width:0.930373"
               inkscape:transform-center-x="-0.1984375"
               inkscape:transform-center-y="-0.099218749"
               d="m 392.16827,-195.37474 a 22.5,22.5 0 0 0 -21.04729,14.71073 l -13.05709,31.5221 0.0227,0.009 a 30,30 0 0 0 -3.41839,13.75781 30,30 0 0 0 29.99145,29.99972 v 5.2e-4 h 37.48815 v -0.002 a 22.5,22.5 0 0 0 0.0207,0.002 22.5,22.5 0 0 0 22.48905,-22.34747 h 0.0109 v -37.51989 h -0.009 a 15,15 0 0 0 0.009,-0.13229 15,15 0 0 0 -9.72498,-14.03789 l -32.38355,-13.41314 a 22.5,22.5 0 0 0 -10.39162,-2.5492 z" />
          </g>
        </g>
      </g>
      <path
         id="rect5-9-0-2-9-4-1-3-6-3-1-5-5-4-7-0-7-9-9-5-8-1"
         style="fill:#4d4d4d;fill-opacity:1;fill-rule:evenodd;stroke-width:0.340705"
         d="m 590.70744,-542.76766 v 2.8107 12.4122 1.6371 h 8.4299 v -2.8102 -4.2147 h 6.4932 v 27.2056 h -6.2358 v -6.0338 -0.9906 h -8.43 v 2.8101 12.4127 1.6366 h 8.43 v -2.8101 -4.2143 h 15.2724 v 5.3878 1.6366 h 8.43 v -2.8101 -13.0587 -0.9906 h -8.43 v 2.8101 4.2143 h -6.2264 v -27.2056 h 5.9691 v 4.2147 1.1731 1.6371 h 8.43 v -2.8102 -13.0586 -0.9912 h -8.43 v 1.403 1.4077 4.2142 h -15.2725 v -6.0337 -0.9912 z m 41.7049,0 -5.9614,5.9609 1.9875,1.9875 2.5735,-2.5735 v 38.6912 h -4.2147 v 2.8101 h 11.2396 v -2.8101 h -4.2147 v -38.6907 l 2.5729,2.573 1.987,-1.9875 -5.9609,-5.9609 v 0 z m -38.8948,2.8107 h 2.8092 v 11.2391 h -2.8092 z m 23.7025,0 h 2.8096 v 11.2391 h -2.8096 z m -23.4446,30.0157 h 2.8091 v 11.2392 h -2.8091 z m 23.7024,0 h 2.8092 v 11.2392 h -2.8092 z" />
    </g>
  </g>
</svg>
