<?xml version="1.0" encoding="UTF-8" standalone="no"?>
<!-- Created with Inkscape (http://www.inkscape.org/) -->

<svg
   width="90"
   height="90"
   viewBox="0 0 90 90"
   version="1.1"
   id="svg1"
   inkscape:version="1.3.2 (091e20e, 2023-11-25, custom)"
   sodipodi:docname="doors.svg"
   xmlns:inkscape="http://www.inkscape.org/namespaces/inkscape"
   xmlns:sodipodi="http://sodipodi.sourceforge.net/DTD/sodipodi-0.dtd"
   xmlns="http://www.w3.org/2000/svg"
   xmlns:svg="http://www.w3.org/2000/svg">
  <sodipodi:namedview
     id="namedview1"
     pagecolor="#ffffff"
     bordercolor="#000000"
     borderopacity="0.25"
     inkscape:showpageshadow="2"
     inkscape:pageopacity="0.0"
     inkscape:pagecheckerboard="0"
     inkscape:deskcolor="#d1d1d1"
     inkscape:document-units="px"
     inkscape:zoom="2.8198618"
     inkscape:cx="128.90703"
     inkscape:cy="80.500399"
     inkscape:window-width="1920"
     inkscape:window-height="1018"
     inkscape:window-x="-6"
     inkscape:window-y="-6"
     inkscape:window-maximized="1"
     inkscape:current-layer="g135" />
  <defs
     id="defs1" />
  <g
     inkscape:label="Layer 1"
     inkscape:groupmode="layer"
     id="layer1">
    <g
       id="g135"
       transform="matrix(0.9448819,0,0,0.9448819,-531.53019,540.59387)">
      <g
         id="g77-7-0"
         transform="matrix(1.0583304,0,0,1.0583347,78.266733,-370.12928)"
         style="fill:#ececec;fill-opacity:1">
        <g
           id="g72-0-2-8"
           transform="translate(-5.4306569,24.849881)"
           style="fill:#ececec;fill-opacity:1">
          <g
             id="g68-0-9-5-8-7"
             transform="translate(108.34109,-20.340304)"
             style="fill:#ececec;fill-opacity:1">
            <path
               id="path44-6-4-7-05-6-0-4-6-8-7-8-3"
               style="fill:#ececec;fill-opacity:1;stroke-width:0.930373"
               inkscape:transform-center-x="-0.1984375"
               inkscape:transform-center-y="-0.099218749"
               d="m 392.16827,-195.37474 a 22.5,22.5 0 0 0 -21.04729,14.71073 l -13.05709,31.5221 0.0227,0.009 a 30,30 0 0 0 -3.41839,13.75781 30,30 0 0 0 29.99145,29.99972 v 5.2e-4 h 37.48815 v -0.002 a 22.5,22.5 0 0 0 0.0207,0.002 22.5,22.5 0 0 0 22.48905,-22.34747 h 0.0109 v -37.51989 h -0.009 a 15,15 0 0 0 0.009,-0.13229 15,15 0 0 0 -9.72498,-14.03789 l -32.38355,-13.41314 a 22.5,22.5 0 0 0 -10.39162,-2.5492 z" />
          </g>
        </g>
      </g>
      <path
         id="path11-4-8-1-3"
         style="fill:#4d4d4d;fill-opacity:1;stroke:none;stroke-width:3.77612;stroke-dasharray:none;stroke-opacity:1"
         d="m 607.63133,-542.02256 v 0.01 c -4.21684,0.0337 -8.02009,1.79281 -10.74353,4.60593 l -0.002,-0.001 -0.0326,0.0362 c -0.24206,0.25166 -0.47638,0.51036 -0.70073,0.77824 l -10.07794,11.1926 0.006,0.005 -0.006,0.002 8.21707,26.87692 v 0.006 h 0.002 l 5e-4,10e-4 0.004,-10e-4 h 37.15587 1.34514 v -43.51156 h -0.83819 z m 8.88938,2.81016 h 13.46791 v 17.54054 h -39.83684 l -0.92604,-3.02825 9.69966,-10.77245 c 2.23834,-2.30054 5.36422,-3.73295 8.82737,-3.73311 0.0619,0 0.12282,0.004 0.18449,0.005 v -0.007 h 8.59017 c -0.002,-0.002 -0.005,-0.003 -0.007,-0.005 z m -25.50955,20.35071 h 38.97746 v 17.54053 h -33.615 z m 5.77225,3.14296 v 2.81016 h 7.9251 v -2.81016 z" />
    </g>
  </g>
</svg>
