<?xml version="1.0" encoding="UTF-8" standalone="no"?>
<!-- Created with Inkscape (http://www.inkscape.org/) -->

<svg
   width="90"
   height="90"
   viewBox="0 0 90 90"
   version="1.1"
   id="svg1"
   inkscape:version="1.3.2 (091e20e, 2023-11-25, custom)"
   sodipodi:docname="emissions-range.svg"
   xmlns:inkscape="http://www.inkscape.org/namespaces/inkscape"
   xmlns:sodipodi="http://sodipodi.sourceforge.net/DTD/sodipodi-0.dtd"
   xmlns="http://www.w3.org/2000/svg"
   xmlns:svg="http://www.w3.org/2000/svg">
  <sodipodi:namedview
     id="namedview1"
     pagecolor="#ffffff"
     bordercolor="#000000"
     borderopacity="0.25"
     inkscape:showpageshadow="2"
     inkscape:pageopacity="0.0"
     inkscape:pagecheckerboard="0"
     inkscape:deskcolor="#d1d1d1"
     inkscape:document-units="px"
     inkscape:zoom="3.9878868"
     inkscape:cx="56.546239"
     inkscape:cy="11.534931"
     inkscape:window-width="1920"
     inkscape:window-height="1018"
     inkscape:window-x="-6"
     inkscape:window-y="-6"
     inkscape:window-maximized="1"
     inkscape:current-layer="g1" />
  <defs
     id="defs1" />
  <g
     inkscape:label="Layer 1"
     inkscape:groupmode="layer"
     id="layer1">
    <g
       id="g135"
       transform="matrix(0.9448819,0,0,0.9448819,-531.53019,540.59387)">
      <g
         id="g77-7-0"
         transform="matrix(1.0583304,0,0,1.0583347,78.266733,-370.12928)"
         style="fill:#ececec;fill-opacity:1">
        <g
           id="g72-0-2-8"
           transform="translate(-5.4306569,24.849881)"
           style="fill:#ececec;fill-opacity:1">
          <g
             id="g68-0-9-5-8-7"
             transform="translate(108.34109,-20.340304)"
             style="fill:#ececec;fill-opacity:1">
            <path
               id="path44-6-4-7-05-6-0-4-6-8-7-8-3"
               style="fill:#ececec;fill-opacity:1;stroke-width:0.930373"
               inkscape:transform-center-x="-0.1984375"
               inkscape:transform-center-y="-0.099218749"
               d="m 392.16827,-195.37474 a 22.5,22.5 0 0 0 -21.04729,14.71073 l -13.05709,31.5221 0.0227,0.009 a 30,30 0 0 0 -3.41839,13.75781 30,30 0 0 0 29.99145,29.99972 v 5.2e-4 h 37.48815 v -0.002 a 22.5,22.5 0 0 0 0.0207,0.002 22.5,22.5 0 0 0 22.48905,-22.34747 h 0.0109 v -37.51989 h -0.009 a 15,15 0 0 0 0.009,-0.13229 15,15 0 0 0 -9.72498,-14.03789 l -32.38355,-13.41314 a 22.5,22.5 0 0 0 -10.39162,-2.5492 z" />
          </g>
        </g>
      </g>
    </g>
    <g
       id="g1"
       transform="matrix(0.25,0,0,0.25,19.490303,30.766224)"
       style="fill:#4d4d4d;fill-opacity:1">
      <path
         id="path11-7-9-7-2-3"
         style="fill:#4d4d4d;fill-opacity:1;stroke:none;stroke-width:3.83393;stroke-dasharray:none;stroke-opacity:1"
         d="m 137.47311,-36.94933 c -8.48542,5e-4 -15.36374,6.879835 -15.36329,15.365253 5e-4,8.484732 6.87848,15.3628295 15.36329,15.3632465 8.48542,5e-4 15.36484,-6.8778715 15.36525,-15.3632465 5e-4,-8.48606 -6.87923,-15.365745 -15.36525,-15.365253 z m 0,10.621115 c 2.61985,-1.52e-4 4.74429,2.12432 4.74414,4.744138 -1.2e-4,2.619665 -2.12448,4.74232 -4.74414,4.74217 -2.61944,-1.15e-4 -4.74206,-2.122693 -4.74218,-4.74217 -1.5e-4,-2.619628 2.12255,-4.744025 4.74218,-4.744138 z m 39.75193,3.0449 A 18.614174,18.614174 0 0 0 158.61178,-4.6680875 18.614174,18.614174 0 0 0 177.22504,13.945216 18.614174,18.614174 0 0 0 195.84031,-4.6680875 18.614174,18.614174 0 0 0 177.22504,-23.283315 Z m 0,10.62111 a 7.9937008,7.9937007 0 0 1 7.99416,7.9941175 7.9937008,7.9937007 0 0 1 -7.99416,7.992187 7.9937008,7.9937007 0 0 1 -7.99218,-7.992187 7.9937008,7.9937007 0 0 1 7.99218,-7.9941175 z m -98.439412,4.4902295 c -19.30783,10e-4 -34.9581,15.659225 -34.95704,34.9667915 7e-5,1.850419 0.18671,3.653518 0.46484,5.425776 -16.1427,3.095017 -28.34275,17.287181 -28.34181,34.332018 9.9e-4,19.198273 15.47959,34.76457 34.63673,34.93946 v 0.0155 H 161.20359 v -0.0155 C 180.36065,101.31719 195.83933,85.750733 195.84031,66.55261 195.8413,48.896094 182.75083,34.29903 165.74654,31.929569 162.89757,15.483711 148.56855,2.9695795 131.30904,2.9706025 h -0.002 c -8.15909,5e-4 -15.65783,2.807432 -21.60548,7.4941225 C 103.8366,-0.61719046 92.195128,-8.1727675 78.785548,-8.1719755 Z m 0.002,10.621078 c 11.66619,-7.5e-4 21.405802,8.2138575 23.779312,19.1699155 h 10.79686 c -0.004,-0.03402 -0.008,-0.06792 -0.0113,-0.101556 4.4502,-4.866142 10.8441,-7.925443 17.95702,-7.925783 11.43058,-6.75e-4 21.01754,7.881902 23.63282,18.505852 l 2.0586,10.447294 c 1.26701,-0.203716 2.55647,-0.33789 3.88085,-0.33789 13.44238,6.5e-4 24.34058,10.901669 24.33986,24.343748 -7.5e-4,13.44151 -10.8985,24.33524 -24.33986,24.33592 H 50.911008 c -13.4414,-7.5e-4 -24.33918,-10.89441 -24.33986,-24.33592 -7.2e-4,-12.74914 9.80765,-23.194658 22.28712,-24.240264 l 7.56442,-0.955049 -1.4414,-9.527357 c -0.34431,-1.625159 -0.53306,-3.307125 -0.53318,-5.035162 -7.5e-4,-13.442268 10.89748,-24.3431065 24.33982,-24.3437485 z m -40.30662,106.9687475 -22.52931,22.53125 0.0151,0.0155 -0.0151,0.0178 22.52931,22.5293 7.50977,-7.50977 -9.72658,-9.72656 H 175.52592 l -9.72658,9.72656 7.51174,7.50977 22.52931,-22.5293 -0.0189,-0.0178 0.0189,-0.0155 -22.52931,-22.53125 -7.51174,7.51172 9.72461,9.72461 H 36.266088 l 9.72461,-9.72461 z" />
    </g>
  </g>
</svg>
