<?xml version="1.0" encoding="UTF-8" standalone="no"?>
<!-- Created with Inkscape (http://www.inkscape.org/) -->

<svg
   width="90"
   height="90"
   viewBox="0 0 90 90"
   version="1.1"
   id="svg1"
   inkscape:version="1.3.2 (091e20e, 2023-11-25, custom)"
   sodipodi:docname="engine-cylinders.svg"
   xmlns:inkscape="http://www.inkscape.org/namespaces/inkscape"
   xmlns:sodipodi="http://sodipodi.sourceforge.net/DTD/sodipodi-0.dtd"
   xmlns="http://www.w3.org/2000/svg"
   xmlns:svg="http://www.w3.org/2000/svg">
  <sodipodi:namedview
     id="namedview1"
     pagecolor="#ffffff"
     bordercolor="#000000"
     borderopacity="0.25"
     inkscape:showpageshadow="2"
     inkscape:pageopacity="0.0"
     inkscape:pagecheckerboard="0"
     inkscape:deskcolor="#d1d1d1"
     inkscape:document-units="px"
     inkscape:zoom="2.8198618"
     inkscape:cx="62.59172"
     inkscape:cy="19.859129"
     inkscape:window-width="1920"
     inkscape:window-height="1018"
     inkscape:window-x="-6"
     inkscape:window-y="-6"
     inkscape:window-maximized="1"
     inkscape:current-layer="g135" />
  <defs
     id="defs1" />
  <g
     inkscape:label="Layer 1"
     inkscape:groupmode="layer"
     id="layer1">
    <g
       id="g135"
       transform="matrix(0.9448819,0,0,0.9448819,-531.53019,540.59387)">
      <g
         id="g77-7-0"
         transform="matrix(1.0583304,0,0,1.0583347,78.266733,-370.12928)"
         style="fill:#ececec;fill-opacity:1">
        <g
           id="g72-0-2-8"
           transform="translate(-5.4306569,24.849881)"
           style="fill:#ececec;fill-opacity:1">
          <g
             id="g68-0-9-5-8-7"
             transform="translate(108.34109,-20.340304)"
             style="fill:#ececec;fill-opacity:1">
            <path
               id="path44-6-4-7-05-6-0-4-6-8-7-8-3"
               style="fill:#ececec;fill-opacity:1;stroke-width:0.930373"
               inkscape:transform-center-x="-0.1984375"
               inkscape:transform-center-y="-0.099218749"
               d="m 392.16827,-195.37474 a 22.5,22.5 0 0 0 -21.04729,14.71073 l -13.05709,31.5221 0.0227,0.009 a 30,30 0 0 0 -3.41839,13.75781 30,30 0 0 0 29.99145,29.99972 v 5.2e-4 h 37.48815 v -0.002 a 22.5,22.5 0 0 0 0.0207,0.002 22.5,22.5 0 0 0 22.48905,-22.34747 h 0.0109 v -37.51989 h -0.009 a 15,15 0 0 0 0.009,-0.13229 15,15 0 0 0 -9.72498,-14.03789 l -32.38355,-13.41314 a 22.5,22.5 0 0 0 -10.39162,-2.5492 z" />
          </g>
        </g>
      </g>
      <path
         id="rect5-9-0-2-9-7-1-0"
         style="fill:#4d4d4d;fill-opacity:1;fill-rule:evenodd;stroke-width:0.155406"
         d="m 603.24855,-538.19955 v 0.006 l -6.76238,6.76239 h -6.36757 v 2.81068 h 7.5396 v -0.008 l 6.75979,-6.75981 h 13.55369 l 5.1785,6.1712 v 0.0119 h 9.84126 v -2.81017 h -0.004 v -0.91364 h 5.73815 v -2.81016 h -8.54986 v 2.81016 h 10e-4 v 0.91364 h -5.70663 l -5.17643,-6.1686 v -0.015 z m -7.73131,12.73978 c -2.72002,1.4e-4 -4.92492,2.20527 -4.92476,4.92529 1.3e-4,2.71982 2.20494,4.92463 4.92476,4.92477 2.72002,1.5e-4 4.92515,-2.20475 4.92528,-4.92477 1.6e-4,-2.72023 -2.20506,-4.92544 -4.92528,-4.92529 z m 11.43755,0 c -2.72002,1.4e-4 -4.92492,2.20527 -4.92477,4.92529 1.3e-4,2.71982 2.20494,4.92463 4.92477,4.92477 2.72002,1.5e-4 4.92515,-2.20475 4.92528,-4.92477 1.5e-4,-2.72023 -2.20506,-4.92544 -4.92528,-4.92529 z m 11.43754,0 c -2.72002,1.4e-4 -4.92492,2.20527 -4.92476,4.92529 1.3e-4,2.71982 2.20494,4.92463 4.92476,4.92477 2.72002,1.5e-4 4.92515,-2.20475 4.92528,-4.92477 1.6e-4,-2.72023 -2.20506,-4.92544 -4.92528,-4.92529 z m 11.43755,0 c -2.72002,1.4e-4 -4.92492,2.20527 -4.92477,4.92529 1.3e-4,2.71982 2.20494,4.92463 4.92477,4.92477 2.72002,1.4e-4 4.92515,-2.20475 4.92528,-4.92477 1.5e-4,-2.72023 -2.20506,-4.92543 -4.92528,-4.92529 z m -34.31264,2.81018 c 1.16817,-6e-5 2.11518,0.94694 2.11512,2.11511 -2.2e-4,1.16797 -0.94715,2.11465 -2.11512,2.1146 -1.16777,-2.2e-4 -2.11438,-0.94683 -2.1146,-2.1146 -6e-5,-1.16797 0.94663,-2.1149 2.1146,-2.11511 z m 11.43755,0 c 1.16817,-6e-5 2.11517,0.94694 2.11511,2.11511 -2.2e-4,1.16797 -0.94714,2.11465 -2.11511,2.1146 -1.16777,-2.2e-4 -2.11438,-0.94683 -2.1146,-2.1146 -6e-5,-1.16797 0.94663,-2.1149 2.1146,-2.11511 z m 11.43754,0 c 1.16817,-6e-5 2.11518,0.94694 2.11512,2.11511 -2.2e-4,1.16797 -0.94715,2.11465 -2.11512,2.1146 -1.16777,-2.2e-4 -2.11438,-0.94683 -2.1146,-2.1146 -6e-5,-1.16797 0.94663,-2.1149 2.1146,-2.11511 z m 11.43755,0 c 1.16817,-6e-5 2.11517,0.94694 2.11511,2.11511 -2.2e-4,1.16797 -0.94714,2.11465 -2.11511,2.1146 -1.16777,-2.2e-4 -2.11438,-0.94683 -2.1146,-2.1146 -6e-5,-1.16797 0.94663,-2.1149 2.1146,-2.11511 z m -3.08405,9.88466 -7.61349,7.61401 h -13.52063 l -5.17746,-6.17017 v -0.0124 h -10.37094 v 2.81068 h 9.0501 l 5.17694,6.16913 v 0.0129 h 16.04501 v -0.0651 l 0.0129,0.0129 7.55716,-7.55716 h 2.26291 v 4.77128 0.57826 h 8.54987 v -2.81016 h -5.73919 v -3.01067 -2.33888 h -6.22856 z"
         sodipodi:nodetypes="cccccccccccccccccccccccccsssssssssssssssssssscccccccccccccccccccccccccccccccccccccccccccc" />
    </g>
  </g>
</svg>
