<?xml version="1.0" encoding="UTF-8" standalone="no"?>
<!-- Created with Inkscape (http://www.inkscape.org/) -->

<svg
   width="90"
   height="90"
   viewBox="0 0 90 90"
   version="1.1"
   id="svg1"
   inkscape:version="1.3.2 (091e20e, 2023-11-25, custom)"
   sodipodi:docname="engine-capacity.svg"
   xmlns:inkscape="http://www.inkscape.org/namespaces/inkscape"
   xmlns:sodipodi="http://sodipodi.sourceforge.net/DTD/sodipodi-0.dtd"
   xmlns="http://www.w3.org/2000/svg"
   xmlns:svg="http://www.w3.org/2000/svg">
  <sodipodi:namedview
     id="namedview1"
     pagecolor="#ffffff"
     bordercolor="#000000"
     borderopacity="0.25"
     inkscape:showpageshadow="2"
     inkscape:pageopacity="0.0"
     inkscape:pagecheckerboard="0"
     inkscape:deskcolor="#d1d1d1"
     inkscape:document-units="px"
     inkscape:zoom="2.8198618"
     inkscape:cx="62.414406"
     inkscape:cy="19.859129"
     inkscape:window-width="1920"
     inkscape:window-height="1018"
     inkscape:window-x="-6"
     inkscape:window-y="-6"
     inkscape:window-maximized="1"
     inkscape:current-layer="g135" />
  <defs
     id="defs1" />
  <g
     inkscape:label="Layer 1"
     inkscape:groupmode="layer"
     id="layer1">
    <g
       id="g135"
       transform="matrix(0.9448819,0,0,0.9448819,-531.53019,540.59387)">
      <g
         id="g77-7-0"
         transform="matrix(1.0583304,0,0,1.0583347,78.266733,-370.12928)"
         style="fill:#ececec;fill-opacity:1">
        <g
           id="g72-0-2-8"
           transform="translate(-5.4306569,24.849881)"
           style="fill:#ececec;fill-opacity:1">
          <g
             id="g68-0-9-5-8-7"
             transform="translate(108.34109,-20.340304)"
             style="fill:#ececec;fill-opacity:1">
            <path
               id="path44-6-4-7-05-6-0-4-6-8-7-8-3"
               style="fill:#ececec;fill-opacity:1;stroke-width:0.930373"
               inkscape:transform-center-x="-0.1984375"
               inkscape:transform-center-y="-0.099218749"
               d="m 392.16827,-195.37474 a 22.5,22.5 0 0 0 -21.04729,14.71073 l -13.05709,31.5221 0.0227,0.009 a 30,30 0 0 0 -3.41839,13.75781 30,30 0 0 0 29.99145,29.99972 v 5.2e-4 h 37.48815 v -0.002 a 22.5,22.5 0 0 0 0.0207,0.002 22.5,22.5 0 0 0 22.48905,-22.34747 h 0.0109 v -37.51989 h -0.009 a 15,15 0 0 0 0.009,-0.13229 15,15 0 0 0 -9.72498,-14.03789 l -32.38355,-13.41314 a 22.5,22.5 0 0 0 -10.39162,-2.5492 z" />
          </g>
        </g>
      </g>
      <g
         id="g61"
         transform="translate(429.48885,-375.79984)"
         style="fill:#4d4d4d;fill-opacity:1">
        <path
           id="rect5-9-0-2-9-7-9"
           style="fill:#4d4d4d;fill-opacity:1;fill-rule:evenodd;stroke-width:0.155406"
           d="m -133.77962,-197.07686 7.614,7.61401 v 13.52062 l -6.17016,5.17746 h -0.0119 v 10.37043 h 2.81017 v -9.0501 l 6.16913,-5.17643 h 0.0129 v -16.04553 h -0.0651 l 0.0129,-0.0129 -7.55716,-7.55716 v -2.26291 h 2.53938 2.23242 0.57775 v -8.54987 h -2.81017 v 5.73971 h -3.01015 -2.33939 v 6.22804 z"
           transform="rotate(90)" />
        <path
           id="rect5-9-0-2-9-7-4-0"
           style="fill:#4d4d4d;fill-opacity:1;fill-rule:evenodd;stroke-width:0.155406"
           d="m 163.44706,173.57959 h -0.005 l -6.76289,-6.7629 v -6.36705 h -2.81016 v 7.53959 h 0.008 l 6.7598,6.75979 v 13.55318 l -6.1712,5.1785 h -0.0119 v 0.01 l -5.1e-4,5.1e-4 5.1e-4,5.2e-4 v 9.83092 h 2.81017 v -8.52092 l 6.16913,-5.17695 h 0.0139 z m -2.45928,26.92703 h -2.81016 v 8.54987 h 2.81016 z"
           transform="rotate(-90)" />
        <rect
           style="fill:#4d4d4d;fill-opacity:1;fill-rule:evenodd;stroke-width:0.121691"
           id="rect5-9-0-2-9-4-1-3-6-7"
           width="2.8103623"
           height="5.2424445"
           x="200.50777"
           y="-160.92227" />
        <path
           id="rect5-9-0-2-9-4-1-3-6-3-8"
           style="fill:#4d4d4d;fill-opacity:1;fill-rule:evenodd;stroke-width:0.277318"
           d="m 182.53666,-159.54342 -7.80831,7.80779 1.98748,1.98747 4.4204,-4.42092 v 21.48862 l -4.4204,-4.42092 -1.98748,1.98747 7.80831,7.80779 0.005,-0.005 0.005,0.005 7.8078,-7.80779 -1.98748,-1.98747 -4.41989,4.4204 v -21.48758 l 4.42041,4.4204 1.98696,-1.98747 -7.8078,-7.80779 -0.005,0.005 z" />
      </g>
    </g>
  </g>
</svg>
