<?xml version="1.0" encoding="UTF-8" standalone="no"?>
<!-- Created with Inkscape (http://www.inkscape.org/) -->

<svg
   width="90"
   height="90"
   viewBox="0 0 90 90"
   version="1.1"
   id="svg1"
   inkscape:version="1.3.2 (091e20e, 2023-11-25, custom)"
   sodipodi:docname="engine.svg"
   xmlns:inkscape="http://www.inkscape.org/namespaces/inkscape"
   xmlns:sodipodi="http://sodipodi.sourceforge.net/DTD/sodipodi-0.dtd"
   xmlns="http://www.w3.org/2000/svg"
   xmlns:svg="http://www.w3.org/2000/svg">
  <sodipodi:namedview
     id="namedview1"
     pagecolor="#ffffff"
     bordercolor="#000000"
     borderopacity="0.25"
     inkscape:showpageshadow="2"
     inkscape:pageopacity="0.0"
     inkscape:pagecheckerboard="0"
     inkscape:deskcolor="#d1d1d1"
     inkscape:document-units="px"
     inkscape:zoom="2.8198618"
     inkscape:cx="62.414406"
     inkscape:cy="19.859129"
     inkscape:window-width="1920"
     inkscape:window-height="1018"
     inkscape:window-x="-6"
     inkscape:window-y="-6"
     inkscape:window-maximized="1"
     inkscape:current-layer="g135" />
  <defs
     id="defs1" />
  <g
     inkscape:label="Layer 1"
     inkscape:groupmode="layer"
     id="layer1">
    <g
       id="g135"
       transform="matrix(0.9448819,0,0,0.9448819,-531.53019,540.59387)">
      <g
         id="g77-7-0"
         transform="matrix(1.0583304,0,0,1.0583347,78.266733,-370.12928)"
         style="fill:#ececec;fill-opacity:1">
        <g
           id="g72-0-2-8"
           transform="translate(-5.4306569,24.849881)"
           style="fill:#ececec;fill-opacity:1">
          <g
             id="g68-0-9-5-8-7"
             transform="translate(108.34109,-20.340304)"
             style="fill:#ececec;fill-opacity:1">
            <path
               id="path44-6-4-7-05-6-0-4-6-8-7-8-3"
               style="fill:#ececec;fill-opacity:1;stroke-width:0.930373"
               inkscape:transform-center-x="-0.1984375"
               inkscape:transform-center-y="-0.099218749"
               d="m 392.16827,-195.37474 a 22.5,22.5 0 0 0 -21.04729,14.71073 l -13.05709,31.5221 0.0227,0.009 a 30,30 0 0 0 -3.41839,13.75781 30,30 0 0 0 29.99145,29.99972 v 5.2e-4 h 37.48815 v -0.002 a 22.5,22.5 0 0 0 0.0207,0.002 22.5,22.5 0 0 0 22.48905,-22.34747 h 0.0109 v -37.51989 h -0.009 a 15,15 0 0 0 0.009,-0.13229 15,15 0 0 0 -9.72498,-14.03789 l -32.38355,-13.41314 a 22.5,22.5 0 0 0 -10.39162,-2.5492 z" />
          </g>
        </g>
      </g>
      <path
         id="rect5-1-0"
         style="fill:#4d4d4d;fill-opacity:1;fill-rule:evenodd;stroke-width:0.27198"
         d="m 603.34786,-538.18354 v 2.81068 h 7.47293 v 2.86752 h -5.48959 v 0.001 l -10e-4,-0.001 -5.17746,5.17747 h -5.48287 v 0.005 h -1.70635 v 8.33541 h -3.20808 v -10.82622 h -2.81068 v 24.46259 h 2.81068 v -10.82621 h 3.20808 v 8.33541 h 2.81068 v -0.007 h 6.3841 l 4.59559,5.47719 v 0.0109 h 0.009 l 0.004,0.004 0.005,-0.004 h 13.779 v -0.0165 l 0.0165,0.0165 6.61097,-6.61097 h 1.25212 v 4.63951 h 2.81016 v -0.0176 h 6.37016 v -2.81016 -23.37687 h -5e-4 -8.81393 v 0.42168 h -0.0104 v 2.80965 h -4.46491 l -5.19297,-5.19296 v -0.006 h -5.49682 v -2.86752 h 7.47293 v -2.81068 z m 3.14658,8.48837 h 11.46287 l 5.18366,5.18366 0.007,-0.007 v 0.0227 h 5.63738 v 10e-4 h 2.81017 v -3.23236 h 3.20393 v 20.5667 h -3.55947 v -1.81178 h 0.009 v -2.81016 h -5.22242 l -0.007,-0.007 -0.007,0.007 h -0.007 v 0.007 l -6.60373,6.60373 h -11.32958 l -4.61418,-5.49941 -0.0139,0.0119 h -7.67085 v -13.85807 h 5.53041 l 0.006,0.006 0.006,-0.006 h 0.003 v -0.003 z" />
    </g>
  </g>
</svg>
