<?xml version="1.0" encoding="UTF-8" standalone="no"?>
<!-- Created with Inkscape (http://www.inkscape.org/) -->

<svg
   width="90"
   height="90"
   viewBox="0 0 90 90"
   version="1.1"
   id="svg1"
   inkscape:version="1.3.2 (091e20e, 2023-11-25, custom)"
   sodipodi:docname="fule-type.svg"
   xmlns:inkscape="http://www.inkscape.org/namespaces/inkscape"
   xmlns:sodipodi="http://sodipodi.sourceforge.net/DTD/sodipodi-0.dtd"
   xmlns="http://www.w3.org/2000/svg"
   xmlns:svg="http://www.w3.org/2000/svg">
  <sodipodi:namedview
     id="namedview1"
     pagecolor="#ffffff"
     bordercolor="#000000"
     borderopacity="0.25"
     inkscape:showpageshadow="2"
     inkscape:pageopacity="0.0"
     inkscape:pagecheckerboard="0"
     inkscape:deskcolor="#d1d1d1"
     inkscape:document-units="px"
     inkscape:zoom="3.9878868"
     inkscape:cx="60.809149"
     inkscape:cy="39.619981"
     inkscape:window-width="1920"
     inkscape:window-height="1018"
     inkscape:window-x="-6"
     inkscape:window-y="-6"
     inkscape:window-maximized="1"
     inkscape:current-layer="g135" />
  <defs
     id="defs1" />
  <g
     inkscape:label="Layer 1"
     inkscape:groupmode="layer"
     id="layer1">
    <g
       id="g135"
       transform="matrix(0.9448819,0,0,0.9448819,-531.53019,540.59387)">
      <g
         id="g77-7-0"
         transform="matrix(1.0583304,0,0,1.0583347,78.266733,-370.12928)"
         style="fill:#ececec;fill-opacity:1">
        <g
           id="g72-0-2-8"
           transform="translate(-5.4306569,24.849881)"
           style="fill:#ececec;fill-opacity:1">
          <g
             id="g68-0-9-5-8-7"
             transform="translate(108.34109,-20.340304)"
             style="fill:#ececec;fill-opacity:1">
            <path
               id="path44-6-4-7-05-6-0-4-6-8-7-8-3"
               style="fill:#ececec;fill-opacity:1;stroke-width:0.930373"
               inkscape:transform-center-x="-0.1984375"
               inkscape:transform-center-y="-0.099218749"
               d="m 392.16827,-195.37474 a 22.5,22.5 0 0 0 -21.04729,14.71073 l -13.05709,31.5221 0.0227,0.009 a 30,30 0 0 0 -3.41839,13.75781 30,30 0 0 0 29.99145,29.99972 v 5.2e-4 h 37.48815 v -0.002 a 22.5,22.5 0 0 0 0.0207,0.002 22.5,22.5 0 0 0 22.48905,-22.34747 h 0.0109 v -37.51989 h -0.009 a 15,15 0 0 0 0.009,-0.13229 15,15 0 0 0 -9.72498,-14.03789 l -32.38355,-13.41314 a 22.5,22.5 0 0 0 -10.39162,-2.5492 z" />
          </g>
        </g>
      </g>
      <g
         id="g70"
         transform="translate(346.47398,-549.10078)"
         style="fill:#4d4d4d;fill-opacity:1">
        <path
           id="path14-7"
           style="fill:#4d4d4d;fill-opacity:1;fill-rule:evenodd;stroke-width:0.191171"
           d="m 282.51299,25.493018 -9.10901,9.109004 c 2.57898,1.874096 5.20167,3.686393 7.81296,5.514909 l -6.56807,6.568075 v -6.362919 h -2.81017 v 11.04222 h 0.006 v 0.0062 h 11.04222 v -2.810165 h -6.1402 c 2.94139,-2.943942 5.87783,-5.892825 8.84597,-8.809798 l -0.0207,-0.01447 0.0207,-0.02067 c -2.63992,-1.793526 -5.24523,-3.637287 -7.85946,-5.467883 l 6.76702,-6.767546 z" />
        <rect
           style="fill:#4d4d4d;fill-opacity:1;fill-rule:evenodd;stroke-width:0.389125"
           id="rect5-9-0-1-1-8-7-9-7-4-7-8-3-8"
           width="2.8103623"
           height="53.603333"
           x="209.4391"
           y="-194.20474"
           transform="rotate(45)" />
        <path
           id="rect5-9-0-1-1-8-7-9-7-4-7-8-3-2-6"
           style="fill:#4d4d4d;fill-opacity:1;fill-rule:evenodd;stroke-width:0.166608"
           d="m 254.96096,6.2032959 v 0.003 c -8.20995,10.7268501 -9.22339,12.9692301 -9.22321,16.0067701 2.9e-4,5.09941 4.12714,9.23451 9.22321,9.24905 6.9e-4,0 0.001,0 0.002,0 5.09607,-0.0145 9.22292,-4.14964 9.22321,-9.24905 1.8e-4,-3.03754 -1.01326,-5.27992 -9.22321,-16.0067701 v -0.003 c -3.9e-4,5.2e-4 -6.3e-4,0.001 -0.001,0.002 -4e-4,-5.2e-4 -6.4e-4,-0.001 -0.001,-0.002 z m 0.001,4.7072101 c 1.97768,2.62276 4.0549,5.16767 5.564,8.10286 0.54093,0.94248 0.85014,2.03453 0.85008,3.19929 -2e-4,3.54755 -2.86886,6.42385 -6.41305,6.43837 -6.9e-4,-1e-5 -0.001,0 -0.002,0 -3.54419,-0.0145 -6.41285,-2.89082 -6.41305,-6.43837 -6e-5,-1.16476 0.30915,-2.25681 0.85008,-3.19929 1.5091,-2.93519 3.58632,-5.4801 5.564,-8.10286 z" />
      </g>
    </g>
  </g>
</svg>
