<?xml version="1.0" encoding="UTF-8"?>
<svg xmlns="http://www.w3.org/2000/svg" version="1.1" viewBox="0 0 112 112">
  <defs>
    <style>
      .cls-1 {
        fill: #f2f4f7;
      }

      .cls-2 {
        fill: none;
        stroke: #475467;
        stroke-miterlimit: 10;
        stroke-width: 4px;
      }
    </style>
  </defs>
  <!-- Generator: Adobe Illustrator 28.6.0, SVG Export Plug-In . SVG Version: 1.2.0 Build 709)  -->
  <g>
    <g id="Layer_1">
      <path class="cls-1" d="M37.4.8c12.4-1.1,26.5-1.1,39.1.4,16.3,2.1,30.1,13.1,34.4,28.8,2,8,.9,17-1.5,24.9-3.8,12.2-8.9,21.7-13.9,32.3-2.5,4.7-4.7,10.3-7.9,14-5.9,6.3-13.6,9.8-22.9,10.6-6.6.4-12.9-1-18.9-3.1-8.6-3-17.4-7-25.6-10.8-4.8-2.3-9.3-4.2-12.2-8.6C.9,79-1.2,66.5.6,53.9c.9-7.8,2.4-16,3.6-22.4,1.2-5.8,2.5-11.2,5.4-15.8C15.7,6.6,26.9,2.2,37.2.8h.2Z"/>
      <g>
        <g>
          <path class="cls-2" d="M55.1,50.9c-.7-.5-1.3-.9-2-1.4-1.4-1-1.4-3,0-4,.6-.4,1.2-.8,1.8-1.3.7-.5.7-.6.3-1.3-1-1.7-1.9-3.3-2.9-5-.4-.6-.5-.7-1.2-.4-.8.4-1.6.8-2.4,1.1-1.4.5-2.9-.5-3.1-1.9-.1-.8-.2-1.6-.2-2.4,0-.8-.2-.9-1-.9-1.9,0-3.9,0-5.8,0-.6,0-.8.2-.9.8,0,.8-.1,1.5-.2,2.3-.2,1.6-1.7,2.6-3.2,2.1-.8-.3-1.6-.7-2.4-1.1-.5-.2-.8-.1-1.1.3-1,1.7-2,3.5-3,5.2-.2.4-.2.7.2,1,.6.4,1.2.8,1.8,1.2,1.8,1.2,1.8,3.1,0,4.4-.6.4-1.2.8-1.8,1.2-.4.3-.5.5-.2,1,1,1.8,2.1,3.5,3.1,5.3.2.4.5.5.9.3.7-.3,1.4-.7,2.1-1,1.8-.8,3.4.2,3.6,2.2,0,.7.1,1.4.2,2.1,0,.5.3.7.8.7,1,0,2,0,3,0,1,0,1.9,0,2.9,0,.8,0,.9-.1,1-.9,0-.7.1-1.4.2-2.1.2-1.9,1.9-2.8,3.6-2,.7.3,1.3.6,2,.9.5.2.8.2,1.1-.3,1-1.7,2-3.5,3-5.2.3-.4.2-.7-.2-1Z"/>
          <path class="cls-2" d="M41.6,51.8c-2.3,0-4.2-1.9-4.2-4.3,0-2.3,1.9-4.2,4.3-4.2,2.3,0,4.2,1.9,4.2,4.2,0,2.3-1.9,4.2-4.3,4.2Z"/>
        </g>
        <g>
          <path class="cls-2" d="M79.9,74.5c-.3-.7-.7-1.5-1-2.2-.7-1.6.3-3.3,2.1-3.4.7,0,1.5-.1,2.2-.2.8,0,.9-.1.9-.9,0-1.9,0-3.9,0-5.8,0-.7-.1-.8-.8-.9-.9-.1-1.8-.2-2.7-.3-1.4-.3-2.2-1.9-1.6-3.2.3-.7.7-1.5,1.1-2.2.3-.7.3-.9-.4-1.3-1.6-1-3.3-2-4.9-3-.5-.3-.8-.2-1.2.2-.4.6-.9,1.3-1.4,1.9-1,1.3-2.8,1.4-3.8.1-.6-.7-1-1.4-1.5-2.2-.3-.5-.6-.5-1.1-.3-1.7,1-3.5,2-5.3,2.9-.4.2-.5.5-.3.9.3.6.6,1.3.9,2,.9,2-.1,3.6-2.2,3.7-.7,0-1.4.1-2.1.2-.5,0-.7.2-.7.7,0,2,0,4.1-.1,6.1,0,.5.2.7.7.7.8,0,1.5.1,2.3.2,2,.3,2.8,2,2,3.7-.3.6-.6,1.3-.9,1.9-.2.5-.1.8.3,1,.9.5,1.7,1,2.6,1.5.8.5,1.6,1,2.5,1.5.7.4.8.4,1.3-.3.4-.6.8-1.2,1.3-1.7,1.1-1.5,3-1.4,4.1.1.4.6.8,1.2,1.2,1.8.3.4.6.6,1.1.3,1.7-1,3.5-2,5.3-2.9.5-.2.5-.5.3-1Z"/>
          <path class="cls-2" d="M67.9,68.2c-2-1.2-2.6-3.8-1.4-5.8,1.2-2,3.8-2.6,5.8-1.4,2,1.2,2.7,3.8,1.4,5.8-1.2,2-3.8,2.6-5.9,1.4Z"/>
        </g>
      </g>
    </g>
  </g>
</svg>