<?xml version="1.0" encoding="UTF-8" standalone="no"?>
<!-- Created with Inkscape (http://www.inkscape.org/) -->

<svg
   width="90"
   height="90"
   viewBox="0 0 90 90"
   version="1.1"
   id="svg1"
   inkscape:version="1.3.2 (091e20e, 2023-11-25, custom)"
   sodipodi:docname="gears.svg"
   xmlns:inkscape="http://www.inkscape.org/namespaces/inkscape"
   xmlns:sodipodi="http://sodipodi.sourceforge.net/DTD/sodipodi-0.dtd"
   xmlns="http://www.w3.org/2000/svg"
   xmlns:svg="http://www.w3.org/2000/svg">
  <sodipodi:namedview
     id="namedview1"
     pagecolor="#ffffff"
     bordercolor="#000000"
     borderopacity="0.25"
     inkscape:showpageshadow="2"
     inkscape:pageopacity="0.0"
     inkscape:pagecheckerboard="0"
     inkscape:deskcolor="#d1d1d1"
     inkscape:document-units="px"
     inkscape:zoom="7.9757736"
     inkscape:cx="71.278353"
     inkscape:cy="42.002195"
     inkscape:window-width="1920"
     inkscape:window-height="1018"
     inkscape:window-x="-6"
     inkscape:window-y="-6"
     inkscape:window-maximized="1"
     inkscape:current-layer="g135" />
  <defs
     id="defs1" />
  <g
     inkscape:label="Layer 1"
     inkscape:groupmode="layer"
     id="layer1">
    <g
       id="g135"
       transform="matrix(0.9448819,0,0,0.9448819,-531.53019,540.59387)">
      <g
         id="g77-7-0"
         transform="matrix(1.0583304,0,0,1.0583347,78.266733,-370.12928)"
         style="fill:#ececec;fill-opacity:1">
        <g
           id="g72-0-2-8"
           transform="translate(-5.4306569,24.849881)"
           style="fill:#ececec;fill-opacity:1">
          <g
             id="g68-0-9-5-8-7"
             transform="translate(108.34109,-20.340304)"
             style="fill:#ececec;fill-opacity:1">
            <path
               id="path44-6-4-7-05-6-0-4-6-8-7-8-3"
               style="fill:#ececec;fill-opacity:1;stroke-width:0.930373"
               inkscape:transform-center-x="-0.1984375"
               inkscape:transform-center-y="-0.099218749"
               d="m 392.16827,-195.37474 a 22.5,22.5 0 0 0 -21.04729,14.71073 l -13.05709,31.5221 0.0227,0.009 a 30,30 0 0 0 -3.41839,13.75781 30,30 0 0 0 29.99145,29.99972 v 5.2e-4 h 37.48815 v -0.002 a 22.5,22.5 0 0 0 0.0207,0.002 22.5,22.5 0 0 0 22.48905,-22.34747 h 0.0109 v -37.51989 h -0.009 a 15,15 0 0 0 0.009,-0.13229 15,15 0 0 0 -9.72498,-14.03789 l -32.38355,-13.41314 a 22.5,22.5 0 0 0 -10.39162,-2.5492 z" />
          </g>
        </g>
      </g>
      <path
         id="rect5-9-0-1-1-8-7-9-7-4-7-8-4-9-8-9-4-88-5-9-3-0-4-9-5"
         style="fill:#4d4d4d;fill-opacity:1;fill-rule:evenodd;stroke-width:0.109454"
         d="m 605.25473,-547.8416 10e-6,3.11505 c -1.30684,0.14629 -2.55197,0.49486 -3.70521,1.01234 l -1.58698,-2.74867 -2.43396,1.40508 1.60146,2.77348 c -0.95851,0.72454 -1.80897,1.58359 -2.52388,2.54972 l -2.697,-1.55702 -1.40507,2.43396 2.69595,1.5565 c -0.48896,1.12037 -0.81825,2.32565 -0.95963,3.5884 l -3.11506,10e-6 v 2.81068 h 3.11506 c 0.13846,1.23742 0.45636,2.42002 0.92914,3.52124 l -2.81275,1.62366 1.40509,2.43397 2.80137,-1.61748 c 0.74918,1.02505 1.64913,1.93213 2.66961,2.68718 l -1.55701,2.69699 2.43345,1.40508 1.55648,-2.69596 c 1.12046,0.48896 2.32604,0.8183 3.58894,0.95963 v 3.11454 l 2.81016,1e-5 v -3.11454 c 1.21884,-0.1364 2.38504,-0.44633 3.47213,-0.90744 l 1.52602,2.64376 2.43396,-1.4056 -1.51413,-2.62257 c 1.04274,-0.75527 1.96497,-1.66595 2.73059,-2.70062 l 2.69699,1.55701 1.40508,-2.43396 -2.69596,-1.5565 c 0.48885,-1.12031 0.81834,-2.32567 0.95964,-3.5884 h 3.11504 l 10e-6,-2.81069 -3.11557,10e-6 c -0.14423,-1.2881 -0.48433,-2.51627 -0.98961,-3.65559 l 2.57917,-1.48932 -1.40508,-2.43396 -2.59312,1.49707 c -0.73116,-0.97596 -1.60292,-1.84073 -2.5833,-2.56625 l 1.55701,-2.697 -2.43397,-1.40508 -1.55597,2.69545 c -1.1204,-0.48898 -2.3261,-0.81829 -3.58893,-0.95964 v -3.11453 z m 1.40457,5.8446 c 5.35205,-2.5e-4 9.69119,4.33831 9.69088,9.69036 -2.5e-4,5.35165 -4.33923,9.69015 -9.69088,9.68985 -5.35125,-2.5e-4 -9.68908,-4.33859 -9.68933,-9.68985 -2.5e-4,-5.35165 4.33767,-9.6901 9.68933,-9.69036 z m 21.58783,16.84186 -0.91519,3.41427 c -0.60575,-0.052 -1.22206,-0.0453 -1.84227,0.0248 l -0.88883,-3.31711 -2.71456,0.72709 0.88883,3.31763 c -0.64841,0.28258 -1.25082,0.63452 -1.80402,1.04231 l -2.42879,-2.42879 -1.98748,1.98695 2.43034,2.43034 c -0.4001,0.54387 -0.74143,1.12913 -1.01647,1.74564 l -3.35019,-0.89762 -0.7276,2.71456 3.33106,0.89245 c -0.0752,0.63182 -0.0859,1.27689 -0.0279,1.92702 l -3.3538,0.89864 0.7276,2.71457 3.29075,-0.8816 c 0.26746,0.6549 0.60133,1.26761 0.9953,1.82934 l -2.45257,2.45257 1.98747,1.98696 2.40813,-2.40812 c 0.54506,0.42089 1.13471,0.78057 1.75752,1.0728 l -0.88367,3.29799 2.71457,0.72709 0.86402,-3.22357 c 0.75886,0.10507 1.53863,0.11719 2.32389,0.0284 l 0.88935,3.31711 2.71457,-0.72708 -0.88884,-3.31762 c 0.64834,-0.28261 1.25089,-0.63454 1.80402,-1.04232 l 2.4288,2.42879 1.98747,-1.98696 -2.43034,-2.43034 c 0.42499,-0.57767 0.78211,-1.2025 1.06556,-1.86139 l 3.28973,0.8816 0.7276,-2.71456 -3.30574,-0.88573 c 0.0772,-0.73322 0.0675,-1.48376 -0.0357,-2.23811 l 3.29075,-0.8816 -0.72761,-2.71456 -3.35328,0.89865 c -0.29737,-0.6406 -0.65972,-1.23718 -1.08055,-1.78077 l 2.40605,-2.40605 -1.98747,-1.98697 -2.45464,2.45464 c -0.57618,-0.40352 -1.19642,-0.74181 -1.84846,-1.0077 l 0.8971,-3.34656 z m -1.77664,6.19084 c 2.92414,-0.0292 5.61103,1.91215 6.40271,4.8674 0.93824,3.50227 -1.14084,7.10162 -4.64312,8.03983 -3.50201,0.93818 -7.1013,-1.13969 -8.03982,-4.64158 -0.93861,-3.50216 1.13942,-7.10228 4.64157,-8.04086 0.54726,-0.14667 1.09716,-0.21937 1.63866,-0.22479 z m -21.21575,3.86489 v 2.91093 c -0.66596,0.15298 -1.31095,0.41658 -1.90738,0.79013 l -2.05828,-2.05827 -1.98695,1.98695 2.05827,2.05828 c -0.37348,0.59643 -0.6372,1.24142 -0.79013,1.90738 l -2.91042,-1e-5 v 2.80965 h 2.91042 c 0.15296,0.66587 0.41667,1.31103 0.79013,1.90737 l -2.05828,2.05828 1.98748,1.98696 2.05775,-2.05776 c 0.59628,0.37338 1.24162,0.63667 1.90739,0.78962 v 2.91041 l 2.81016,10e-6 v -2.91042 c 0.66579,-0.15296 1.31057,-0.41674 1.90686,-0.79013 l 2.05827,2.05827 1.98695,-1.98696 -2.05775,-2.05775 c 0.37354,-0.59642 0.63664,-1.24195 0.78962,-1.9079 h 2.91093 v -2.80964 l -2.91041,-1e-5 c -0.15293,-0.6659 -0.41669,-1.31097 -0.79014,-1.90738 l 2.05828,-2.05827 -1.98748,-1.98696 -2.05776,2.05776 c -0.59625,-0.3734 -1.24162,-0.63664 -1.90737,-0.78962 v -2.91093 z m 1.40507,5.55986 c 0.88049,-10e-5 1.76122,0.33589 2.43293,1.00769 1.34335,1.34347 1.34296,3.522 -5e-4,4.86534 -1.34339,1.34323 -3.52145,1.34325 -4.86483,0 -1.34346,-1.34334 -1.34334,-3.52135 1e-5,-4.86482 0.67172,-0.67179 1.55192,-1.00812 2.4324,-1.00821 z" />
    </g>
  </g>
</svg>
