<?xml version="1.0" encoding="UTF-8" standalone="no"?>
<!-- Created with Inkscape (http://www.inkscape.org/) -->

<svg
   width="90"
   height="90"
   viewBox="0 0 90 90"
   version="1.1"
   id="svg1"
   inkscape:version="1.3.2 (091e20e, 2023-11-25, custom)"
   sodipodi:docname="kilometers.svg"
   xmlns:inkscape="http://www.inkscape.org/namespaces/inkscape"
   xmlns:sodipodi="http://sodipodi.sourceforge.net/DTD/sodipodi-0.dtd"
   xmlns="http://www.w3.org/2000/svg"
   xmlns:svg="http://www.w3.org/2000/svg">
  <sodipodi:namedview
     id="namedview1"
     pagecolor="#ffffff"
     bordercolor="#000000"
     borderopacity="0.25"
     inkscape:showpageshadow="2"
     inkscape:pageopacity="0.0"
     inkscape:pagecheckerboard="0"
     inkscape:deskcolor="#d1d1d1"
     inkscape:document-units="px"
     inkscape:zoom="2.8198618"
     inkscape:cx="128.90703"
     inkscape:cy="193.98114"
     inkscape:window-width="1920"
     inkscape:window-height="1018"
     inkscape:window-x="-6"
     inkscape:window-y="-6"
     inkscape:window-maximized="1"
     inkscape:current-layer="g135" />
  <defs
     id="defs1" />
  <g
     inkscape:label="Layer 1"
     inkscape:groupmode="layer"
     id="layer1">
    <g
       id="g135"
       transform="matrix(0.9448819,0,0,0.9448819,-531.53019,540.59387)">
      <g
         id="g77-7-0"
         transform="matrix(1.0583304,0,0,1.0583347,78.266733,-370.12928)"
         style="fill:#ececec;fill-opacity:1">
        <g
           id="g72-0-2-8"
           transform="translate(-5.4306569,24.849881)"
           style="fill:#ececec;fill-opacity:1">
          <g
             id="g68-0-9-5-8-7"
             transform="translate(108.34109,-20.340304)"
             style="fill:#ececec;fill-opacity:1">
            <path
               id="path44-6-4-7-05-6-0-4-6-8-7-8-3"
               style="fill:#ececec;fill-opacity:1;stroke-width:0.930373"
               inkscape:transform-center-x="-0.1984375"
               inkscape:transform-center-y="-0.099218749"
               d="m 392.16827,-195.37474 a 22.5,22.5 0 0 0 -21.04729,14.71073 l -13.05709,31.5221 0.0227,0.009 a 30,30 0 0 0 -3.41839,13.75781 30,30 0 0 0 29.99145,29.99972 v 5.2e-4 h 37.48815 v -0.002 a 22.5,22.5 0 0 0 0.0207,0.002 22.5,22.5 0 0 0 22.48905,-22.34747 h 0.0109 v -37.51989 h -0.009 a 15,15 0 0 0 0.009,-0.13229 15,15 0 0 0 -9.72498,-14.03789 l -32.38355,-13.41314 a 22.5,22.5 0 0 0 -10.39162,-2.5492 z" />
          </g>
        </g>
      </g>
      <g
         id="g85"
         transform="translate(228.65732,-442.87205)"
         style="fill:#4d4d4d;fill-opacity:1">
        <path
           id="path11-7-9-1"
           style="fill:#4d4d4d;fill-opacity:1;stroke:none;stroke-width:1.22896;stroke-dasharray:none;stroke-opacity:1"
           d="m 383.68761,-100.23854 c -12.70254,6.2e-4 -22.99931,10.298635 -22.99859,23.001183 6.2e-4,12.701587 10.29699,22.997976 22.99859,22.998596 12.70254,7.2e-4 23.00056,-10.296059 23.00118,-22.998596 7.2e-4,-12.703498 -10.29769,-23.001903 -23.00118,-23.001183 z m 1.38442,2.862877 c 2.65598,0.179881 5.17197,0.869009 7.4476,1.977657 l -2.12752,3.68453 2.43396,1.405082 2.12856,-3.686597 c 2.17533,1.465368 4.0492,3.343526 5.51077,5.521627 l -3.51245,2.027783 1.4056,2.43396 3.50625,-2.024682 c 1.12638,2.32276 1.81892,4.894133 1.97662,7.609354 h -4.15737 v 2.810165 h 4.1243 c -0.20784,2.612785 -0.91055,5.084729 -2.01848,7.32255 l -3.6959,-2.134237 -1.4056,2.43396 3.68401,2.126485 c -3.63558,5.324016 -9.75086,8.820009 -16.68425,8.819617 -6.89219,-3.34e-4 -12.97437,-3.456453 -16.61707,-8.727632 l 3.61373,-2.086178 -1.40508,-2.43396 -3.64061,2.101681 c -1.11784,-2.226557 -1.83515,-4.686909 -2.0593,-7.289995 h 4.10982 v -2.810164 h -4.16305 c 0.14038,-2.722821 0.82134,-5.302894 1.9358,-7.63571 l 3.55276,2.050521 1.40508,-2.433443 -3.57084,-2.061373 c 1.45792,-2.200142 3.33348,-4.098992 5.51645,-5.580538 l 2.18178,3.779098 2.43345,-1.405083 -2.18488,-3.784782 c 2.27942,-1.120325 4.80116,-1.820285 7.46518,-2.006595 v 4.333585 h 2.81068 z m 1.75906,3.031856 -3.26595,12.18892 a 4.9250002,4.9250002 0 0 0 -4.80126,4.916496 4.9250002,4.9250002 0 0 0 4.92477,4.924764 4.9250002,4.9250002 0 0 0 4.92528,-4.924764 4.9250002,4.9250002 0 0 0 -2.33474,-4.187341 l 3.26646,-12.190987 z m -3.14244,14.9903 a 2.115,2.115 0 0 1 2.11511,2.115116 2.115,2.115 0 0 1 -2.11511,2.1146 2.115,2.115 0 0 1 -2.1146,-2.1146 2.115,2.115 0 0 1 2.1146,-2.115116 z" />
      </g>
    </g>
  </g>
</svg>
