<?xml version="1.0" encoding="UTF-8" standalone="no"?>
<!-- Created with Inkscape (http://www.inkscape.org/) -->

<svg
   width="90"
   height="90"
   viewBox="0 0 90 90"
   version="1.1"
   id="svg1"
   inkscape:version="1.3.2 (091e20e, 2023-11-25, custom)"
   sodipodi:docname="price-previous.svg"
   xmlns:inkscape="http://www.inkscape.org/namespaces/inkscape"
   xmlns:sodipodi="http://sodipodi.sourceforge.net/DTD/sodipodi-0.dtd"
   xmlns="http://www.w3.org/2000/svg"
   xmlns:svg="http://www.w3.org/2000/svg">
  <sodipodi:namedview
     id="namedview1"
     pagecolor="#ffffff"
     bordercolor="#000000"
     borderopacity="0.25"
     inkscape:showpageshadow="2"
     inkscape:pageopacity="0.0"
     inkscape:pagecheckerboard="0"
     inkscape:deskcolor="#d1d1d1"
     inkscape:document-units="px"
     inkscape:zoom="1.9939434"
     inkscape:cx="61.436047"
     inkscape:cy="83.753631"
     inkscape:window-width="1920"
     inkscape:window-height="1018"
     inkscape:window-x="-6"
     inkscape:window-y="-6"
     inkscape:window-maximized="1"
     inkscape:current-layer="g1" />
  <defs
     id="defs1" />
  <g
     inkscape:label="Layer 1"
     inkscape:groupmode="layer"
     id="layer1">
    <g
       id="g135"
       transform="matrix(0.9448819,0,0,0.9448819,-531.53019,540.59387)">
      <g
         id="g77-7-0"
         transform="matrix(1.0583304,0,0,1.0583347,78.266733,-370.12928)"
         style="fill:#ececec;fill-opacity:1">
        <g
           id="g72-0-2-8"
           transform="translate(-5.4306569,24.849881)"
           style="fill:#ececec;fill-opacity:1">
          <g
             id="g68-0-9-5-8-7"
             transform="translate(108.34109,-20.340304)"
             style="fill:#ececec;fill-opacity:1">
            <path
               id="path44-6-4-7-05-6-0-4-6-8-7-8-3"
               style="fill:#ececec;fill-opacity:1;stroke-width:0.930373"
               inkscape:transform-center-x="-0.1984375"
               inkscape:transform-center-y="-0.099218749"
               d="m 392.16827,-195.37474 a 22.5,22.5 0 0 0 -21.04729,14.71073 l -13.05709,31.5221 0.0227,0.009 a 30,30 0 0 0 -3.41839,13.75781 30,30 0 0 0 29.99145,29.99972 v 5.2e-4 h 37.48815 v -0.002 a 22.5,22.5 0 0 0 0.0207,0.002 22.5,22.5 0 0 0 22.48905,-22.34747 h 0.0109 v -37.51989 h -0.009 a 15,15 0 0 0 0.009,-0.13229 15,15 0 0 0 -9.72498,-14.03789 l -32.38355,-13.41314 a 22.5,22.5 0 0 0 -10.39162,-2.5492 z" />
          </g>
        </g>
      </g>
    </g>
    <g
       id="g1"
       transform="matrix(0.25,0,0,0.25,19.490303,30.766224)"
       style="fill:#4d4d4d;fill-opacity:1">
      <path
         id="path11-4-8-7-9-8-2-3-7-2-8-8"
         style="fill:#4d4d4d;fill-opacity:1;stroke:none;stroke-width:6.729;stroke-dasharray:none;stroke-opacity:1"
         d="m 111.45411,-10.187145 c -23.516009,8.1e-4 -44.825709,9.3566905 -60.468749,24.53125 v -21.52344 h -10.625 v 41.73438 h 0.02344 v 0.02343 h 41.73438 v -10.625 H 56.407241 C 70.293871,9.4708955 89.812951,0.4310855 111.46193,0.4300455 c 42.1472,-0.002 76.31488,34.1652595 76.3125,76.3124995 -0.002,42.144075 -34.16844,76.307065 -76.3125,76.304685 -42.140939,-0.002 -76.302639,-34.16379 -76.304689,-76.304685 v -0.0078 h -10.625 v 0.0078 c 0.002,48.005965 38.91587,86.919535 86.921869,86.921875 48.00955,0.003 86.93516,-38.91232 86.9375,-86.921875 0.003,-48.01315 -38.92436,-86.93241 -86.9375,-86.92969 z m 1.32032,45.61719 c -14.718279,7.1e-4 -26.675069,11.79375 -26.953129,26.44531 h -0.01562 v 0.51562 h -10.625 v 10.625 h 10.625 v 7.44532 h -10.625 v 10.625 h 10.625 v 0.51562 h 0.01562 c 0.27787,14.652635 12.2338,26.446175 26.953129,26.445315 14.89181,-7.2e-4 26.96746,-12.06973 26.96875,-26.960935 h -10.625 c -5.7e-4,9.026715 -7.3167,16.343285 -16.34375,16.343745 -8.93278,5.1e-4 -16.191559,-7.16618 -16.343749,-16.062495 v -0.28125 h 16.343749 v -10.625 H 96.430681 v -7.44532 h 16.343749 v -10.625 H 96.430681 c 5.7e-4,-9.02671 7.316689,-16.34329 16.343749,-16.34375 9.0277,-5.3e-4 16.34322,7.31636 16.34375,16.34375 h 10.625 c -0.001,-14.8923 -12.07589,-26.96179 -26.96875,-26.96093 z" />
    </g>
  </g>
</svg>
