<?xml version="1.0" encoding="UTF-8" standalone="no"?>
<!-- Created with Inkscape (http://www.inkscape.org/) -->

<svg
   width="90"
   height="90"
   viewBox="0 0 90 90"
   version="1.1"
   id="svg1"
   inkscape:version="1.3.2 (091e20e, 2023-11-25, custom)"
   sodipodi:docname="price-new.svg"
   xmlns:inkscape="http://www.inkscape.org/namespaces/inkscape"
   xmlns:sodipodi="http://sodipodi.sourceforge.net/DTD/sodipodi-0.dtd"
   xmlns="http://www.w3.org/2000/svg"
   xmlns:svg="http://www.w3.org/2000/svg">
  <sodipodi:namedview
     id="namedview1"
     pagecolor="#ffffff"
     bordercolor="#000000"
     borderopacity="0.25"
     inkscape:showpageshadow="2"
     inkscape:pageopacity="0.0"
     inkscape:pagecheckerboard="0"
     inkscape:deskcolor="#d1d1d1"
     inkscape:document-units="px"
     inkscape:zoom="5.6397236"
     inkscape:cx="67.467845"
     inkscape:cy="70.216207"
     inkscape:window-width="1920"
     inkscape:window-height="1018"
     inkscape:window-x="-6"
     inkscape:window-y="-6"
     inkscape:window-maximized="1"
     inkscape:current-layer="g1" />
  <defs
     id="defs1" />
  <g
     inkscape:label="Layer 1"
     inkscape:groupmode="layer"
     id="layer1">
    <g
       id="g135"
       transform="matrix(0.9448819,0,0,0.9448819,-531.53019,540.59387)">
      <g
         id="g77-7-0"
         transform="matrix(1.0583304,0,0,1.0583347,78.266733,-370.12928)"
         style="fill:#ececec;fill-opacity:1">
        <g
           id="g72-0-2-8"
           transform="translate(-5.4306569,24.849881)"
           style="fill:#ececec;fill-opacity:1">
          <g
             id="g68-0-9-5-8-7"
             transform="translate(108.34109,-20.340304)"
             style="fill:#ececec;fill-opacity:1">
            <path
               id="path44-6-4-7-05-6-0-4-6-8-7-8-3"
               style="fill:#ececec;fill-opacity:1;stroke-width:0.930373"
               inkscape:transform-center-x="-0.1984375"
               inkscape:transform-center-y="-0.099218749"
               d="m 392.16827,-195.37474 a 22.5,22.5 0 0 0 -21.04729,14.71073 l -13.05709,31.5221 0.0227,0.009 a 30,30 0 0 0 -3.41839,13.75781 30,30 0 0 0 29.99145,29.99972 v 5.2e-4 h 37.48815 v -0.002 a 22.5,22.5 0 0 0 0.0207,0.002 22.5,22.5 0 0 0 22.48905,-22.34747 h 0.0109 v -37.51989 h -0.009 a 15,15 0 0 0 0.009,-0.13229 15,15 0 0 0 -9.72498,-14.03789 l -32.38355,-13.41314 a 22.5,22.5 0 0 0 -10.39162,-2.5492 z" />
          </g>
        </g>
      </g>
    </g>
    <g
       id="g1"
       transform="matrix(0.25,0,0,0.25,19.490303,30.766224)"
       style="fill:#4d4d4d;fill-opacity:1">
      <g
         id="g2"
         transform="matrix(0.25,0,0,0.25,38.257093,14.799618)"
         style="fill:#4d4d4d;fill-opacity:1">
        <g
           id="g109-45-8-4-0-9"
           transform="matrix(15.11811,0,0,15.11811,-14064.853,-4380.5955)"
           style="fill:#4d4d4d;fill-opacity:1">
          <path
             id="path11-4-8-7-9-8-2-3-7-2-8-8-6"
             style="fill:#4d4d4d;fill-opacity:1;stroke:none;stroke-width:1.78038;stroke-dasharray:none;stroke-opacity:1"
             d="m 949.31438,292.89374 c -3.94013,1.9e-4 -7.13411,3.19499 -7.13445,7.13496 h 2.81016 c 1.5e-4,-2.38832 1.93639,-4.32468 4.3248,-4.3248 2.38858,-1.4e-4 4.32518,1.9363 4.32532,4.3248 h 2.80965 c -3.3e-4,-3.94026 -3.19507,-7.13519 -7.13548,-7.13496 z" />
          <path
             id="path11-4-8-7-9-8-2-3-9-8-3-0-4-9"
             style="fill:#4d4d4d;fill-opacity:1;stroke:none;stroke-width:1.78038;stroke-dasharray:none;stroke-opacity:1"
             d="m 949.31541,314.75412 c 3.94013,-1.9e-4 7.13411,-3.19499 7.13445,-7.13496 h -2.81016 c -1.5e-4,2.38832 -1.93639,4.32468 -4.3248,4.3248 -2.38858,1.4e-4 -4.32518,-1.9363 -4.32532,-4.3248 h -2.80965 c 3.3e-4,3.94026 3.19507,7.13519 7.13548,7.13496 z" />
          <rect
             style="fill:#4d4d4d;fill-opacity:1;fill-rule:evenodd;stroke-width:0.149048"
             id="rect5-9-0-2-9-4-1-3-6-3-2-0-0-4-2-0-1-4-2-9-1"
             width="2.8103623"
             height="7.8644395"
             x="942.17993"
             y="299.89172" />
          <rect
             style="fill:#4d4d4d;fill-opacity:1;fill-rule:evenodd;stroke-width:0.167608"
             id="rect5-9-0-2-9-4-1-3-6-3-2-0-0-4-2-0-4-3-7-1-6-6"
             width="2.8103623"
             height="9.9449997"
             x="304.80881"
             y="-949.31458"
             transform="rotate(90)" />
          <rect
             style="fill:#4d4d4d;fill-opacity:1;fill-rule:evenodd;stroke-width:0.167608"
             id="rect5-9-0-2-9-4-1-3-6-3-2-0-0-4-2-0-4-8-2-6-4-5-6"
             width="2.8103623"
             height="9.9449997"
             x="300.02869"
             y="-949.31458"
             transform="rotate(90)" />
        </g>
        <g
           id="g11-57-6-1-2-3-2-9-9-1-4"
           transform="matrix(-10.690118,10.690118,10.690118,10.690118,766.27834,-2931.4277)"
           style="fill:#4d4d4d;fill-opacity:1">
          <rect
             style="fill:#4d4d4d;fill-opacity:1;fill-rule:evenodd;stroke-width:0.176611"
             id="rect5-9-0-2-9-4-1-3-6-3-3-744-5-6-8-2-7-5-2-2-3"
             width="2.8103623"
             height="11.042193"
             x="194.00223"
             y="-24.286077"
             transform="rotate(45)" />
          <rect
             style="fill:#4d4d4d;fill-opacity:1;fill-rule:evenodd;stroke-width:0.176611"
             id="rect5-9-0-2-9-4-1-3-6-3-3-7-2-3-8-9-4-2-4-3-8-9"
             width="2.8103623"
             height="11.042193"
             x="13.237419"
             y="185.76393"
             transform="rotate(-45)" />
        </g>
        <path
           id="path11-3-2-4-7-5-4-8-5"
           style="fill:#4d4d4d;fill-opacity:1;stroke:none;stroke-width:86.7671;stroke-dasharray:none;stroke-opacity:1"
           d="m 281.77321,-135.06478 c 116.44679,0.006 219.44662,57.312906 282.54674,145.195386 H 510.04654 C 454.13538,-52.850533 372.60765,-92.575937 281.76535,-92.580321 c -168.589,-0.0095 -305.259589,136.66076 -305.250065,305.249911 0.0082,168.57645 136.673615,305.22829 305.250065,305.21877 168.5639,-0.008 305.2106,-136.65502 305.21876,-305.21877 v -0.0302 h 42.48431 v 0.0302 C 629.45905,404.69362 473.79739,560.35558 281.77321,560.36495 89.734811,560.37584 -65.951788,404.70799 -65.961162,212.66959 -65.972047,20.61683 89.720449,-135.07567 281.77321,-135.06478 Z" />
      </g>
    </g>
  </g>
</svg>
