<?xml version="1.0" encoding="UTF-8" standalone="no"?>
<!-- Created with Inkscape (http://www.inkscape.org/) -->

<svg
   width="90"
   height="90"
   viewBox="0 0 90 90"
   version="1.1"
   id="svg1"
   inkscape:version="1.3.2 (091e20e, 2023-11-25, custom)"
   sodipodi:docname="range-TANK.svg"
   xmlns:inkscape="http://www.inkscape.org/namespaces/inkscape"
   xmlns:sodipodi="http://sodipodi.sourceforge.net/DTD/sodipodi-0.dtd"
   xmlns="http://www.w3.org/2000/svg"
   xmlns:svg="http://www.w3.org/2000/svg">
  <sodipodi:namedview
     id="namedview1"
     pagecolor="#ffffff"
     bordercolor="#000000"
     borderopacity="0.25"
     inkscape:showpageshadow="2"
     inkscape:pageopacity="0.0"
     inkscape:pagecheckerboard="0"
     inkscape:deskcolor="#d1d1d1"
     inkscape:document-units="px"
     inkscape:zoom="3.9878868"
     inkscape:cx="48.521939"
     inkscape:cy="36.10935"
     inkscape:window-width="1920"
     inkscape:window-height="1018"
     inkscape:window-x="-6"
     inkscape:window-y="-6"
     inkscape:window-maximized="1"
     inkscape:current-layer="layer1" />
  <defs
     id="defs1" />
  <g
     inkscape:label="Layer 1"
     inkscape:groupmode="layer"
     id="layer1">
    <g
       id="g135"
       transform="matrix(0.9448819,0,0,0.9448819,-531.53019,540.59387)">
      <g
         id="g77-7-0"
         transform="matrix(1.0583304,0,0,1.0583347,78.266733,-370.12928)"
         style="fill:#ececec;fill-opacity:1">
        <g
           id="g72-0-2-8"
           transform="translate(-5.4306569,24.849881)"
           style="fill:#ececec;fill-opacity:1">
          <g
             id="g68-0-9-5-8-7"
             transform="translate(108.34109,-20.340304)"
             style="fill:#ececec;fill-opacity:1">
            <path
               id="path44-6-4-7-05-6-0-4-6-8-7-8-3"
               style="fill:#ececec;fill-opacity:1;stroke-width:0.930373"
               inkscape:transform-center-x="-0.1984375"
               inkscape:transform-center-y="-0.099218749"
               d="m 392.16827,-195.37474 a 22.5,22.5 0 0 0 -21.04729,14.71073 l -13.05709,31.5221 0.0227,0.009 a 30,30 0 0 0 -3.41839,13.75781 30,30 0 0 0 29.99145,29.99972 v 5.2e-4 h 37.48815 v -0.002 a 22.5,22.5 0 0 0 0.0207,0.002 22.5,22.5 0 0 0 22.48905,-22.34747 h 0.0109 v -37.51989 h -0.009 a 15,15 0 0 0 0.009,-0.13229 15,15 0 0 0 -9.72498,-14.03789 l -32.38355,-13.41314 a 22.5,22.5 0 0 0 -10.39162,-2.5492 z" />
          </g>
        </g>
      </g>
    </g>
    <path
       id="path11-7-9-8-9-6-1-7-3-4-1-1"
       style="fill:#4d4d4d;fill-opacity:1;stroke:none;stroke-width:1.16122;stroke-dasharray:none;stroke-opacity:1"
       d="m 46.996926,25.223827 v 5.441406 1.867187 h 1.97461 v 2.181152 H 28.625344 v 9.77e-4 c -3.671578,0.02586 -6.643716,2.98698 -6.690918,6.65332 h -0.0024 v 16.1626 1.69091 h 13.500488 l 9.234375,9.23389 v 0.006 h 16.078124 v -9.7e-4 c 3.701545,-0.0252 6.694543,-3.03346 6.694825,-6.74073 v -2.27441 h -2.655272 v 2.28271 c -0.0047,2.25283 -1.832358,4.07804 -4.086428,4.07813 H 45.772805 l -9.241211,-9.24121 -0.0078,0.008 v -0.007 H 24.587258 v -5.08692 c 1.1154,-0.0326 2.178082,-0.464082 2.997559,-1.21045 l 0.609375,-0.644042 c 0.355747,-0.421804 0.870867,-0.67533 1.41748,-0.705566 v -0.02344 c 0.546614,0.03024 1.061827,0.283762 1.417481,0.705566 l 0.609375,0.644043 c 0.823558,0.750095 1.892681,1.182667 3.01416,1.211427 1.121479,-0.02876 2.190696,-0.461343 3.01416,-1.211427 l 0.609375,-0.644043 c 0.355653,-0.421814 0.870867,-0.67533 1.41748,-0.705566 v 0.01563 c 0.54652,0.03024 1.061733,0.283761 1.417481,0.705566 l 0.609375,0.644043 c 0.823558,0.750084 1.892681,1.182657 3.01416,1.211427 1.121574,-0.02876 2.190602,-0.461343 3.01416,-1.211427 l 0.609375,-0.644043 c 0.355748,-0.421814 0.870867,-0.67533 1.417481,-0.705566 v -0.0078 c 0.546604,0.03022 1.061762,0.283759 1.41748,0.705566 l 0.609375,0.644042 c 0.82355,0.75009 1.89267,1.182662 3.01416,1.211427 1.121495,-0.02877 2.190617,-0.46134 3.01416,-1.211427 l 0.609375,-0.644042 c 0.355715,-0.421813 0.870875,-0.675344 1.41748,-0.705566 v 0.01563 c 0.546605,0.03022 1.061765,0.283759 1.417482,0.705566 l 0.609375,0.644042 c 0.795478,0.724522 1.820305,1.151777 2.899903,1.206055 v 0.0054 2.655273 h 2.655272 V 46.448436 35.774608 35.186717 h -7.875 V 32.53242 h 2.23584 V 27.091014 25.223827 H 49.652688 Z m 2.655762,2.655273 h 9.492677 v 1.998047 h -9.492677 z m 1.974609,4.65332 h 5.281738 v 7.943848 h 2.655762 v -2.633789 h 5.219728 v 10.967773 c -0.204783,-0.02334 -0.40421,-0.07703 -0.590333,-0.160644 -0.245917,-0.110489 -0.469862,-0.270633 -0.655275,-0.473145 l -0.686522,-0.726562 c -0.820613,-0.737045 -1.880555,-1.16179 -2.9917,-1.189942 -10e-4,-2.2e-5 -0.002,2e-5 -0.0029,0 v -0.01563 c -9.23e-4,1.7e-5 -0.0019,-1.6e-5 -0.0029,0 -1.11115,0.02816 -2.171085,0.452898 -2.9917,1.189942 l -0.686522,0.726562 c -0.185408,0.202516 -0.40936,0.362645 -0.655275,0.473145 -0.220688,0.09914 -0.45957,0.156798 -0.70459,0.170898 -0.245028,-0.01407 -0.483908,-0.07175 -0.70459,-0.170898 -0.245918,-0.110489 -0.46986,-0.270633 -0.655273,-0.473145 l -0.686522,-0.726562 c -0.820613,-0.737045 -1.880557,-1.16179 -2.991701,-1.189942 -9.75e-4,-2.2e-5 -0.0019,2e-5 -0.0029,0 v 0.0078 h -0.0029 c -1.11118,0.02816 -2.17107,0.452896 -2.991699,1.189941 L 46.0947,48.168633 c -0.185387,0.202516 -0.409322,0.36264 -0.655274,0.473144 -0.22063,0.09918 -0.459582,0.156819 -0.70459,0.170899 -0.245008,-0.01408 -0.483865,-0.07172 -0.70459,-0.170899 -0.245858,-0.110494 -0.469793,-0.270628 -0.655273,-0.473144 L 42.68845,47.44207 c -0.82063,-0.737045 -1.88052,-1.161793 -2.9917,-1.189941 h -0.0029 v -0.01563 h -0.0029 c -1.111085,0.02815 -2.17107,0.452896 -2.9917,1.189941 l -0.686523,0.726563 c -0.185385,0.202516 -0.409415,0.36264 -0.655273,0.473144 -0.220725,0.09918 -0.459582,0.156821 -0.70459,0.170899 -0.245102,-0.01408 -0.483961,-0.07172 -0.70459,-0.170899 C 33.702321,48.515662 33.478386,48.35551 33.293,48.153003 l -0.686699,-0.72654 c -0.820629,-0.737045 -1.880613,-1.161784 -2.991699,-1.189941 h -0.0029 v 0.02344 h -0.0029 c -1.111179,0.02816 -2.17107,0.452897 -2.991699,1.189942 l -0.686523,0.726562 c -0.185386,0.202516 -0.409321,0.362641 -0.655274,0.473145 -0.215704,0.09692 -0.448831,0.153738 -0.687988,0.169433 v -7.363769 c 1.89e-4,-2.25666 1.829672,-4.086332 4.086426,-4.086426 h 20.297792 v 3.213379 h 2.655761 z" />
  </g>
</svg>
