<?xml version="1.0" encoding="UTF-8" standalone="no"?>
<!-- Created with Inkscape (http://www.inkscape.org/) -->

<svg
   width="90"
   height="90"
   viewBox="0 0 90 90"
   version="1.1"
   id="svg1"
   inkscape:version="1.3.2 (091e20e, 2023-11-25, custom)"
   sodipodi:docname="range-highway.svg"
   xmlns:inkscape="http://www.inkscape.org/namespaces/inkscape"
   xmlns:sodipodi="http://sodipodi.sourceforge.net/DTD/sodipodi-0.dtd"
   xmlns="http://www.w3.org/2000/svg"
   xmlns:svg="http://www.w3.org/2000/svg">
  <sodipodi:namedview
     id="namedview1"
     pagecolor="#ffffff"
     bordercolor="#000000"
     borderopacity="0.25"
     inkscape:showpageshadow="2"
     inkscape:pageopacity="0.0"
     inkscape:pagecheckerboard="0"
     inkscape:deskcolor="#d1d1d1"
     inkscape:document-units="px"
     inkscape:zoom="5.6397236"
     inkscape:cx="49.027225"
     inkscape:cy="42.20065"
     inkscape:window-width="1920"
     inkscape:window-height="1018"
     inkscape:window-x="-6"
     inkscape:window-y="-6"
     inkscape:window-maximized="1"
     inkscape:current-layer="layer1" />
  <defs
     id="defs1" />
  <g
     inkscape:label="Layer 1"
     inkscape:groupmode="layer"
     id="layer1">
    <g
       id="g135"
       transform="matrix(0.9448819,0,0,0.9448819,-531.53019,540.59387)">
      <g
         id="g77-7-0"
         transform="matrix(1.0583304,0,0,1.0583347,78.266733,-370.12928)"
         style="fill:#ececec;fill-opacity:1">
        <g
           id="g72-0-2-8"
           transform="translate(-5.4306569,24.849881)"
           style="fill:#ececec;fill-opacity:1">
          <g
             id="g68-0-9-5-8-7"
             transform="translate(108.34109,-20.340304)"
             style="fill:#ececec;fill-opacity:1">
            <path
               id="path44-6-4-7-05-6-0-4-6-8-7-8-3"
               style="fill:#ececec;fill-opacity:1;stroke-width:0.930373"
               inkscape:transform-center-x="-0.1984375"
               inkscape:transform-center-y="-0.099218749"
               d="m 392.16827,-195.37474 a 22.5,22.5 0 0 0 -21.04729,14.71073 l -13.05709,31.5221 0.0227,0.009 a 30,30 0 0 0 -3.41839,13.75781 30,30 0 0 0 29.99145,29.99972 v 5.2e-4 h 37.48815 v -0.002 a 22.5,22.5 0 0 0 0.0207,0.002 22.5,22.5 0 0 0 22.48905,-22.34747 h 0.0109 v -37.51989 h -0.009 a 15,15 0 0 0 0.009,-0.13229 15,15 0 0 0 -9.72498,-14.03789 l -32.38355,-13.41314 a 22.5,22.5 0 0 0 -10.39162,-2.5492 z" />
          </g>
        </g>
      </g>
    </g>
    <path
       id="rect5-9-0-2-9-4-1-3-6-3-1-5-5-4-7-0-7-9-9-5-8-7-1-1-3"
       style="fill:#4d4d4d;fill-opacity:1;fill-rule:evenodd;stroke-width:0.314465"
       d="m 36.302708,29.011388 c -5.129067,10.999332 -8.258141,21.998713 -13.387206,32.998048 -7.5e-5,0.47347 -2.8e-5,0.94694 0,1.42041 h 9.697758 l 0.04545,0.0166 0.0057,-0.0166 h 14.656728 0.0933 14.65723 l 0.006,0.0166 0.0455,-0.0166 h 9.69776 c 0,-0.47348 9e-5,-0.94703 0,-1.42041 -5.1291,-10.999365 -8.25821,-21.998687 -13.38721,-32.998048 l -10e-4,4.75e-4 v -4.75e-4 h -10.57563 -11.55321 v 4.75e-4 z m 1.69189,2.655269 h 1.40528 l -8.594725,29.107909 h -4.383789 z m 4.23097,0 h 3.83983 v 3.792482 h 2.65528 v -3.792482 h 3.78955 l 8.59473,29.107909 h -12.38428 v -4.17236 h -2.65528 v 4.17236 H 33.631323 Z m 13.11083,0 h 1.40528 l 11.57275,29.107909 h -4.38379 z m -9.271,6.292479 v 6.821291 h 2.65528 v -6.821291 z m 0,9.321288 v 6.821782 h 2.65528 v -6.821782 z"
       sodipodi:nodetypes="ccccccccccccccccccccccccccccccccccccccccccccccccccccc" />
  </g>
</svg>
