<?xml version="1.0" encoding="UTF-8" standalone="no"?>
<!-- Created with Inkscape (http://www.inkscape.org/) -->

<svg
   width="90"
   height="90"
   viewBox="0 0 90 90"
   version="1.1"
   id="svg1"
   inkscape:version="1.3.2 (091e20e, 2023-11-25, custom)"
   sodipodi:docname="registration.svg"
   xmlns:inkscape="http://www.inkscape.org/namespaces/inkscape"
   xmlns:sodipodi="http://sodipodi.sourceforge.net/DTD/sodipodi-0.dtd"
   xmlns="http://www.w3.org/2000/svg"
   xmlns:svg="http://www.w3.org/2000/svg">
  <sodipodi:namedview
     id="namedview1"
     pagecolor="#ffffff"
     bordercolor="#000000"
     borderopacity="0.25"
     inkscape:showpageshadow="2"
     inkscape:pageopacity="0.0"
     inkscape:pagecheckerboard="0"
     inkscape:deskcolor="#d1d1d1"
     inkscape:document-units="px"
     inkscape:zoom="3.9878868"
     inkscape:cx="112.21482"
     inkscape:cy="42.629094"
     inkscape:window-width="1920"
     inkscape:window-height="1018"
     inkscape:window-x="-6"
     inkscape:window-y="-6"
     inkscape:window-maximized="1"
     inkscape:current-layer="g135" />
  <defs
     id="defs1" />
  <g
     inkscape:label="Layer 1"
     inkscape:groupmode="layer"
     id="layer1">
    <g
       id="g135"
       transform="matrix(0.9448819,0,0,0.9448819,-531.53019,540.59387)">
      <g
         id="g77-7-0"
         transform="matrix(1.0583304,0,0,1.0583347,78.266733,-370.12928)"
         style="fill:#ececec;fill-opacity:1">
        <g
           id="g72-0-2-8"
           transform="translate(-5.4306569,24.849881)"
           style="fill:#ececec;fill-opacity:1">
          <g
             id="g68-0-9-5-8-7"
             transform="translate(108.34109,-20.340304)"
             style="fill:#ececec;fill-opacity:1">
            <path
               id="path44-6-4-7-05-6-0-4-6-8-7-8-3"
               style="fill:#ececec;fill-opacity:1;stroke-width:0.930373"
               inkscape:transform-center-x="-0.1984375"
               inkscape:transform-center-y="-0.099218749"
               d="m 392.16827,-195.37474 a 22.5,22.5 0 0 0 -21.04729,14.71073 l -13.05709,31.5221 0.0227,0.009 a 30,30 0 0 0 -3.41839,13.75781 30,30 0 0 0 29.99145,29.99972 v 5.2e-4 h 37.48815 v -0.002 a 22.5,22.5 0 0 0 0.0207,0.002 22.5,22.5 0 0 0 22.48905,-22.34747 h 0.0109 v -37.51989 h -0.009 a 15,15 0 0 0 0.009,-0.13229 15,15 0 0 0 -9.72498,-14.03789 l -32.38355,-13.41314 a 22.5,22.5 0 0 0 -10.39162,-2.5492 z" />
          </g>
        </g>
      </g>
      <path
         id="rect5-9-0-1-1-8-7-9-7-4-3-3-1-2-1-8-2-9-6"
         style="fill:#4d4d4d;fill-opacity:1;fill-rule:evenodd;stroke-width:0.205044"
         d="m 595.13728,-543.33538 v 42.54883 h -4.11809 v 2.81068 h 11.04687 v -2.81068 h -4.1181 v -14.28079 h 12.56461 v 0.0217 h 0.0155 a 5.4153475,5.4153475 0 0 0 -0.0155,0.24184 5.4153475,5.4153475 0 0 0 5.2188,5.40226 v 0.0134 h 17.02325 v -0.0326 a 1.405,1.405 0 0 0 0.62787,-0.0207 1.405,1.405 0 0 0 0.99322,-1.72083 1.405,1.405 0 0 0 -0.007,-0.0191 l 0.002,-5e-4 -2.96933,-11.08356 2.96933,-11.08304 -0.002,-5e-4 a 1.405,1.405 0 0 0 0.007,-0.0191 1.405,1.405 0 0 0 -0.99322,-1.72082 1.405,1.405 0 0 0 -0.51056,-0.0367 h -13.78934 v -0.0217 h -0.016 a 5.4153475,5.4153475 0 0 0 0.0155,-0.24184 5.4153475,5.4153475 0 0 0 -5.21828,-5.40226 v -0.0134 h -15.91583 v -2.5306 z m 2.81068,5.34128 h 10.98745 a 5.4153475,5.4153475 0 0 0 -5e-4,5e-4 h 4.61574 v 0.002 a 2.607,2.607 0 0 1 0.0729,-0.003 h 0.0899 a 2.607,2.607 0 0 1 2.56057,2.60552 2.607,2.607 0 0 1 -0.006,0.0553 h 0.005 v 0.18603 h -0.002 v 2.48202 h -0.004 v 5.30562 h 0.002 a 1.405,1.405 0 0 0 -0.002,0.0207 1.405,1.405 0 0 0 1.40508,1.40509 1.405,1.405 0 0 0 1.40509,-1.40509 1.405,1.405 0 0 0 -5e-4,-0.0207 h 5e-4 v -4.95577 h 0.004 12.1021 l -2.66805,9.95598 a 0.2748364,0.2748364 0 0 0 -0.007,0.16433 0.2748364,0.2748364 0 0 0 0.007,0.0196 h -5e-4 l 2.67373,9.97665 h -10.5301 a 5.4153475,5.4153475 0 0 0 5e-4,-5e-4 h -4.61573 v -0.002 a 2.607,2.607 0 0 1 -0.0729,0.003 h -0.0589 a 2.607,2.607 0 0 1 -2.59157,-2.60552 2.607,2.607 0 0 1 0.006,-0.0553 h -0.005 v -0.18603 h 10e-4 v -2.83187 H 611.45264 597.947 Z" />
    </g>
  </g>
</svg>
