<?xml version="1.0" encoding="UTF-8" standalone="no"?>
<!-- Created with Inkscape (http://www.inkscape.org/) -->

<svg
   width="90"
   height="90"
   viewBox="0 0 90 90"
   version="1.1"
   id="svg1"
   inkscape:version="1.3.2 (091e20e, 2023-11-25, custom)"
   sodipodi:docname="seats.svg"
   xmlns:inkscape="http://www.inkscape.org/namespaces/inkscape"
   xmlns:sodipodi="http://sodipodi.sourceforge.net/DTD/sodipodi-0.dtd"
   xmlns="http://www.w3.org/2000/svg"
   xmlns:svg="http://www.w3.org/2000/svg">
  <sodipodi:namedview
     id="namedview1"
     pagecolor="#ffffff"
     bordercolor="#000000"
     borderopacity="0.25"
     inkscape:showpageshadow="2"
     inkscape:pageopacity="0.0"
     inkscape:pagecheckerboard="0"
     inkscape:deskcolor="#d1d1d1"
     inkscape:document-units="px"
     inkscape:zoom="1.4099309"
     inkscape:cx="212.42176"
     inkscape:cy="5.674037"
     inkscape:window-width="1920"
     inkscape:window-height="1018"
     inkscape:window-x="-6"
     inkscape:window-y="-6"
     inkscape:window-maximized="1"
     inkscape:current-layer="g135" />
  <defs
     id="defs1" />
  <g
     inkscape:label="Layer 1"
     inkscape:groupmode="layer"
     id="layer1">
    <g
       id="g135"
       transform="matrix(0.9448819,0,0,0.9448819,-531.53019,540.59387)">
      <g
         id="g77-7-0"
         transform="matrix(1.0583304,0,0,1.0583347,78.266733,-370.12928)"
         style="fill:#ececec;fill-opacity:1">
        <g
           id="g72-0-2-8"
           transform="translate(-5.4306569,24.849881)"
           style="fill:#ececec;fill-opacity:1">
          <g
             id="g68-0-9-5-8-7"
             transform="translate(108.34109,-20.340304)"
             style="fill:#ececec;fill-opacity:1">
            <path
               id="path44-6-4-7-05-6-0-4-6-8-7-8-3"
               style="fill:#ececec;fill-opacity:1;stroke-width:0.930373"
               inkscape:transform-center-x="-0.1984375"
               inkscape:transform-center-y="-0.099218749"
               d="m 392.16827,-195.37474 a 22.5,22.5 0 0 0 -21.04729,14.71073 l -13.05709,31.5221 0.0227,0.009 a 30,30 0 0 0 -3.41839,13.75781 30,30 0 0 0 29.99145,29.99972 v 5.2e-4 h 37.48815 v -0.002 a 22.5,22.5 0 0 0 0.0207,0.002 22.5,22.5 0 0 0 22.48905,-22.34747 h 0.0109 v -37.51989 h -0.009 a 15,15 0 0 0 0.009,-0.13229 15,15 0 0 0 -9.72498,-14.03789 l -32.38355,-13.41314 a 22.5,22.5 0 0 0 -10.39162,-2.5492 z" />
          </g>
        </g>
      </g>
      <path
         id="rect5-9-0-1-1-8-7-9-7-4-3-3-1-2-1-8-2-96-3-65"
         style="fill:#4d4d4d;fill-opacity:1;fill-rule:evenodd;stroke-width:0.29069"
         d="m 605.58882,-543.32111 -6.63784,0.93224 a 1.405,1.405 0 0 0 -1.25212,1.39423 1.405,1.405 0 0 0 0.0248,0.24805 l -0.0103,5e-4 2.61534,37.39978 h 0.002 a 1.405,1.405 0 0 0 1.37305,1.19581 v 0.003 h 29.91393 v -0.003 a 1.405,1.405 0 0 0 1.37821,-1.26298 l 1.77199,-10.04848 h -10e-4 a 1.405,1.405 0 0 0 0.0263,-0.2558 1.405,1.405 0 0 0 -1.40509,-1.40456 1.405,1.405 0 0 0 -0.0331,0.002 l -0.003,-0.0227 -20.22874,2.12597 -6.03012,-21.02921 v -7.86102 a 1.405,1.405 0 0 0 5e-4,-0.007 1.405,1.405 0 0 0 -5e-4,-0.0232 v -0.0444 h -10e-4 a 1.405,1.405 0 0 0 -1.40301,-1.33739 1.405,1.405 0 0 0 -0.0992,0.007 z m -1.30586,3.02152 v 6.658 h 0.003 l 6.44405,22.47305 a 1.405,1.405 0 0 0 0.0382,0.13333 l 0.009,0.0331 0.003,-5e-4 a 1.405,1.405 0 0 0 1.31361,0.91726 1.405,1.405 0 0 0 0.23255,-0.0217 l 19.35592,-2.03399 -1.26659,7.18302 h -27.38234 l -2.43499,-34.82371 z" />
    </g>
  </g>
</svg>
