<?xml version="1.0" encoding="UTF-8"?>
<svg xmlns="http://www.w3.org/2000/svg" version="1.1" viewBox="0 0 24 24">
  <defs>
    <style>
      .cls-1, .cls-2 {
        fill: #f5f5f5;
      }

      .cls-2 {
        fill-rule: evenodd;
      }
    </style>
  </defs>
  <!-- Generator: Adobe Illustrator 28.7.1, SVG Export Plug-In . SVG Version: 1.2.0 Build 142)  -->
  <g>
    <g id="Layer_1">
      <path class="cls-2" d="M12,0C18.6,0,24,5.4,24,12s-5.4,12-12,12S0,18.6,0,12,5.4,0,12,0H0v24h24V0h-12Z"/>
      <g>
        <path class="cls-1" d="M12,13.5h0c0,0,.2,0,.3-.1l6.5-6.2h-6.8s-6.8,0-6.8,0l6.5,6.2c.1.1.2.2.3.2Z"/>
        <path class="cls-1" d="M8.9,11.7c0,0-4.3-4-4.3-4v8.6l4.3-4.4s0-.1,0-.2Z"/>
        <path class="cls-1" d="M14.3,12.5s-1,1-1.5,1.4c-.2.2-.5.3-.8.3h0c-.3,0-.6-.1-.8-.3-.5-.5-1.5-1.4-1.5-1.4,0,0-.1-.1-.3,0,0,0-4.2,4.4-4.2,4.4h6.8c2.3,0,6.8,0,6.8,0,0,0-4.2-4.4-4.2-4.4-.1-.1-.3,0-.3,0Z"/>
        <path class="cls-1" d="M15.1,11.7c0,0,0,.2,0,.2l4.3,4.4V7.7s-4.2,4-4.3,4Z"/>
      </g>
    </g>
  </g>
</svg>