<?xml version="1.0" encoding="UTF-8"?>
<svg xmlns="http://www.w3.org/2000/svg" version="1.1" viewBox="0 0 24 24">
  <defs>
    <style>
      .cls-1 {
        fill: #f5f5f5;
        fill-rule: evenodd;
      }
    </style>
  </defs>
  <!-- Generator: Adobe Illustrator 28.7.1, SVG Export Plug-In . SVG Version: 1.2.0 Build 142)  -->
  <g>
    <g id="Layer_1">
      <g id="Layer_1-2" data-name="Layer_1">
        <path class="cls-1" d="M12,0c6.6,0,12,5.4,12,12s-5.4,12-12,12S0,18.6,0,12,5.4,0,12,0H0v24h24V0h-12Z"/>
        <path class="cls-1" d="M12,5.5c-2.9,0-5.2,2.3-5.2,5.2s.2,1.6.5,2.3l4.6,6,4.5-5.7c.4-.8.7-1.6.7-2.5,0-2.9-2.3-5.2-5.2-5.2h0ZM12,12.7c-1.1,0-2-.9-2-2s.9-2,2-2,2,.9,2,2-.9,2-2,2Z"/>
      </g>
    </g>
  </g>
</svg>