<?xml version="1.0" encoding="UTF-8"?>
<svg xmlns="http://www.w3.org/2000/svg" version="1.1" viewBox="0 0 24 24">
  <defs>
    <style>
      .cls-1 {
        fill: #f5f5f5;
      }
    </style>
  </defs>
  <!-- Generator: Adobe Illustrator 28.7.1, SVG Export Plug-In . SVG Version: 1.2.0 Build 142)  -->
  <g>
    <g id="Layer_1">
      <g id="Layer_1-2" data-name="Layer_1">
        <g>
          <path class="cls-1" d="M11.9,0H0v12C0,5.4,5.3,0,11.9,0Z"/>
          <path class="cls-1" d="M12,24C5.4,24,0,18.6,0,12v12h24v-12c0,6.6-5.4,12-12,12Z"/>
          <path class="cls-1" d="M12.1,0c6.6,0,11.9,5.4,11.9,12V0h-11.9Z"/>
          <path class="cls-1" d="M10.5,8.7l-.5-2.2c0-.3-.4-.6-.6-.6h-2.8c-.4,0-.6.3-.6.6,0,1.8.6,3.7,1.7,5.4,1,1.8,2.6,3.3,4.3,4.3,1.7.9,3.4,1.5,5.4,1.7.4,0,.6-.3.6-.6v-2.8c0-.3-.2-.6-.6-.6l-2.2-.5c-.2,0-.5,0-.6.2l-1.8,1.8c-1.8-1-3.3-2.5-4.3-4.3l1.8-1.8c.2-.2.2-.4.2-.6h0Z"/>
        </g>
      </g>
    </g>
  </g>
</svg>