<?xml version="1.0" encoding="UTF-8"?>
<svg xmlns="http://www.w3.org/2000/svg" version="1.1" viewBox="0 0 24 24">
  <defs>
    <style>
      .cls-1 {
        fill: #f5f5f5;
      }
    </style>
  </defs>
  <!-- Generator: Adobe Illustrator 28.7.1, SVG Export Plug-In . SVG Version: 1.2.0 Build 142)  -->
  <g>
    <g id="Layer_1">
      <path class="cls-1" d="M12,19.9s0,0,0,0c0,0,0,0,0,0h0Z"/>
      <path class="cls-1" d="M12.1,0c6.6,0,11.9,5.4,11.9,12V0h-11.9Z"/>
      <path class="cls-1" d="M11.9,0H0v12C0,5.4,5.3,0,11.9,0Z"/>
      <path class="cls-1" d="M12,24C5.4,24,0,18.6,0,12v12h24v-12c0,6.6-5.4,12-12,12Z"/>
      <path class="cls-1" d="M15.2,13.4c-.2,0-1-.5-1.2-.6s-.3,0-.4,0c-.1.2-.5.6-.6.7-.1.1-.2.1-.4,0-.5-.2-1-.5-1.4-.9-.4-.4-.7-.8-.9-1.2-.1-.2,0-.3,0-.4,0,0,.2-.2.3-.3,0,0,.1-.2.2-.3,0,0,0-.2,0-.3,0,0-.4-.9-.5-1.3s-.3-.3-.4-.3h-.4c-.2,0-.3,0-.5.2-.4.4-.6.9-.6,1.5,0,.7.3,1.3.7,1.8.8,1.1,1.8,2,3,2.6.4.2.7.3,1,.4.4.1.7.1,1.1,0,.5,0,.9-.4,1.2-.8.1-.3.1-.5.1-.8,0,0-.2-.1-.3-.2Z"/>
      <path class="cls-1" d="M19,12c0-1.9-.7-3.7-2.1-5-1.3-1.3-3.1-2.1-5-2-3.9,0-7,3.2-7,7,0,1.2.3,2.4.9,3.4l-.6,3.2,3.3-.6c1,.6,2.2.8,3.3.8,3.8,0,7-3.1,7-6.9ZM12,17.7c-1,0-2.1-.3-3-.8h-.2c0-.1-2.1.3-2.1.3l.5-2v-.2c-1.8-2.7-1-6.3,1.7-8,2.3-1.4,5.2-1.1,7.2.8,1.1,1.1,1.7,2.6,1.7,4.1,0,3.2-2.6,5.8-5.8,5.8Z"/>
    </g>
  </g>
</svg>